<mxfile host="app.diagrams.net" modified="2023-10-21T13:37:52.002Z" agent="Mozilla/5.0 (Windows NT 10.0; Win64; x64) AppleWebKit/537.36 (KHTML, like Gecko) Chrome/118.0.0.0 Safari/537.36" etag="zd2qBQ5tyWg6OoeQvaE0" version="22.0.6" type="github">
  <diagram name="페이지-1" id="sIUO-syciM_inaiMadUM">
    <mxGraphModel dx="1147" dy="600" grid="1" gridSize="10" guides="1" tooltips="1" connect="1" arrows="1" fold="1" page="1" pageScale="1" pageWidth="1169" pageHeight="827" math="0" shadow="0">
      <root>
        <mxCell id="0" />
        <mxCell id="1" parent="0" />
        <mxCell id="Q9gKy69nFiU8lOJL0LT9-1" value="" style="rounded=0;whiteSpace=wrap;html=1;" vertex="1" parent="1">
          <mxGeometry x="20" y="380" width="210" height="350" as="geometry" />
        </mxCell>
        <mxCell id="Q9gKy69nFiU8lOJL0LT9-4" value="" style="rounded=0;whiteSpace=wrap;html=1;" vertex="1" parent="1">
          <mxGeometry x="30" y="390" width="190" height="50" as="geometry" />
        </mxCell>
        <mxCell id="Q9gKy69nFiU8lOJL0LT9-5" value="CODE : 코드 원본" style="text;html=1;strokeColor=none;fillColor=none;align=center;verticalAlign=middle;whiteSpace=wrap;rounded=0;" vertex="1" parent="1">
          <mxGeometry x="50" y="400" width="150" height="30" as="geometry" />
        </mxCell>
        <mxCell id="Q9gKy69nFiU8lOJL0LT9-6" value="RAM" style="text;html=1;strokeColor=none;fillColor=none;align=center;verticalAlign=middle;whiteSpace=wrap;rounded=0;fontStyle=1;fontSize=14;" vertex="1" parent="1">
          <mxGeometry x="20" y="350" width="60" height="30" as="geometry" />
        </mxCell>
        <mxCell id="Q9gKy69nFiU8lOJL0LT9-7" value="" style="rounded=0;whiteSpace=wrap;html=1;" vertex="1" parent="1">
          <mxGeometry x="30" y="450" width="190" height="50" as="geometry" />
        </mxCell>
        <mxCell id="Q9gKy69nFiU8lOJL0LT9-8" value="&lt;b&gt;BSS&lt;/b&gt; : 전역변수(초기값X)" style="text;html=1;strokeColor=none;fillColor=none;align=center;verticalAlign=middle;whiteSpace=wrap;rounded=0;" vertex="1" parent="1">
          <mxGeometry x="50" y="460" width="150" height="30" as="geometry" />
        </mxCell>
        <mxCell id="Q9gKy69nFiU8lOJL0LT9-9" value="" style="rounded=0;whiteSpace=wrap;html=1;" vertex="1" parent="1">
          <mxGeometry x="30" y="510" width="190" height="50" as="geometry" />
        </mxCell>
        <mxCell id="Q9gKy69nFiU8lOJL0LT9-10" value="&lt;b&gt;DATA &lt;/b&gt;: 전역변수(초기값O)" style="text;html=1;strokeColor=none;fillColor=none;align=center;verticalAlign=middle;whiteSpace=wrap;rounded=0;" vertex="1" parent="1">
          <mxGeometry x="50" y="520" width="150" height="30" as="geometry" />
        </mxCell>
        <mxCell id="Q9gKy69nFiU8lOJL0LT9-11" value="" style="rounded=0;whiteSpace=wrap;html=1;" vertex="1" parent="1">
          <mxGeometry x="30" y="570" width="190" height="70" as="geometry" />
        </mxCell>
        <mxCell id="Q9gKy69nFiU8lOJL0LT9-12" value="&lt;b&gt;HEAP&lt;/b&gt; : 객체화된 클래스의 인스턴스 변수 데이터, array[i]의 주소 그리고 각각의 값 데이터" style="text;html=1;strokeColor=none;fillColor=none;align=center;verticalAlign=middle;whiteSpace=wrap;rounded=0;" vertex="1" parent="1">
          <mxGeometry x="40" y="575" width="170" height="60" as="geometry" />
        </mxCell>
        <mxCell id="Q9gKy69nFiU8lOJL0LT9-13" value="" style="rounded=0;whiteSpace=wrap;html=1;" vertex="1" parent="1">
          <mxGeometry x="30" y="650" width="190" height="70" as="geometry" />
        </mxCell>
        <mxCell id="Q9gKy69nFiU8lOJL0LT9-14" value="&lt;b&gt;STACK&lt;/b&gt; : Main()함수, 지역변수, 구조체의 값, 클래스의 주소, Array[N]의 주소" style="text;html=1;strokeColor=none;fillColor=none;align=center;verticalAlign=middle;whiteSpace=wrap;rounded=0;" vertex="1" parent="1">
          <mxGeometry x="40" y="660" width="170" height="50" as="geometry" />
        </mxCell>
        <mxCell id="Q9gKy69nFiU8lOJL0LT9-15" value="&lt;font style=&quot;font-size: 14px;&quot;&gt;&lt;b&gt;[클래스] 용어 정리&lt;br&gt;&lt;/b&gt;&lt;/font&gt;&lt;br&gt;[1] 전역 변수 = 글로벌 변수(global variable) : C#에서는 모든 전역 변수가 구조체 또한 클래스 내의 멤버 변수로 존재하기 때문에 전역 변수 = 멤버 변수&lt;br&gt;&lt;br&gt;[2] 멤버 변수(member variable) :&amp;nbsp;메서드 밖에서 선언된 변수. = 필드&lt;br&gt;&amp;nbsp;&lt;br&gt;[3] 지역 변수(local variable) : 함수 내에서 선언되고 사용이 끝나면 휘발되는 변수. e.g. 함수가 받아오는 파라미터&lt;br&gt;&lt;br&gt;[4] 스태틱(static 정적) 멤버 : 스태틱이 붙은 변수와 메서드는 힙 영역에 있는 인스턴스에 속하지 않고 클래스에 고정된 멤버(전역 변수). 데이터 영역에서 직접 읽고 쓴다. 인스턴스 사이의 공통된 속성이나 통신을 담당한다. 인스턴스 이름 대신 클래스 이름을 직접 호출해서 사용한다.&lt;br&gt;&lt;br&gt;[5] 스태틱 클래스 : 생성자를 호출할 수 없다 = 인스턴스를 만들 수 없다. 상속 가능&amp;nbsp;" style="text;html=1;strokeColor=none;fillColor=none;align=left;verticalAlign=top;whiteSpace=wrap;rounded=0;labelPosition=center;verticalLabelPosition=middle;horizontal=1;" vertex="1" parent="1">
          <mxGeometry x="20" y="20" width="500" height="280" as="geometry" />
        </mxCell>
        <mxCell id="Q9gKy69nFiU8lOJL0LT9-16" value="" style="shape=image;verticalLabelPosition=bottom;labelBackgroundColor=default;verticalAlign=top;aspect=fixed;imageAspect=0;image=data:image/png,iVBORw0KGgoAAAANSUhEUgAABKgAAARVCAYAAACZ0fjiAAAAAXNSR0IArs4c6QAAAARnQU1BAACxjwv8YQUAAAAJcEhZcwAAHYcAAB2HAY/l8WUAAPr0SURBVHhe7P19jBzVnfd/f/vW9ecSYoeFmEAwY3piZp0Ma7qJIyVZHgyBmVhknbFWY3Lxk+j5ORtLgVUPxELRru2VckdeMq0LInkXaybSjwRbkR1vkDMNAWNzkUgBz4QwwTFOt22cQELCEjuE/ev66Vbf51SdU13d0w/V3dVd/fB+SSVXP0xNVU3NeOoz3/M9sYIirbqwKAcPvSIXzcPGrJD1E1sksdI8RABn5Oi+Y3Jx/YRs4cQBAAAAAIAeF2pAteLWbbLxOvNcEGeOyr5jFwmoGkZABQAAAAAA+kc4ARUAAAAAAADQpP+P+RcAAAAAAACIBAEVAAAAAAAAIkVABQAAAAAAgEgRUAEAAAAAACBSBFQAAAAAAACIFAEVAAAAAAAAIkVABQAAAAAAgEgRUAEAAAAAACBSBFQAAAAAAACIFAEVAAAAAAAAIkVABQAAAAAAgEgRUAEAAAAAACBSBFQAAAAAAACIFAEVAAAAAAAAIhUrKGY9FPmMyPC0uz6vtjzmrmKAZadExufUSkIktyASd5/uK4NwjJHKnZB1z/zePBC5/qZb5OCGS82jCkref4mkt94m911mHnbA8ad/KF/NmwdW/EY5edfV5kFjvO19aFiO3DMi17pPAwAAAEDfGJgKqqmYSEwtyYx5AkDPev3iX8xaZcfPFsOsjtLB2GMVwikt/3PntS0vvWeeAAAAAABYDPED0Hvyb8txs7rce/LGBbPaQW+89HyxaktXOt3/BTlpl63Dcr37irx+4jghFQAAAACUCT2giqdF9KBBvTC8D0B7vC9vvGtWy737O3n6T2a9U949JV878b6zqocfniwfhnfZiBy8/xZJf8h9qEOqr+fcdQAAAAAAFVQAetL7crZKldQbZ96W1816Z7wn3/lxzv2c8Rtr9Ma6VO6750a52zx6auGUvGHWAQAAAGDQEVAB6ElPnX3TrJU6f9GtZOqY3K8l41RsXSLpZL0m6FfL1E2XuKt/eluOV6sCAwAAAIABQ0AFoIdcItebYXJy4f0KFUi+/lMfUu81q+3kNWT/0Cq5JcBMgddet8rs1/vy9Bl6UQEAAACAFnpAlc+4s+XpJWueq8f7mKRaN8/ZWffKl6Db1PTU//bj5sxzi9Ol28tUmm2rGvXJ/R9rl0ZnBlw2o6Dah2QD22vX+bKqbWuqmY11qYw6d5WOsaHroQ3COvf+a79k8V0zQYW5rTAMr7QVSP8t5901n7/IWdN/6nr7vmXelK8/9sPGZtR795RsMR9T2jvqTTlqTsL1az5S2neqmss+InfZXlR1ZiMMV/G4y5dG+2Edf7rydtY92fiwxTC3BQAAAKB3dWUFlb5Jt4FSuXF9Y6xumDvNCQ7GzYMyNvRqKtzQodew2oZ52IywzpcNbapta04dv369l3MqG7ZMVznh0+prEUXwEtq519eTet94tQ2p4x5Wrwe6JsLcVojWrLDBU4VG6e++L27WconcteavnLXlrpaNcXft9bO/CxSCHF8wPaY+NCxT6hrx5N6Wp5wV9fmuq9Z7qpzuRWVm97ur3pDAMLwn33lShz4/N/u63FPP6NdP1JgZ0cidcMKjr1b7BvlTTjbpcOnpysMvS4S5LQAAAAA9r+sCqj3qRt3eD8+oO007I6BeZhLmBfWGIFVLY7PFj02Z5xIzpdtMmxvVWvwBUPnHF+bNC4oONxoNb6Zs6KV20G5zIW2eCyCs86WP0YY2y45RLTn1nDUeQYATBh1OeWGLOje5smOctxeJDl46eIyhnXsdKPlC1Pmy7ejFf03UDJbC3FbYVv6VN0RuWaP0C/9tGqRfIteudFYqumXNle5KoD5Q1auk3rhg+12pzxdgeF/n6aqp46ZHlplhUAdjvuWI7Yklv5ev1qpa0oHSM2Y4o1wp3y7bzknfLIWS/3ntYCnMbQEAAADoC90VUKmb9Dl9o27Cg/LwKL1QvCnWVUuNhkHN0JUt/gBoWXg05t6s22yjkfBGH4PedmpebWPWfa4hIZ0vPWSw5jEqcfWcF5Soz7mnEyc/RPoYbTjlhEDq3JRnkzrQ9B/j1gAhaKvCPPflYae6NJfR14S3LfWJqw0dDHNboVtZHCKXu1A6RM8LjD70V7LaXatseJWZTS9AH6gaVVJeQ/Z6ny8ib7yU8/Y9vfULFWcYvHbDbcWQ6k85mVXX4XJvytdtoBS/UU7ef5Pc4j7ycSvDvG3lf15l6GCY2wIAAADQL7pyiN98hfDASu82K8rhdt8Qq+37K1tqVVvN2kqqBsMbvd3ZSnf/DWj1fO2ZNiup2seogxIbxC2dNis9wn+MtSrU9DF2MgQN7dzn1fNmNbXZrFThP8a5w+6/JcLcVltc6lVHlfdw8gKjlZfU6QcVfJif1wQ9Piz3dWWVVDVvyuwJcz7q7Pu1G4ZNYLc89HN4QydF7l5Te1jitRsSXvVTxZkWw9wWAAAAgL7RdQGVDmxq5jXqptLcD7c9JMn6brh31wg1HGqnm7lRr7vdOlo+Xw2EEdqI2djiKfffnpBVXxOzOrPDrNTgD/VOBy2Ha0aY515ty2SpMlIj6LLWjpoVtQPLDjHMbbXJatuHqmQmv+IMftev+IC7UkOwYX7F4X31wpSu00AQJPIBWWOCoIqN231DJ9fUGDrpKgaIFWdaDHNbAAAAAPpG1wVUo2vNSjXqhtneD7fbaS89qBMCGQ3fqCecw2lJy+dLvb5QcIdxtVrJ1a28oFGd701BTrh6jw31TrUzcQnz3Pv2+cARs1KD15+tUvVdmNtqk2srzuRnZ/AL2LB8+GOmOqfGMD9veN+VstHfHL0XXDYiB01Pp2+0uu++vl91h0Qqt9xlekndM7K8ki3MbQEAAADoG10XUAWp2OiUU6aMJEh1izZm36c+LlCuMdr6DX1Hz5dvyGMv8YLGoOdbvanrQrt6517t86RJlfTQxKZmlLTC3Fa7+EIObyY/3wx+wRqWXyq3rHGDrsrD/N6T7yzY4X2rKvRJ6iO5X3uN1Cu6rNj36/UTi/Kduo3lawhzWwAAAAD6RtcFVGs7GbjUom7Kba7RjCBDwxIjZqUFHTlfWZFYrHRWt15ig8YwznfHNXDu0/uLlU96Rkn9cUFmu6wkzG21hRdy+Gbys0PHGmhYfu11q9ygq9Iwv3d/J0+biqx0sseG9wWlZ9N77Ie+GfWquVTu+9ywFwpm9quPUR+35aX6FVDLhbktAAAAAP2iK5ukd5u5cRMS1Ft6NMDx5EWS/XhcvSCMc28qv2wvNE1XQJVsb8q8UE+Y22qLYm8i29Tbm8GvboN0H1/QVT7c7I0zb5vAa5XcUq8iq2SoYRd695Rs0UFU+VI3mPJxhgze4jUt114/cbx0e08HbGQe5rYAAAAA9AUCKhTDkWFndOJyKdNjqCywQAjacO7TC+ZjcsUqKM9cMWAKMnQvzG2FzTZKt0297Qx+QRqkF1Ub5veeHD9rtrfmI1UDL69Ze7eywdT+nGlMXiZ+o9vfqSwsqu5Sue8e0xNqq62C8sn/3ARMzwcYuhfmtgAAAAD0OgKqAFLz5ia9gSXdLUMV69EBiS8c0bMCLjueWfMiwtXuc2+qoLxtqevYTw/dCzxsL8xthcRrlJ5/W457M/gFbJDuU3GYnze870rZvqH69rx9kN/LUTtlXgDHnzZVQk+eat/MdDqc8gVT1990iwmjfMtdLQxd9DVhd5Y7zayIDnfoXuBhe2FuCwAAAEBPIqAacJmtxYBkRt1gL6TNgz4yYkp/Fk+5/3aLjp/7sWLAlDJP6WF7WbPekDC31azhVXK3s6IbpRdn8AvWIN2nwjA/b3hfvebo3j4UhxrWZ8M0pZHhiA15T77zYxtOXSLprV+QgzWCtlAM32QCphu9c/L6iV/LcbPekDC3BQAAAKAnEFBVEy/OZLZ02v23H3kNxGeCVX3Z9/eStaNmZckpWgokkzTD19rYZynKcz/rG7J3uMVUKcxtNeYDssYES2fPmBn8GmiQXlQ+zO9NmT3hDu+7e029CqOrZaP52lWeCbASG6Y1OhyxEb7PcVNC7qsb2hXf37qr5RvekL3GKsuWC3NbAAAAALoZAVUNNthYPBAs2MhOmVAjGTwIiZTaSTtT4ehas1KL7/29ZGyzWVkUORLkC6Pec8CGR+2a+S/kc9/wtRdXn9eslgewYW6rvXyN0s+aiqcmK5JKhvm99LY85Tx7pWwcdlZqumWNGY72p5wT1tXzxks5s/3GhyMG9q4J7JThlQE+h+/9lTQ8JPGyS8SeuvLKsjC3BQAAAKB/EFDV4A829gSoDDk85/6bmHTu2btfg8FCdo9zKnrPWHEY2rQ6hnryR4rHObnJrIQt5HMft0GaelOgUKlGQBbmttrNa5T+p6AVT1X4hvllTrgz211/08dqD++zhj/mNRh/aqFe6FKszpL4cIDKpiY1GOocX6jSRN3wmsEHna2wRkAW5rYAAAAA9A8CqlrGijOnzY1Lzf46uurE5FPtCzXawOvPVKd/kD6+cXuAPWjHjFlRx1Czmbc6CcPqXDhS7W12H+a5j6trzg6zGw9Q+eTvf7VZXed+YW6r3YpNyrVLZI2pqGrcpXJf0t+Yu5HqJvWxnzPD0P6Uk01Pv+k8u9x78p0nf+5VT6WTLTQor8sOf6zfu0lXNH21zhfZqzCT38tX61Y++ftfLa9CC3NbAAAAAPrHwAVUjTbK1tPs2+qb8ZjIVIUkYUo9bwMEPeNfz8zgp6R3mxVFH9+yw1M3rkl7fAmRGXsyekw8XQwbdSBUafhaPqOeHzcPlPk2z14Y6rlX19x+G8Itigyrj8tUCh3UJ9HD96ZNoqSv12WZUpjbajdfk3Id+jTcIN3Pv60PrZJbGtnWZSPybzeZsCz/c1n32ImyUOhN+fpjxyVj+jzdfedt7auecvgDt9/LV5ftj6Jn+XvMhFMfGq79c8t/fDqEe+x5+Y6d8dAvd0Idu/84b1pehRbmtgAAAAD0jYEJqDbbm3t1s+/01zFLxRvvMrO+mcp0JZX/4/Vii1v0Dfpsx+/QW6T2N2fDCEUHJSXHN2yqYxLqfQsim+zwL3Meg5y/bqHDxnn7hTTBi/9YvcopZV59zdv+pQz53OsQzr+9afXxJdvTiy+Aq3W9hrmt9ipWCjXXIN2vuK3r13yk4V5W1264TU7e6Q+FTK8lZ7GVUzpo+YJ8oxOVQMM3yREbBC3bH7XsN5VJHxqWI/eMyC126J0TsC0PjfTxFbf3vmT2l21PL8+4wyO1WscZ5rYAAAAA9IeBCajGZosVNM3QIVVB3YRXomdh09Pt91w4ZegwQu9/tQIdHT4UFpzCmpJKpF6kr4NaxzqTc1/v1Jcy7HNvt+cPl8o521TvqXe9hrmt9ik2Sm+2Qbon92tTrXOlbN/QZK+j4Zvk5P1fkG9XqkaK3+i81smgxQnN7r/RV2VWSgc/J+8Zcc7btRsSXi+tatztfcEXLi3nbDPAcYa5LQAAAAC9L1ZQzDoADCyvF5MOku5qZ38oAAAAAEA5mqQDQO6E1yi86ZkAAQAAAABNI6ACMNh0s3Db7yh+I8PJAAAAACACDPEDMHDeeOl52XTiffPIulK+fT8zxQEAAABAFKigAjDwrr/pFjlJOAUAAAAAkaGCCgAAAAAAAJGiggoAAAAAAACRIqACAAAAAABApAioAAAAAAAAECkCKgAAAAAAAESKgAoAAAAAAACRIqACAAAAAABApAioAAAAAAAAECkCKgAAAAAAAESKgAoAAAAAAACRal9Alc9IMhaTmLckJZM3rwEAAAAAAABGGwKqvGSSMYkNT8uieQYAAAAAAACoJlZQzHo4slMSG59z1xMzkltIS9x9BAAAAAAAACwTegVV9rAJpyQl84RTAAAAAAAAqCPkgCovp5fMamqzjJlVAAAAAAAAoJrQA6pTpvFUYoTaKQAAAAAAANTXvln8AAAAAAAAgAAIqAAAAAAAABApAioAAAAAAABEioAKAAAAAAAAkSKgAgAAAAAAQKQIqAAAAAAAABApAioAAAAAAABEKtyAKntY5szq6Nq4WQMAAAAAAACqCzWgyh628VRCRsinAAAAAAAAEEBIAVVeMsmYjNt8KrVb0gRUAAAAAAAACKDpgCqfSUosFjPLsEwvmhcSM5KbHTMPAAAAAAAAgNrCG+KXmpdCoSCFhbRQPAUAAAAAAICgYgWdKrUsK1OxcbdBug6qqKACAAAAAABAQCFVUI3JbCEnMwm1Ojcusams+zQAAAAAAABQR4iz+MUlvTvlrs7tlEzeXQUAAAAAAABqCTGgUuIjoouoRBblFAEVAAAAAAAAAgg5oForo2Z16TQJFQAAAAAAAOoLN6ACAAAAAAAAGkRABQAAAAAAgEgRUAEAAAAAACBSBFQAAAAAAACIFAEVAAAAAAAAIkVABQAAAAAAgEgRUAEAAAAAACBSIQdUcRlJuGuLp/LuCgAAAAAAAFBD6AHV2lGzOndYsmYVAAAAAAAAqCb0IX5jm1NmbU7GkxmhjgoAAAAAAAC1xAqKWQ9Ndiom43PmgSchM7kFScfNQwAAAAAAAEBpS5P0sdmCFHIzYtpRAQAAAAAAAFW1pYIKAAAAAAAACKotFVQAAAAAAABAUARUAAAAAAAAiBQBFQAAAAAAACJFQAUAAAAAAIBIEVABAAAAAAAgUgRUAAAAAAAAiBQBFQAAAAAAACJFQAUAAAAAAIBIEVABAAAAAAAgUqEGVEtLS84CAAAAAAAABEUFFQAAAAAAACJFQAUAAAAAAIBIEVABAAAAAAAgUgRUAAAAAAAAiBQB1SDLiyRjIjG1TGXNc22QnXI/RyzpfMqW5DNmW2pp4y6jhwzKNeE/TmdR31fNCPP7EQAAAADCEmpANTo66iwAusOUCTOSGfNEl+jW/epWmaTI8LR5gLq4vgAAAIDeQwUVAHSzvMiBRbOeEikUzDJrngMAAACAPkBAhZ4STxdv0MfMcxhsfX9N5EVsPjWzw6wAAAAAQJ8hoAIAoJfkM5KMxSTmLEnJ0EwMAAAAfYCACgAAAAAAAJEioAIAAAAAAECkQg2olpaWnAXLLZtVKq/WzXMlS5Cp47PF99cd2uH7PIGHgfi2b5dumQ3LP9W+2s2m6VnR/MdnlyiHynjT/5cval8b2S3/dubMc4vTvu2ppdHjtNdv+TLVwBehHful9eU14f8eHDfPKdPDvueD/Kxolwo/I/TSyPXg183XVzOy6oDc4XdT9a9J33C9wMcbT8tCoSAFZ1mQdNw8DwAAAPQwKqiioG/u1I2mbXxcQt1ZdfJGqpxzo+i7IbbsjV6T959dw97ETlc8+SYAaDAQapm+HtQ+jdu76nJqX4f11yWCQMKGNtV2bU5dK71+XXTlNdHFqv2M0Bq9Hvr1+hqbzclMQq/Nyc6aP8zzktk67f5fkJqXWWZ+AAAAwAAjoIrAlL25808Zr5d587yib4o7HVLpm0V9o5iYKd2vnHpsjffwjboOIrwQSN085nzHqJd59fVw6ECoU8epwynfzf582T7pxb3RVdS+BwmpxmaLH2sPqfxrGqTiQgcRNrQp/3i9NHpdhLVfYerKa0Ib8+2H7+fCTM73vDqfnaavCXu6Umq/vH0p28/xAKFSf19fcUnvdvdicXpr1Z/l+cxWcw5SMk86BQAAgAFHQNVhuhLJC4HKbzD1Tam6AbV5hLqv6dgN8dJO92ZR33QupM2ThjONv735VO/Z2iXD/Rqhh4HZIMI59wv6FrKUvsH1boo7dJzlYWWlW9S02ldvv9QxNDuMqhH6fNkgQoci5deEpq8L//na02NlLt16TXQrHeb5r4lleYoJ1Ww4VCtUGoTrS188bsC5KNMVdz4re0xCl5jZUfF7HwAAABgkBFRRSIjsr3BD5lB3yPsjuClb1PdJ6maq6h/x1fO2mkSHbL12r7hH7bNDHUOlm2FL3xTbiqW2H6e6e7cd21KbzUoV/v2aO+z+207+81Wr6kTvl7ksZOm0WekRXXlNdCt10DbM0yF2rWti1hdmV/v5NQjXlza2Y8b9g8Pc+LJgOTs17oZ0iRn1/0GNkwAAAAAMCAKqCKR2qxsvs16J/6asE2GENbPDrFQxpl439+mys5cqSdSNoVetUecYtbT6+lin21nCprbt1k+IjAS4P107alaWqlemhKKB4EwbseHNKfffntCt10SXytqfQ+prvaNeqY96vWaYOgjXl6V+mO83J2NO/dD0Lp18Rna66ZTM7E/X/P8AAAAAGBShBlSjo6POgto2BxjLsdlLqJx76fZT91Cb6t0lqdcne/Bm0X9zXfcYNfUec5hyqp1hhO/zHDhiVmrweuxUGIoWKrXxBdOzp1/b4nTtNdGlDps0LzEZ7NrbpN7nqPTzawCuL794er8b2C1Oy1anGZW/MfrujvddAwAAALoVFVSdpm5UgtyPjPkqCzpRsRH0xtOr4ulUcBaC07ZcQ+17oHvBTt1Aq8/jBX7T0c3c2BJ1EdhG172ka6+JbqSuS+90rTUrdcR972vp51ePXl+l/A3T90iGxugAAABARQRUnRb0htinmyo24iNmpYecMje4iS7c9/T+YmWOnrlRT6mf7IXhk1l3X/0zEPaSbr4muo76+WMzoiBDUR3qfS1VnPX49bWM1zB9TqZN4paan6UxOgAAAOBDQNVhgW+IfTd4ndDxygi4TGWO7dmj6Woq5+bcLlPmhSior3HSvy926ZfgAO2hrmtbbFmzufkAXV9js/Neb0HdGL1uLy8AAABgwBBQAV0gveAOHyvkKgSTc8Ub944NA7TBwXCxeqaEutN29rcsXAMCGcTrK3tYfyu7Fg/IkU59LwMAAAA9goCqwwI3F1c3Lw0Pq2lB0Cnc8773re3Afg0cU1Flb84Ldsp+Qw8DbPsQQB0e+IKDxIxvf+wya14EKlHXUNW+VQN5fWVlatyLp5RFmd7TK138AAAAgM4INaBaWlpyFtSgTk9H/3DuC7pqCRqc5XtwqveenqZ+rHjTbocH6SGA7by1zWwtXjMzOZGFtHnQR3r6mui0eLGqL3A/Kd/PnfKAfRCur3LZqXG3eioxI7ncjHs+58ZliowKAAAA8FBB1WnqzizIPZ43Db7SSqWSv+KppoDBmTf7WcrJTnqCN/NgA+FgJmmG1UXZ/6nMrG/43+E23th6DcRnJNAU+Pb9vaRfromOUNdAoH5SPrUqLQfh+iqRnRK3eCohM/vTEo+nZb8Ztzg3PtVc2JzPSFJdjDFnSfbmDKAAAABAGQKqCAQJFw7b0SCVgiB1Uxe0oiFwxZO6CazbE0W9fsDeXPbQ7Gdjm81KkGPUOnSc6r7VDTySzqesr4mgoGFqR2wGGahxvu/9vaRbr4lutdmU7y0eCHatHlHvc5T//BqQ66soL5md5od5arcXyMXT+01vrTkZp4wKAAAAcBBQRWBuZ+2bvHxG37a4ZnaYFb+gQYX6JPbeKIjpPWaliqx63dyjy+5eGpaj7pDt8Lh6x6jljxSPc3KTWWmDuA061CcLctPvv1kPOutiwxoMwfzXRE/p0muiW/kDvbqtk9Tr0+ZkpezHWYNyfRn5zFZzLlIyP+uP6uKS3m2uQPUfAhVQAAAAAAFVxyX0X83VDcvWao2u1Y3K1mmzru5fqg2B8XroqPdWu1/093oJZE6q90RRz9sev3pozrKqri63Q+2zQx1DzSbj6jiHA5z/MMQ3qXNp1scDVFH5v56b2/gFCHJtaboCrKTvc4/pxmuia6nrbd7mKePqWqx2sarnk+p1h3p/SSZjDMr1pf/SsNUkdan52eU/M8dmzTldlGn1H0JDGVU8LQuFghRsPysAAACgDxBQddqke6Onb86W9bJRd2v+adfVPU1V6d1mRRmPLb/Rm1LPOfdG6nOZ+8qaUupmXd/o6JvP8pt1XdEVszed6k37e7Cpsbqf86ard859hUCo5DiVWuc/FHF1Lm1Ior5Ww+prVvHGX18X9uuppOYbDwgbaQZe79pyQgj1vBMeqHM6E+QCqyLKJuVdeU10sTF17PZLrWeTXBZmB/z5NRjXV14yW6fdc6G+YSsFddrY7Lx7TtUFuJUyKgAAAAy4UAOq0dFRZ0Ft+kbPuTFWN2BODyK7+G6E9exWNUMI9WLOhhuKvtHzb8sWHgS+oV5bDEucm3XftrzqEWV+wclVelJa7butArGBUNXjLNQ5/yHRIYn/66hv/P375Cy+60KHU9VudiuxvYPKr7Wa98J1ri0vhFDXcE6d0012qKL5HEHus5varzboxmuim836ZpPUYbb/XJUEebXO1QBcX9WH9pUbkx0mJV2c3rM8rKsjf+SAOlejLU2kAQAAAHQLKqgiom+MC75Z2Tzqxqqgbu6CDCPS4UbFbWj65q7BG2pne/PmQRkdjOj96vUbdB0O6uOw96/ldDDY6eN0zrv6nP6b9nL2/DcSTmleGNogu0/VzpOzP+oa1pepfm+jn6PZ/WqHbrwmupkOqVr9OdHX15dvaF9iZkeAc+FrmJ4MPtQvn0nKsP48qc1cmwAAAOgLsYJi1tFGesjdnPpX929aUDdcAAA0JZ+R5PC0LKbmpdBoag0AAAB0KSqoAADoJXHTJJ1wCgAAAH2EgAoAAAAAAACRIqACAAAAAABApEINqJaWlpwFAAAAAAAACIoKqg5xZr5SCw3SAQAAAAAAShFQAQAAAAAAIFIEVAAAAAAAAIgUARUAAAAAAAAiRUAFAAAAAACASMUKilkHAAAAAAAAOo4KKgAAAAAAAESKgAoAAAAAAACRIqACAAAAAABApAioAAAAAAAAECkCKgAAAAAAAEQq1IBqaWnJWQAAAAAAAICgqKACAAAAAABApAioAAAAAAAAECkCqkGWF0nGRGJqmcqa59ogO+V+jljS+ZQtyWfMttTSxl2OnP84nUWdw2aEee4BAAAAAGgXAiqgy2SSIsPT5gHqmjIhXjJjngAAAAAA9BwCKqCb5EUOLJr1lEihYJZZ8xwAAAAAAH0o1IBqdHTUWYB2iaeLoc2Yea6v5EVsPjWzw6wAAAAAANDnqKACgG6Wz0gyFpOYsyQlQzMxAAAAAH2IgAoAAAAAAACRIqACAAAAAABApAioOmTZTGN5tW6eK1mmzOu1ZIvvrzvcx/d5Ag8N8m3fLt0yQ1pe7YfdJ7WbTdMz5fmPzy6RDJ/yn+9x85wyPex7Psh10S4Vrge9TDX5BbDfC61sL6vOh/24OfPc4nTp9jrztcyq43GH3yWDfkLfkL1AxxxPy0KhIAVnWZB03DwPAAAAAH2EgCoK+oZ/uNgMu4S62+7czfVyTnjgC0kse/PfZCbRNWywMV3x5JtQKOnkelCqXQ/anHq+kWvChoI2UCrX6Pa6w5hsTrlriweOBLpusnum3e/9xIzs6MtO/wAAAADQuFADqqWlJWdBbVP2hl/d2NoZ6Zxl3jyv6KCk0yGVDhB0eKDum0v2K6ceW+M9HN7ocGrcpiMJdVy+Y9TLvAkadHow3MnjHPPth+8amMn5np81T3aQDqfs6Uqp/fL2pWw/xwOESnpbNhQsv7700ug1NqbOh/1Y+2Ur326nKo3GigmVHKl70WTlsDmpiclNQjEUAAAAALiooOowXYnkhUDloYMOKnJOduKY3tq5kGRppxsg6CBiIW2eNOLqsRdIqPds7ZLhfo3QQwNtOOWc+wV1XO5Djw49vKCkR48zLDrMs+GUDspmyyt9TKhmw6FaoZI+9/5tlV9fmr7G/Od+Ty+VUY1tNudhUQ7US6iyh825SMjkJuIpAAAAALAIqKKQENlf4Sbdoe5Z90dwo76oPpe+y14WRFjqeVthpEO23hqGpc6j2meHOoZKAYmlg5IZkxD24nGGQh20DfN0YFmrEmnWF1xWu1b9577WtvS5N5eYLJ02Kz0h+DC/rC2fSu2mlxQAAAAA+BBQRUDdm9Yc2uO/UZ87bFY6YGaHWaliTL1uq7t29lJ1UVadR7Na7xi1tPr6WKc7VcLWRbL2mlNf7Lo9ktTrNtCreK2q82cH/aY2m5UaRmw4eMr9t1cEG+ZXHN6X2lzvxAIAAADAYCGgikCQe1N7v6uTlY5U8SRE6o44Uq9P9mCA4A9cAo2qUu8xhymnBjCgKvZIqh2kWpvU+xyVrlW1gQXTE6pqdV4/GNthgroaw/y84X2pQD8DAAAAAGCQEFB1mrqJDXLTP+arNulEFU/QMGLtqFnpVHAWgtO2hEfte5BjHJhQpRJfxdPoWrNSR9z3vpauVXVBVZtdsfvFZZNJbysP88tLZqdJ/lKbdeEZAAAAAMAn1IBqdHTUWVBD0JDEp5uqeOIjZqWHnDKhR6IH973j1LVmM6KRoBeqel9LFWdZkVhMLXZ2yx4V3zTpnodKw/zyR+SAc2ITMlN33CQAAAAADB4qqDoscEjiu+nvhI5Xy6B/qGvVxtI1m5ur6yWpg6jypceDKU98kxkCu3yYX/7IATf4S0wGG2YKAAAAAAOGgApAe9lgarhYnVUi5Q6n1IttuN6bqg3zy8sRt3xKEpObGq6gBAAAAIBBQEDVYYGbi6u724aHWrUg6LT+ed/71nKnDU1dq1X7VulwyhdMJWaKYZS3zJoX+0DFYX7e8L6U7E7zTQMAAAAAlRBQdZq6ky9WVnSAL+iqJWhwlu+x6f+1EVOV00szD0YmXhxaGriflO8aKw9TM1uLr83kRBbS5kG/qjDMzxveR3N0AAAAAKiKgKrT1J1qkPv+7GGzorRSqeSveKopYHDmzYiXkp652fZmHmwgHMwkTX+kKfPEoFDXWqB+Uj61quq8BvUzIkGKh+z7e1f5ML+s7DFTE6Y2N/kdk89IUl2MMWdJSiboRQwAAAAAPSTUgGppaclZUNvhrFmp4bCZkb5iEKRu9INWuQSueFL30MtmHiunXjetdHpqRryxzWYlyDFqPXqcYdmsrjlt8YBzKuo6ot7nKL9W1QfbnwaBmvD73t/LSob5ZQ6L+62ckmbzKQAAAAAYBFRQRWBuZ+0b/3xGvcesz+wwK35Bq1zUJ9lpNxTA9B6zUkVWvW5yG9ndS0O1xpzsxFHvGLX8keJxTm4yKwPEH+jtqRemqtdNgZAewVaqwWos//XV03zD/Kan3W/AhPpGJp8CAAAAgOoIqDosoW9c1V341oz7eJm8em3arKeqD4vy+iqp91bLEPz9fwJR99JT1Tamnh83YZcertVrN9s71D471DEkq517TR3ncIDz39fUF3feJHpz4+o6qpamqueT6nWHev9shYsiyHWqZaeK11fvi0t6t41EtYRMbmrhQoqnZaFQkEJuxqucBAAAAIB+Q0DVaZPuzb++YV/W30jdwfun4p+vMbtZerdZUcZjy2/+p9RzTmWL+lz+W+VqUjP6NtoNJMoDHF3RFbNBhHrT/h5sdK3u8WXGF5bEkk6+UqLkOJVa57/fjaljt9fNtLomlwWXAa/VetepE3Kp551wSn19ZoJcrFV0VRP8sc3F77vEpLSSTwEAAADAICCgioC++XfCEnVT7jTitosvHNEzntWsUlIv5mxVkKJv/v3bssUogUOWtSL7zfacAMe3La+iSJlfcEZu9aS02ndbGaSTlWHfMS47zkKd8z8AZtU5sKdLB5f+c1US5NU6V3WuUy/kUt8POfX12WR7fpnvjSANwW3PrPLvp2ibice96rHE5KZQvmfc2QBHW5o0AQAAAAC6FQFVRHRYUsg59+Wl1M12Qd3wBxlapquCKm5D0zf8DYYszvbmzYMyKfW83q9eD210OKiPw6tuKaODwX44zrDokKrVa8K5rmqcc2c7Jvj0V7oF5QW+3SS7x/TmSsnuEMaJ5jNJGdYbTG3m2gQAAADQl2IFxayjjfSQO2cU04zIgroJB9C/suob3hm2mJqXQqXmXI3IZyQ5PC2LYWwLAAAAALoUFVQAEKbslNfwPbU5hEApbpqkE04BAAAA6GMEVAAQFl3t5KVT8xVnNgQAAAAALEdABQAt0P2hYrGYu+iheM6zKZknnQIAAACAwAioACBEiZmcFAqzNDMHAAAAgAbQJB0AAAAAAACRCrWCamlpyVkAAAAAAACAoBjiBwAAAAAAgEgRUAEAAAAAACBSBFQAAAAAAACIFAEVAAAAAAAAIkVABQAAAAAAgEjFCopZBwAAAAAAADqOCioAAAAAAABEioAKAAAAAAAAkSKgAgAAAAAAQKQIqAAAAAAAABApAioAAAAAAABEKtSAamlpyVkAAAAAAACAoKigGmR5kWRMJKaWqax5rg2yU+7niCWdT9mSfMZsSy1t3OXI+Y/TWdQ5bEaY5x5oj6xMqYs0VmFp58+l+irt11TLP3fymWTpNqM9SAAAAKBrEFABXUbdv8rwtHmAuqZMiJfMmCfQI/LqWtchzbjMmWfKzY3r15OS6XC6mlUXVeX9mpNxdbElm9oh93iHpxfNYwAAAAB+BFRAN1H3vQfs/WtKpFAwy6x5DugLOqwZFpvVJGZy6jovlC7z6hvAsSjTw50LqXSF07hJpsr3y+7S4vRw4yFV/ojve3u+uN3ZMfMkAAAAMNgIqNBT4uliaNOXt3Xqntfew87sMCtAn8lntppwKiEzuYIspOPO8yXGZtX3+bzOaZVFmd6a0d8e7ZWd8iqcUvPL92tstiC5mYSzvji9tbHQLH/KfG+rY95BKAUAAACUI6ACAHRQVvaYECgxs18qZVNFY7LDBEKyeECOtDWhyktmpymdSs1LtcKmeHq/uLu0KNN7Iuoflc9I0utj1fkhkAAAAEA7hBpQjY6OOgsAABVlD5veTgmZ3FQznXLEN02qd2qLcqqdQYxvCF5qc60Kp7ikd5uxfnOH+3qyBgAAAKCTqKACAHRM/vSSWRuVtfXzKZH4WvVO19Lp9iVU+SMHzBC8lNTMp7SxzWbo4ZwcJqECAAAAQkFA1SHLZhpT91lJ81zJMmVer0XdENn31x3a4fs8gYeB+LZvl26ZIS2v9sPuUyv3hXqmPP/x2SWSoTL+8z1unlOmh33PB7ku2qXC9aCXZmfHt98LrWwvq86H/Tg709ridOn2Ova1VDvjDrVqbGn2/PW6/ClTppQYkSD5VKd4+5XaHKC/XVxGzMjDuVoJlf/asJ3X9dDAYd+10MyFEE/Lgm2yXlioM0wSAAAA6A0EVFFQ9yOxYX2bUoG6h1H3LJH1FHHCA19IYtmb/16/p7bBRrWZ3p1QKOnkelCqXQ/anHq+kWvChoL2Nr1co9vDgMifFq/mKlDJVTOycthcmImRQGVdsrZY1sXPCwAAACAEBFQRmLI3/KnijHTOMm+eV3RQ0umQSgcI+h4tMVO6Xzn12Brv4fBGh1NeEUNCHZfvGPXim9Vehjt5nGO+/fBdAzM53/Oz5skO0uGUPV0ptV/evpTt53iAUElvy4aC5deXXhq9xsbU+bAfa79s5dvtWFWJM9ucrWapvdgZ4AINI2tBXn0zexU6zSxtLO/SM+E552MhHayCyjf7XaDsqEVBQ7C4LaFaPFX9evVfG94PGHfmQu/5at3YAQAAgAFDQNVhuhLJC4HKQwcdVOT07YtremvnQpKlnW6AoIMIdd9YIq4ee4GEes/WLhnu1wg9NNCGU865X9A1EKV06OEFJT16nGHRYZ4Np3RQtuwe2oRq9pa7Vqikz71/W+XXl6avMf+5j2pytLZSJ3XYSel0QDEbYBgZ9FVVnFlvd/tCR1+VVlDxYgmVtLE1FgAAADAwQg2olpaWnAV1JET2V7hJd6gbsP0R3Kgv6vvmVIUgwlLP2wIAHbL1Wn6wR+2zQx1DpYDE0kGJN6t9Dx5nKNRB2zBPB5a1QoFZX3BZ7Vr1n/ta29Ln3gZeS6fNSt/IypQ5qYmZ/W2v7oqnF4oVOs0sXVLVk50aNpV3CZnZ0cZ96nCVFgAAAIDlqKCKQGq3k0NV5b9RnztsVjpgZodZqWJMvW6ru3b2UnVRVp1Hs1rvGLW0+vpYg1gZkbXXnPpi180E1Os20Kt4rarzZyPr1GazUoNv1FQfyUsmOe5eg4kZ2d+xsYe9LTsV8wWlNAIHAAAA+h0BVQSC9J7Z7CVUTr7SfgmRTfVuANXrkz0YIPgDl7rHqKn3mMOUUwMYUHnNoidrB6nWJvU+R6VrVW1gwfSEGtRWO/nMVlMFlJL5oH2XBpoO9PzhVGFgrx0AAABgkBBQdVoi2E3/mK/apBNVPEHDCK/tSqeCsxCc9qYAC3aMAx2q+CqeRtealTrivve1dK2qC8o2Uu8b+YxsNQeVmqfvVH1ZmYr5hvXlCKcAAACAQUFA1WlBQxKfbqriiY+YlR5yyoQeiR7c945T15rNiAL34lHva6niLCsSi6nFzm7ZN7IyNTztnM/ETI6gpZ7slLoOikMhcwWG9QEAAACDhICqwwKHJL6b/k7oeLUM+oe6Vr35zGo1N1fXS1IHUeVL3wVTruxUdH2n8pmkOrex5pepTtZHukP6YmZMnx7SV+j0UMj4iPl5uziQw3oBAACAbhBqQDU6OuosAOCxwdRwsTqrRModTqkX23C91+mAyM1b6DtVm39InzpX6iKIpNIsvtYLWYPK+8YOr+ULDAAAALSMCqoOC9xcXN3UNzzUqgVBp/XP+97HTRkc6lqt2rdKh1O+YCoxUwyjvGXWvNgvuqDvVDy9oM5tofmlEymROk/JkiF93dGjaylgaWjeN3aYH4UAAABA6wioOk3dyQe7/QmJL+iqJWhwlu/B6f9HTFVOL808GBl1p91wPynfNVYepma2Fl+byYkspM2DvkXfqWCK58kJpyKvMhvzZk5dDHTh532TL6wloAIAAABCQEDVaeqOLMjtT/awWVFaqVTyVzzVFDA4827K1M1cr9x7ezMPNhAOZpKmP9KUeWJQqGstUD8pn1pVdV6RyYwEanht39+rouw71Uu889RFQyDjNsmeO6z79teR967V1OYIfhI61We2Z1hSMkF/sAEAAABdjIAqAocD9B8+7N69VQ6C1N1c0CqXwBVP6mbrSL2bHPX6ARs49NCMeGObzUqQY9R69DjD4lWSHHBORV1H1Psc5deq+mBfkUl9vvf3pOyU6TuVkJn99J2qyn+ect0xrE+Lb5o0P1fn6v+Mzh72ArYo8ikAAACgHxFQRWBuZ+0b/3xG3yK5ZnaYFT915xt01rSddkMBTO8xK1Vk1esmt5HdvTRUS91Amsyl7jFq+SPF45zcZFYGiD/Q21P3Rl2dU3OyUvbjrKDXqeG/vnqOrmjxZqFbCFQtNpjykrE/lFK7u+s8xTfJpC2i2pmp8TPafwybe6aSFAAAAOh2oQZUS0tLzoLqEvoGSN2Fb824j5dRd0Vbp816qvqwKK+vknpvtQzB3/8nEHXPVXV2efW8uf92hmv12k3ZDrXPDnUMyWrnXlPHORzg/Pc19cWdN4ne3Li6jqrdqavnk+p1h3p/pX5LQa5TLTtVvL56T159r5l+Sql5+k7VFPHQuJrikt4/41ZRqQu2WjibVz9Y3VA2ITM7IjqGeFoWdDP7nNlfAAAAoA9QQdVpk+7Nv75hX9bfSN0Q+afin68xu1l6t1lRxmPLb/6n1HPOTZT6XCZrqCk1o2+33ECiPMDRFV0xG0SoN+3vwUbX6n5OZnxhSSzp5CslSo5TqXX++92YOnZ73Uyra3JZcBnwWq13nTohl3reCafU12cmyMVaRVRN8LNTw+73mm72TTpVmzc0LtG+2Ulb6c+kflDsNz8o5tQFmyz74Kz6wTpsSgYTM/uplAMAAABCREAVAX3z79wDqTs1pxG3XXzhiJ7xrOatrnoxZ6uCFH3z79+WLUYJHLKsFXVj5q46AY5vW15FkTK/oOsMelNa7butDNLJyrDvGJcdZ6HO+R8As+oc2NOlg0v/uSoJ8mqdqzrXqRdyqe+HnPr6bLI9v8z3RpBwwfbMKv9+6kzj6GyxX5z6xhlWn9gNRgIsVcsVB8GiTKtvwIrnpcbSiVMWVz8o7M+Jxenhks9frCLNyUIXpFP5IwfUmRxtaSINAAAAoFsQUEVEhyWFnHNfXkrdGBXUDX+Qex9dFVRxG5q+4W8wZHG2N28elEmp5/V+9Xpoo8NBfRw20ying8F+OM6w6JCq1WvCua5qnHNnOyb49Fe6BeUFvkBIxtSFX1AX/vJrNiXz6mLuinAqk3SrueiDBQAAgD4RKyhmvWW2/9ToqG2NDEsPudN/fNf9mxbUTTgAAE3RwxiHp2UxNS8FhpUCAACgT1BBBQBAL4mbJumEUwAAAOgjoQZUunKK6ikAAAAAAAA0ggoqAAAAAAAARIqACgAAAAAAAJEKtUk6AAAAAAAA0CgqqAAAAAAAABApAioAAAAAAABEKtSAamlpyVkAAAAAAACAoKigAgAAAAAAQKQIqAAAAAAAABApAioAAAAAAABEioAKAAAAAAAAkSKgAgAAAAAAQKRiBcWsAwAAAAAAAB1HBRUAAAAAAAAiRUAFAAAAAACASBFQAQAAAAAAIFIEVAAAAAAAAIgUARUAAAAAAAAiFWpAtbS05CwAAAAAAABAUFRQAQAAAAAAIFIEVAAAAAAAAIgUARUAAAAAAAAiRUAFAAAAAACASBFQAQAAAAAAIFKxgmLWAQAAAAAAgI6jggoAAAAAAACRIqACAAAAAABApAioAAAAAAAAECkCKgAAAAAAAESKgAoAAAAAAACRCjWgWlpachYAAAAAAAAgKCqoAAAAAAAAECkCKgAAAAAAAESKgAoAAAAAAACRIqACAAAAAABApAioAAAAAAAAEKlYQTHrAAAAAAAAQMdRQQUAAAAAAIBIEVABAAAAAAAgUgRUAAAAAAAAiBQBFQAAAAAAACJFQAUAAAAAAIBIhRpQLS0tOQsAAAAAAAAQFBVUAAAAAAAAiBQBFQAAAAAAACJFQAUAAAAAAIBIEVABAAAAAAAgUgRUAAAAAAAAiFSsoJh1AAAAAAAAoOOooAIAAAAAAECkCKgAAAAAAAAQKQIqAAAAAAAARIqACgAAAAAAAJEioAIAAAAAAECkQg2olpaWnAUAAAAAAAAIigqqXnLmqOzbt0+OnjGPEdAZOarO28HFC+YxAAAAAADoJgRUEbmweNAJm8qX+iHKCvngSrOK5S4sysFA5xEAAAAAAHQLAqqIrExskW3bti1btiQGKH1yKsIOSjuypBWkeAAAAAAA9IxYQTHrLbP9p0ZHR51/ETId6By7KOsntkjtHOuCLB48JK9cNA9bsGL9RNtCszNH98mxcytqHo/7HvOgiqFbt8nG68wDXUF16BVZ4X/OGeJ3TC628VgAAAAAAEDzCKg6xQQnjWVGQ3Lrto1SzFmCBlT1mABL1svEloREEtl456N2QFVTpTCKgAoAAAAAgJ4TakCFxuleVIdekWAhTWgBlRvYnGslHGqFcxy2LKqFfah0PgioAAAAAADoOfSgitiFP+uaqovy5w729L6w+Atx46GL8sa5Tn1idyY9pxn8sXPO0MGJ9SvMa81xzx1N4wEAAAAA6HUEVJE6I+dNIdG582fclXa7sCjP6+ZUK9bL+iGRi68ckqMd+dTXycZQm8FfkHNvqOMYWl0cAgkAAAAAAHoSAVWEzhx1h9kNDa0QOfeLgLPZXZRXDplKJLMEDpj8fZ9uS0hi460ypJ4+d6w9M+m11YVz4uZTxFMAAAAAAPQ6AqqI6N5Tug3TivW3ycaNfytDTvB0VOpnTbpnU7ESSS/FXkvV6dnw9tlwyuvZdJ1snFivnjGhV2dKqUJx5hV9LENCPgUAAAAAQO8joIrCmaNyyAyzu81JimxQdE6O7QuzmknP1udWWTk9ydXnm9hW1pB8ZUK2bJsQpx3UuWOmKitIUBahC4vyCyfcW8/wPgAAAAAA+kCos/gtLS05/46Ojjr/YjldyeSFRVsSUtqJyc6upw3Jrds2lgYwAWfxc2cG1A3ErQrbqkgHWofE/6G6mXm7Zr5raAZDj93HKsfkDWNcrp3HAgAAAAAAmkdA1SFeMKXUC0qKAVNZCBMwoOoVzQRU9jwO3VplaKMJqFaUvO4GfxcJqAAAAAAA6EoM8euQ6zZuk4n16+XWADPYrUxsMf2lglQ9NcfpSdXtQ/nK2L5dMnRroL5bAAAAAACgNxBQddDKRKK1wOm6jbKtvIdUK1Z8sGyIYbdye2nZvl0TpFMAAAAAAPQVhvhFoUafpPr8s/A1zxkqd7FSH6zOCTTEzxnW6I2NrL+/DPEDAAAAAKDnEFBFoWKIEkCIPah6IaAq9uKq37fLQ0AFAAAAAEDPCXWInw6mCKcQFqcX18SETATo2wUAAAAAAHpXqBVUCKhdFVQtDR2sJZxhheWamcWvLiqoAAAAAADoOQRUUeiCIX7dgIAKAAAAAABozOKH/rIyIVu2NRj8AQAAAACASFFBFYWWhuK1Z7hdf6OCCgAAAACAbkZAFQWG+HUYARUAAAAAAN0s1IBqaWnJ+ZeZ/AAAAAAAABAUPagAAAAAAAAQKQIqAAAAAAAARIqACgAAAAAAAJEioAIAAAAAAECkCKgAAAAAAAAQqVBn8QMAAAAAAAAaRQUVAAAAAAAAIkVABQAAAAAAgEgRUAEAAAAAACBSBFQAAAAAAACIFAEVAACdkp2SWCwmsWRG8uYpoH9kZUpf37GkZLjAAQBAg0KdxW9pacn5d3R01PkXAABY+uZ9XOYSM5JbSEvcPAv0F3OdS0rmC7MyZp4FAACohwoqAADaLi+ZpL5pF0ntJpxCPxuT2fmU+ndOxqey7lMAAAABEFABANBu2T0yvaj+Tc3LLCUl6HdjO2Qmof6d28lQPwAAEBgB1SBTvzQmYyIxtbTzj5zZKfdzxJLOp2xJPmO2pRb+LttZnTj3Hfn6vvygPDSx2lsyPzhnXqii5P2fl+feMs+HrVv3K0xvPS4Zs89Pvmye61F/+MHnzbl/UH5pnqsuL5mdunYqITM7wkmn+FnYmHNP7JXVG3ap5ZAcNc+hneKS3q2rqBZleiv91gAAQDAEVAAG2ttv1Q6CfvnSIbPWWd26X0VH5UkTNtUN0wadrZ5KTMqmPh/bN2VCs2TGPIEe9Ct50Anzdsnnn/ijea4JtopqcVr2kKICAIAACKgADLafPFOjAuac/PFNs9pp3bpfaJCtnqL3FAZNXDZN6oRKZO4wCRUAAKgv1IBKz97HDH5op3haRM87qRfauHRW/5770/LHasPj3npOXjtv1juuW/cLDckfkQO6ekpSsjnEbxx+FjZm6N7tcv6lXWqZkI3mObRffNOkOBEVvagAAEAAVFABGHAn5Z3fmdUyf3j5iLxt1juvW/cLjcjumRY3n9pMkITBE98kbhHVohw4QkIFAABqI6ACMPBefaly2+R33jpp1qLRrfuFoPJyesldS4wwuA+DqDjMb/HAEZqlAwCAmgioAAyodbJqtVl986z8wawW+fo8rVbvNavt1637hYZ5w/sSMtnv3dGBKuJrTeuHxVMEVAAAoCYCqg5ZNrOR+i0taZ4rWabM67Vki++v29PB93kC93/wbd8u3TIjU1hTq2eSpcdnl471yPB9XaaCHkgjH1Phaxjo42oI49z7t2GXVvapVVdcvc5dOZ+Xd9w1n3PyjunztOrqte7KMk3MZPfW45IxH/Pky+a5Mq3vVwUvP+h8zvKl0Rn4fvmo/dgpedU89/aBW33b/Lw8V613VjW+c+JfGp4dsMoxVjvPtfzhB59vfTv5U+7wPhmVtSHnU818P3ofo37+2R919v+m8qWRb8us+n/LfpzbDt6ZuK1ke1H3Hzr3xF5nVrrVGw6p79pgvI+59wX1XacVZ7crXepts8KseL95QT5fsg2z/Ouv3NdrefGQef9eefw35rlqvM9T/71H/9Xux0Gxc4Se3Pvv5rmAn6+S+Ijbh0pdHfRKBwAAtRBQRUH9ghYb1h0ZKlC/3Uf5y7xzszJuHvjYm41e/93S3kg5U75XMK2+Lv6bt7ZRN6tm1IPMHXb/rSd/pHjN1Gq2XO1rqM2p56P6Our9GlbXUTlnnzpxziu4/Cob8FRoSP7WWXFvJdfJxzdUSxc2ysc/4669/bPnKlQ7LffLH3zT7R+1+mG57ZPOU8u0vl9+JkR7xN5ylnLDpSZCpVCck+ceVPv2T+aclAm+b7WP8dVHdMD0YI1ZEf3cbc0cWD6M0tnOg48H+jpr2cMmrkmMdOXsffp70gZK5cb1z5EgfzAZGDpkKgY3pU7KlA5wgoRLmg6Y/uEF9VEVZA82HwR1q/hasdPnLJ2OOKkEAABdLdSAamlpyVlQ25QND1LFWZicZd48r+igpNMhla4q0jcriZnS/cqpx9Z4REFCGHQ4NW7vxhLquHzHqJd59fVwLIoMd+A4N02aFbVPQQKjIwfMitrPavmU/4Yzpa4n//H5ry9989nJkMq/XxWvrw6d82WuipshchUakv8ub0KTtXLFR5yVij6xYcJdOX9EXgsQpLz2E3dt1adulw+7q8uFsF8uHbYUK51WTR6TRw6dLy4PmX1Xn+fZfwoW4HziAfvxs3KDea50uz+S268yL9Skw6lb5VldDfaZWd/Hu8v0pKkic/atVkhVeow3PFS6neIxHpLv1g2pap8vZ5/Of1NmHny8QmVbuWL/KRld23UB1R7z816byZV+T86Y8Fy/IUj17Nhs8WPtj9Hy7/N0NyZ0gb0re++14dTl8vD39WyAdvmKPKz+v3ZkDxYrpKp6XR78mommxrb4tqOWf7PX/DvyzX/ofEi18V/svmwR+12zbvtXfPu4Xb58jXmhIXEZMdfU4ikCKgAAUB0VVB2mK5H0TYHzy7v6pb7EmHpO3SjYe4PprZ27YV/a6VYV6VBjIW2eNJzpzG24od6zNcANS7fRQ1tsOOWc+wWniKmEvsnywrgOHGd8U/FrXXfYg7oQ3F426mu02f23nA7g/Decs+Uplr6+fDeQnQob/ftV8/pSxzeuvj866iO3y8dNv6c/vlU6nOwPb512V1bH1S1pDZ+80wQ1J+W1l+sMSXv5GRN+rJOPf3LIWasojP1yAiAbtqyTO/7XeUl/sexzfvJbUgyaDsl3G6gOatWrj+hwyt2vRx5YPvH/h7/4o9IA7QeVB1H98tHSY7ynvCqtgWMsbssNusrPl7dP578p361QYdUz1PfanP55YoL68vAorX4+2pBK/5/V65WzLcudlEPqZ6oM3yzHloU0V8iXnyiGVCf3/kRqDfc7ufcFJ+hygp9/+Rv3SeuzE3L++zerK1l7R775z3ZoYa+Li21DBQAAUAsBVRTUL/77y27SPepGYb8vJNnToTuDRX2zkqoQaljqeVth1Is3LHts8KGOoTwg8dNhScduzNTXOugwv7rD+9SO2gBOh0C1qhVmfWFj26+vvMhOL50Kdn111pBccbW79nZZEOTNlHf1muqVTo7gw/x++ZIZIPSZf6pTZRTCfr28161OUlZNPlbj822Ue2wQdP6b8nwT/ZqadcNDdaqtPrld7qjVMP7lB+W7piKt9rYCHONbj8tRsy1d0bUs6LI++S35n+brXVteTplv2m6dwW++QlBvpXebFYW+Qdo6mX3iZvWdWckV8uWpYsXfMy+a1WqGb5bH7r3CPChzjXptu4mecy/I3nrb6jVLpzv2hzcAANB7CKgikFK/+Ne6XdEhib1XD9qfKAwzO8xKFWPqdZOnyM5eqqJSN1deZVGdY9T8N2btbpcRdJhfveF9WXudqC/QjmohkKVetyFcu68vf7DWyPXVSZdfZW4sSwKQ4kx5q66qUelkBBvmVxzed8OG5RVD5VrdLy8MkwnZWF45Vc4XBL36UtAW0i2q0YOrqBjUVWoY7x1jkG3VOcY/vHzEDJ1cJ3d8sfbX5xNffLjnZ0/UlaQ1f1So/6Ts9+OSKdobZOu2f0ZqXhXXXGYqn9T/G+drD/ObmKoWdLmG7v07b4jdoRcC9rUCAADoAwRUEajV4Nra7CVUba7isdSdSN1Z0NXrtuJn8ZT7by/whzeBZnr33Zi1u11G0GF+thKj2vA+rxfzpLP7dTXa/6pZXrDW4PXVSR+2DclLAhA7U16doXiWF37UGObnDe+bUNt0Vmpqbb+KQZZ85k75hFmtzhcEVapUaoe6lWkuL6hbJmA/L8+QfPxTZls/eaasF9U5ee1npjJt9Sb5eL0eWlcVh2D2qtF6E0Cq70dGZRWtXV2l4sm65q+l3il1rZM7P2tWq/obudP+npB9veaQQQAAgH5CQNVp6gY8SIAw5gsiOjHpTdBgw+sj0angLATFRsXBjlG/acE09q06JC0s6nPVHeanTrTJnyqHm+r68PViDiTue187ry9viFOj11cnfcQ2JPfNmOfNlLdWrqgXVjiK4UflYX7n5LmDdnhfkMBIaWm/bJAVrFpLK1aBLa9UaocglWk1eedC1LkIti0v9Fs2O2LxfAUNu7xAr0d16ajDLnW5xJtqDl7B8GU1q6esjTfbYPYdOdtPM/oBAADUEGpANTo66iyoIWhI4tNNk97ER8xKDyn2gXH/7Tb1qpm8CrAqw/t0QGWH0QW+6VTvs8VKA399edUwvhnz7Ex5dRuRF334k5vcQKnSML+3npPXTOVTveFjnlb2yxfeNK48vGmPoKFSVd5shuvk8rqzGRpe6FdhdsQGVa/s6g1rCagacLmsCSuguu6vAwVURe9InoAKAAAMCCqoOixwSOILEDqh2ypvBkm9YX52+F614X1NUdeXjZLb1l9GXR+NVnZFo1gNY2fM82bKCzgMzeELlMqH+Xn9jYIMH/OEs1+vPrJaHpoIsDxie1b1savWiB2oVTI7YhPVWPUxtT6WW7f6MrNWh6+nVe/L+yqZ1zb8RzoAADA4CKiAqKnf1qsO86s3vA+hsNUwdsY8O1NeY8PQqg3zK/Y3CjZ8rCic/UI0mFofAAAAaAQBVYcFbi7ezLCtFgStosn73scQkfBUG+ZXd3hfszpR3dSJKq2QeL2JnObZtsF4wAbpPhWH+XnD+wLMplcmjP264aHz8sihRpYfye2Bq7x6TLVKqWqVVS2K2xIqptaHcfL8u2atjt+8K24cHWL/q8jkfUPt+cUBAABUR0DVaUtONtA5vqCrlqDBWb6HZu+zisNs3H+7UbVhfoGG96nf9+3HBh5J5LsuOnG/0PXX1yfvlBucFd1/yTbMDtog3afCMD9veF/Q5uh+Ye1XP2qmn1SAvlW2Wq0eW81WS9yWUKlvAAIqOM78l4QXgQbgBV0Ryp82fxBJyGSgqXQBAMCgIqDqtEUnG6jLq5xRWqlU8lc81RQwOPP6SIRd0dNG3jCbBsLBTFIkFlPLlHmi3dTXeNkwv6DD+9THNlqp1KlKuM3qOnE0en113JBcbhuSv2yqbBpokF5UPszvqDx/wL09DDqbXqkm98sLysKtCOoqTVQ9eT28loV8G+XjnzGrb56tMAtjOVvNVkd8xITHS/Tsgyv3bqCA6ugLNlZqrUH7ufOdmJOzjvwp8weRUSqvAQBATaEGVEtLS86C2io1wi5nK2cqBkHqF7ygFTOBK1LUb49H6t1AqdcPmLKbbp0Rr5IxW30U5Bi1iI6zfJhfI8P7bBC0eCBYEHREvc/R5qDRm5Wvweur83wNyX9mKp4aaZDuUzLM7wfPyKvOsxPy8U86Kw1qdr+KH1faD6u6Xz5qmqU/+Hig90evGCoFO8ZiL7BK1WzerHyVZmEs5w3brCO+yQTPi3Ig0A8f9L+T8syLZrWqX8kz9veEsevVlV7Ga6Bef4a/bgiosr5S4F75wxYAAIgGFVQRmNtZO0TIZ4qVMzM7zIpf0IoZ9Ul22g0FML3HrFSRVa/b/GB32qz0AvUbsS3kqXeMWv5I8TgnN5mVDigf5tfI7H3+EG5PvQBUvT5tDjDUmQEr8B9TI9dXFLyG5OdbqXhSfMP8nj3gzoy3anJ748P7jGb36xMbJtyV89+U5192V6s7Kq/9xF1rtJF7lBo6xpf3yrMmVKp0Dr1gUX/dfnDUWavmlz/4phkqWE9cNpnSyMUDRwKFx+h/h2ZfqFlFde6J/y3uT47L5eH/62+ctRLX/LXY1oGnz9uuahX85gX5X/X+P2i74gx+KWb6AAAAdRBQdVhC36uou/CtGffxMuoOZuu0WU+JpKuUw3t9ldR7q/3+mdna4A3/nMhUtY2p58dNYJKYaW/VTTvsUPvsUMeQrHbuNXWcwwHOf1uoz2WH+S3tdHbVEeh3evWeeZPCzY2rr321O2H1fFK97lDvn233F1Id026bDga8vqLiNSR3VO9RVN+Q3L7FBCeOxput+zW9X5/cLneYYX6vPvKg/NJdreiXj06ZSq/W9rXjPvkt+Z+miurVRz4vz1WrfHrrcck84t7yy2dm5Z5K1WxXfVk22mF+P5mSJ6sFXi8/KN81YV4Q8U2Tbki7eCBYBSf62rrhy0VyL8j9T1QJln6jXttrqp7G/k6+XHF432USH3bXTu79iVSOU/8oj//zC2IHCkYmf8RUxqaYiRYAANRFQNVpk26QoIOlZf2N1E16TP3SaUOl+VmzUkF6t1lRxmPLQ6op9ZxTJaM+l80HaknNuJUuOtwoD3B0RVfMhhrqTft7qXrKiKt9nvGFerGkk9WUKDlOpdb5bxc7zG/RXgTqixf0d/oxtb/2az2trqNlYVAD11eY/PtV7/pKBblY28VrSK612Ijcv63Vm+TjYW2rof0aktu/NWs+9pB8d2J1hdDlqDypnreByw0PNTeDX9DG4u3wiQfsMZ6UZ/+pwjG+/KA89E+24mlC/ucD1SvQitvSgddqyfyg9Lj+8IPPy0NO0LVObviMGRJYj/rh44a0gzXMr5snpYjUxi86fxg4ufffZfW//so8abx4SFb/gw2V1snsv1SonnJcIV+estffSZnacKgspPqVPLjh3+WbObU6tk5d9c0LPOtgFdk9087/OYmZHQzvAwAAdRFQRUDfsDthyZy6MdeNuO3iC0dm1C+WNX+ZUy/mbFWQokMq/7ZsMUrgEGKtyH6zPSfA8W3LqyhS5hecopielFb7bquM9G/Mw75jXHachTrnv038Q+K0Rofgzar99odB/uMrCd86fHz+/ap2faXmRXZE2tvMNiRXmmqQ7lfcVutD5lrZr41yz6HS0MXpM+UttnJKh1PnK1cWVeVrLP6TKd82a1QytUWdY7SVUzqcOvStOkMtS7f19oFbS7Y1YxveP/Qjua2BIG/MNIkbhGF+3sQIZf+/Va3qHEAb/+Ur8rCugMoelNUbdhWXr9l6p8vl4e9PLO895ffZCTm23f400CGVbzsbDpohgjrkut5Za8zfyJ32P4iSfdwrj9fpeVUqa4aqM3sfAAAIhoAqIjosKeRKwwiH+uW+oG7mgwwt01VBFbehqSdzDYYQzvbmzYMyOjzQ+xVFaBMmHQ7q47D3UOV0MBjpcfqG+WnNDInQYVA3fh31fvlDVT+9X20fblhXsbF4sw3SPV6/I3WT+cVWh8y1ul86dDkvjzxUuY5i1eQxeUS93lg45frEA8e8YYTRqn2MOnx7pG44Zbnbmp6sXCHVeJCnqB88Tji+OF2/R1yP8/4AgxqukC8/sUvOf/9mWXaVjW2R8y9trzK0r9TQvdsrb0MbvlmOvVQn5KrBC9FakM/sdP9Yltrd2eHyAACgZ8UKillHG+khd/oXNd2/aaEHh8gBCE7PiOcMm/vMrDxSY0gZBkg+I8nhaVlU/wnk1H8C3K8PEj3kzq1qWrf9K/Kje69wn+5rWfV7z7j6vScl84XZnv/jFgAA6AwqqAAgTL4m2k3PBIj+E0/Lfl1aNABVVEB2SodT+o9y9J4CAADBEVABQFiCzBaHgRVP73eGv82NTy2b2ALoG/mM7DQl4/sZ2wcAABpAQAUALXBmdrONtAPOFodBFZf0/hlJyJyMJzN93zAdgygrU3ooqx7ax1BWAADQIAIqAAMnl8tJNpuVhYUF+T//5/+YZ4saef3//f+VtvHTTcf/7//vNnmrxsdjgMXTslAoSIGbd/SlMZnV1zd9pwAAQBNokg5goLz99tvywgsvqBso90ffjTfeKB/72Mecda3drwMAAAAAlgu1gmppaclZAAAAAAAAgKAY4gdgoKxatUpGRkbkf/yP/yFXXnmlfPSjHzWvuNr9OgAAAABguVCH+NnqqdHRUedfAAAAAAAAoB4qqAAAAAAAABApAioAAAAAAABEioAKAAAAAAAAkQq1BxUAAAAAAADQKCqoAAAAAAAAECkCKgAAAAAAAESKgKpb5DOSjMUk5i1JyeTNawAAAAAAAH2MgCpyeckkYxIbnpZF8wwAAAAAAMAgoUl61LJTEhufc9cTM5JbSEvcfQQAAAAAADAQQq2gWlpachYElz1swilJyTzhFAAAAAAAGEAM8YtUXk7bPC+1WcbMKgAAAAAAwCAhoIpUXk6ZxlOJEWqnAAAAAADAYCKgAgAAAAAAQKQIqAAAAAAAABApAioAAAAAAABEKtSAanR01FkAAAAAAACAoKigAgAAAAAAQKQIqAAAAAAAABApAioAAAAAAABEioAqStnDMmdWR9fGzRoAAAAAAMBgIaCKUPawjacSMkI+BQAAAAAABlSoAdXS0pKzoJ68ZJIxGbf5VGq3pAmoAAAAAADAgKKCqkPymaTEYjGzDMv0onkhMSO52THzAAAAAAAAYPAQUEUlNS+FQkEKC2mheAoAAAAAAAwyAqoOiacX3EDKWeYlNTfuVlNNZc07AAAAAAAABhMBVSTGZLaQk5mEWtVBFSEVAAAAAAAYYARUkYlLenfKXZ3bKZm8uwoAAAAAADBoQg2oRkdHnQUBxUdEF1GJLMopAioAAAAAADCgqKCKUnyt2Dhv6TQJFQAAAAAAGEwEVAAAAAAAAIgUARUAAAAAAAAiRUAFAAAAAACASBFQAQAAAAAAIFKhBlRLS0vOAgAAAAAAAARFBRUAAAAAAAAiRUAFAAAAAACASBFQRSouIwl3bfFU3l0BAAAAAAAYMARUkYrL2lGzOndYsmYVAAAAAABgkBBQRWxsc8qszcl4MiPUUQEAAAAAgEETKyhmHRHJTsVkfM488CRkJrcg6bh5CAAAAAAA0KeooOoCY7MFKeRmxLSjAgAAAAAAGChUUAEAAAAAACBSVFABAAAAAAAgUgRUAAAAAAAAiBQBFQAAAAAAACIVakC1tLTkLAAAAAAAAEBQVFABAAAAAAAgUgRUAAAAAAAAiBQBFQAAAAAAACJFQAUAAAAAAIBIEVABAAAAAAAgUrGCYtbRYXbGw9HRUedfAAAAAACAQUQFFQAAAAAAACJFQAUAAAAAAIBIEVABAAAAAAAgUgRUAAAAAAAAiBQBFXpKPiMSi7lL1jwHhCo7pa6vmMSSGcmbpxqTlSn98SXLFNcrAAAAANQQakClZ6WzM9OhPj17HzP49YcpE5olM+YJ9Kzs4Tmz1risuhBisXFZvoU5GVcXSDLTXOQFAAAAAP2OCioA8GSl2Xwqn0nKuPnYxExOCoWCt8yn3OcXp4cJqQAAAACgAgIq9JR4WtQNv7uMmeeAcOQlk6xU/RRAdkqGpxed1dR8QRbScWfdGpstSG4m4awvTm8VMioAAAAAKEVABWDg6eqnWGxYTMbUoLxkdppYKzUvs1WS03h6v7gZ1aJM72mgI1U+I0mvl1WScAsAAABAXyKgAjB4SkKfmFf91JT8ETlgPjy1uVZdX1zSu81Yv7nDNE0HAAAAAB8CKgBQ9NA8f7+ooPJHDogZ3Cc18yltbLN6lzYnh0moAAAAAMATakDFrHSNYdbDxuUz7mx5egl6f+99TFKtm+fsrHvlSyOZQXaq+HG2b9HidOn2ohuO9St5cMMuWV1hefBF85ZBFk/LgmlgbpdqQ/PqyZ/yyqcC9EWLy4jbikrmgiZUJfu6IGXtrQAAAACgL1BBhYGjw6lqjbDHdbA0ZR70pD/K4/fqIOqgHDLPlDv0Nf36ITlqHqMVxVn/EiNBkqO4rLUZ/tJpLzAFAAAAgEFHQIWBsidZDKdmcsUZAfViJllz3pDMmPUaxmaLH2tHhSVmSrfZ2WoXXTX17/JNdVzauu1fkfMv7SpZjm2/3H1RTsrUvS/IOfOoHdzG48U+Tw0vU701Bm50bbAvdtyWUC2eIqACAAAAAIOACoNjUWROj8ZKiOQqhEfphWJIpYfq9VqLoHNP/G9TNXW5PPz9XfKje69wHvkN3bu9GFLlXpC9DPdrTf60NDpIN14soZLTJFQAAAAA4CCgwsCZX9ADrSpL7zYrSm81sf6V7N37jrs69nfy5Wvc1UqG7v07mTDrp8//0ayFL55eEH+Pp4aXZptCdVL+lGmQnpBAI/wAAAAAABURUGGg6CF4NWOPuFNg5Vg6bVZ6wW/+S+zuTtz8N2atmsskPuyunTz/rrsCAAAAAECEQg2omJWuMcx62Hmja81KNXH1HrPaU665WX5k+kx967PmOQAAAAAAegQVVBgoDMNSXvyJ10gdAAAAAIBuQECFgRJworX+9OIhWb1hl6z+2knzBAAAAAAA3YGACug3v3lBPq+DqPKlw8FUPpOUWCzW/DLVA13q4yOmZ9minGJGPgAAAABoGgEV0C9sMPUPL0jFKGpsi9Oj6vxLX5GHTZN0tCi+tuGeZfnTtk/f6GBX9AEAAACADwEV0A90OOULptZt/4oJo3zLv9Sb3S9c8fSCFAqF5pfZmvMtdp2l08FKqPKnFt2VxIjuyQ8AAAAAUEINqJiVrjHMeohw/FEe/2cbTl0uD39/l/zo3iucR2i3MdmcctcWA43xy0uxgGotARUAAAAAGFRQAT3vXcmbWfnWbf+ifPkad7264vvRuviI24VK5g5L/a5ZebEFVKnNASvE8hlJer25kpKh1xUAAACAPkRABfS63/yXnDara1cHqJzyvR+ti2+aNI3S5+RwvYQqe1i9S0tJ0HwKAAAAAAYBARXQ6675a1lrVk+f/6NZq+7o/1OliTqaE98kk7aIamdGqhc45SWz042nJLVZyKcAAAAAoIiACuh5l0nczMp3cu9P5Ki7WtHRf90lU/XHoaEhcUnvn3GrqBanZU+V85vPbJVpZ3hfQmZ2NBBPxdOyoJvG58znAAAAAIA+REAFhGjxlFnpqCvky1PrzPpJmdpwaHlIpWf522DCqeGb5WHKd8IVT8v+GTPQbzwmybJGUdmpmAy76ZQkZvZLmu7oAAAAAFAi1ICKWekaw6yH/cPO5KYbDMVixaVjDa0/OyHHtl9uHuiQapes9i//YIb1Dd8sx564WW5fbd6bPahe3yuP/8Z9iObF0wsyb2f0mx42Tc3dZdyM7EvM5GShyXQqf+SALMqorCXcAgAAANCHqKACQjA2K2IKaCIzdO92Of/SFpkwj8tN/NsuOf/EzTKk1ofu/aI8bIYFIjxjswUpFObF5pVFKZkvFJoPpzJJtwKL3lUAAAAA+lSsoJj1ltnqKaqCACAk+Ywkh6dlMTUvhVniKQAAAAD9iYAKAAAAAAAAkWKIHwAAAAAAACJFQAUAAAAAAIBIhTrED41hSCQAAAAAAAAVVAAAAAAAAIgYARUAAAAAAAAiRUAFAAAAAACASBFQAQAAAAAAIFIEVAAAAAAAAIhUqLP4MSsdAAAAAAAAGkUFFQAAAAAAACJFQAUAAAAAAIBIEVABAAAAAAAgUgRUAAAAAAAAiBQBFQAAvSg7JbFYTGLJjOTNU0Bonn1Avnf55fK92/fKRfNU73pWXtTHcvnt8upZ8xSA7pPPSFL/v+YtScnwHxz6Qdde21mZ6rLvtVADKj17HzP4BadnPbQzHwIAEJz6hWJ8TiQxI7mFtMTNs005u1eO6Jv3B541TwDPyotfOqB+sdsl489tlxXm2d51h3z2ne/JR2VJTn7qATlvngXQLfKSSaqb5OFpWTTPAP1tUaaH1TU/lTWPozIms4V5STn7M6V+u4weFVQAAPQU/Yv8uMyptdTuFsOpUJjqlLKA6/wDumKFMKD3nJVXb/+S/FatffShfginrDvks9+bVP8ekJ8SxgLdJbtHpm0ypf/wUihIwVkWJB39f3JA6+JpWfCu65zMJMzzc+PSfEYV1u9fYzI7n1L/zsl45IEZARUAAL3F/iKfmpfZMfcpIDTPPiYndXH35Pfks3e4T/WNO+6XdbrQ/8AjDPUDukj2sP6Ti5aS+VargoGuF5f0gq5acs0d7oK6pbEdbmg2tzPyoX4EVOgZx5/+oax7rGx5+k3zKtrNO/9PnpI3zHO95g8/+Lw8NLFaLQ/KL81zRUflSec1vXxennvLPO0pvp75wTnzXGfU3u/e0olj6afztVxeMjv1L/IJmdnRWjp1ce/tbo+hT+2S9/QTB77kPlbLi11QYOLtH1VYHXRWXn3kgPp3VNbdH2I61XI/K9tDyr80c12skRse0lVUS3LyH/uht1bn8P2I9snLadvxJLVZ+LtLZ517Yq+s3rBLLYfUb7ronDHZbBOqpdNd0Es0LundeocWZXprtL1NCajQ/XInnGDkq5W+U/I/d17b8pJzewU0762z8kezKnJS3vmdWe0r0YVsCImtnkpMyqZm/8Rsek7N76reA/G3X+JGtLJiUHJkbx+W4NjqqdG/l2vWuE+F4fy8Dr2a4w5VcIccljogP23m62CrqJZ2yWuM9ENb9PnPidDl5ZQZ3pcYoXYK3exX8qAT5u2Szz9RvGtoVnzEjPNbPNUFAZViq6gWp2VPhEVdBFToam+89Lyse+b37oMPDcuR+78gJ+2ydViud1+R108cJ6RCXR++aq1ZOy1/LK+Q+l1e3jarFfkCrCuuGjJrQCfZ6qkWek/pcMpWTMmkfPqdd+RLP9sllzoPvydf0o+dPj2aDgAIqQaHrZ4Ku/fUs/LbJvMpXbXzU/Oxl+76mXt9muXT5jJ9b9enGgwB1sg1f+9O6PPbeRIqAABccdk06YZmUQ47DDWgYla6xjDrYR3vnpKvnXjfWb3+plvk5D0jcq3zyLhsRA7ef4ukP+Q+1CHV13PuOlDRR+KyyqyW+8Nbp82a649vVaswWieXf8SsdsiHv/gjeeTQebV8Sz5hnkN1fXu+8kfkgPNX5pRsbmoMxFl59R9NOKVnZ3vnUVntPF/mjkdLQqrXIqoAWLH9ORNGVNlPhOvsj+VN51e4SfloaKP7ig3XG/bsA16V30e/945s2l5a0rX60XdkfJf7O9R7u/6xoZ5SKz73924o24W9qNyKMbU0PRyyPfh+BFqTndJT+aslGe3wqXJD926X8y/tUsuEbDTPYXDFN02KE1FF2IuKCip0qffkOz/Oyet6NX6jHNzg/CpZwaVy3z03yt3m0VMLvdsfCZ20fAjfO2+ddP5dtXqd8+/b5QGVV2G1Vq64ylkBOiq7x0y/3WyPDjt8S6lbIWOHQSnv/eeP6dUzAM4/ZsLLyfFQAgi3Z9GnvGuuMcVqrlrN2lds/w9znS7JyccaqIZa8zm52nzcmz9mCBYGhBne7fYSu52JAgAsF98kbhHVohw40mJClc9IUoeyzpIMHHgRUKE75X4tmT/plUsknbzaeaq6q2Xqpkvc1T+9LcffdVeBZa5aI1eY1VLn5I9Ov/118vFPmWGAb56VP7hrjvIKK6Czik1km+3RcfHMKbMWpEJmjXxwxKwu/doMCUT/Oit/NpfHpR9rsvlUyc1v7R5ndXnVXCIfHa91sdqm58qB+QaGoxaH+RHAAgBgFYf5LR44Ekm1HwEVutLxs7bv1Cq55TJ3tZZrr1tl+lG9L0+f4VYK1QzJ5aY0oOoQvquqDwN0rI7L5WYV6BhveF9CJpvsjv7er80d/+jH3OFNdeghVAzpGRBeIDQqV38uvO7oemiev19UUBd//J9en7S6Yeod4/JRZ+WA/LaBIqoV15kElgAWAABPfK0poY+oeTsBFbrQm3LUfDdcv+YjpX2nqrnsI3KX7UV18S/uSjVmVsDyJUj/Kqdpu37/k3Yo4Zvy9bLtuMsJOe68HtzxpyttRy3e52pAC8fYVlX2q3MN7ofkClOQVzqE75y84/zpfa1c8UlTZXU+L+/ofw07BFCuXiMfdtfKVJgh763HJWOea2XmvD/84PNmGw/KL81zjfjlo3YfpuRV89zbB241z+nl8/JcedP4Wl5+0PexxaVbZgZs5nx5H/Pg46Zyrvj1LF2a+BqEcb7yp9zhfTIqa1ud5KhHbsibmdbe+xivf09xNq3SpbHm715fIN9scro5d3F7UQ6XqXaMl8uLQQObs/aaGJEPNptPrdkum5xAs7hUG5pXjxemBhpuuEY+YH6Xbqjp+Rob1DYWbA2qaL8fK8yKV1ax5y0PBPhiPvuAeX+A71vv89R/b3f/nFBKvkefkxtCnKmzOxRnWCtfHnzRvAXLnHtirzlPh9RvPsF4H3PvC+o3aK3aua+3zQqz4v3mBfl8yTbM8q+/cl+v5cVD5v175fHfmOeq8T5P/fce/Ve7HwflkHnu5N5/N88F/Hy9JD7i9qGSOWmpV3o8LQuFghScZUHSAX9/JaBC98m9LU85K5fIXdcF+Tu/pntRmdn97qo2JNCESXZWwDJPPaPDkkaCJb29n5t9Lfd7+ar+XE8748ZqM6HNV6tF1H/Kyaag2wr9GMNSe790g/t1jz0v34lqeKadoc+pjrJVVhVm+lNWBZ3BT4cS//TN2jMD9hwT2jxi/3su5YZeDYZdXUkfZzHMK3VIvqvPwaNBfo0L73xlD7uz90lipLnZ+5RLP2bu4uWU/DnUm6Q75LP6hufR0jTCrcCKsvpK39RWa9CtZyhUN4xBbma7lm5AXnozXO63X9Kv1w8Uzs+bfk8Bq+vaqzjrX7Dhhr7hqKfOBB+ut+Y671jfOxNlajAoQvx+1AGTNxtpmQNfij4IQof9UR6/tzQ8KHfoa/r14AEMGqFDpmrn/qRM6QAnSLik6YDpH15QH1VB9mD/BUEta9PvX/G1Yn9jXDrd+RqqUAMqZqVrDLMeVvbGBXfmPh1QXRtgeF8wpWHS3XeaMMsud15pXtHBUpAA579l9km7vUskvdW/veLMgpL/ee3qIB1OeaHNlfJt/z5V2FbtkCrsYwxL6X45MzJW3K/3JbO//ft1+VVuE/SSHlO2AXpJdZS/kbrtUSVyRaCA6jl50oYSn5k1M8qdl/QXA4ZbIfvEA+7nf+TQrNxgnls1eczbr0cO/Uhur9v4vTS0Kf14tTw0YV45Kc/+U3OVXt0hL88/aI9zndzxv3zHeOiY3GH/t//JVJ0KqDDPV7H/lIyubTqgWrH9ITMUqsGG0j3p1/KaN3vcqKz7mf5lzS4/8xrA65tZryKjhuJwx++Zcyhy6a6f+bbZ6WoEfbNfbEBeui/uYme4c27+a84IV+w/JSPX1W6e32GXXhfspHrha0PVgcXKq/d+TZrRXmF+P/5YXvxSsYG+/5ovzj6qfsZ9qvMhVff9nOgR2cNi/gSj/otr9H84HY78u3zTjBBYt/0rZka64nJsu23McFKmvIofhONd2XuvDacul4e/7z/3X5GHh50XnHDJq5Cq6nV58Gsmmhrb4tuOWv7N/O4u78g3/6HzIdXGf7H7skXsb2+l19p2+fI15oUGeEPpWq1UCl1cRtwSKlk81eMBFRCG8xdNQPWhvwrtL+/Hny4Nk75hf2BawzfJyfvtbIC/l6/WG1b3p9/LU7qJ+4eG5cj9t8l9JUGaruYqBkuvn/h1ldDlTfm6DafiN6rPf5Pc4j7ycSvDjtgm8PmfVx2mF/oxhuI9+U5ZkLdsRsYO79eHrzJN0H1sA3S3Oqo4DLDYp8oOAQzm7QPfdIKJGx46L4880A+T9p6T58pCm2Vh2ye/JcUA7JB81xsq12POH5JX9dd69cMyvSy4G5Lbv1UMqd4+sLdKsNSt5+sO+bgNLQIGMz1r6YD8Voc3o7tkfNlN4Rq54bniTfF7ux5raLhfN7i495GSm/1N25ff9a7Y/lwxpFraJa/1SiZ59kzDQ1C9flINVQf6Kq/QXiF+P763a5dz7TvBT1nVgNzxqHzpZ7tMZdySnPzHWsEsuoVXISwJaXQOkHNP/O+ScORH9y6fCmfo3u3FkCr3guxluF94ciflkL4vGb5Zji0Laa6QLz9RDKlO7v1JzQq2k3tfcL6WTvDzL3/jPml9dkLOf/9m9RuV9o5885/7JGj0htKJzHVVQhUXLzuLAAEV+l/uhDd87u47y8Mkv6vlG7aa5085ma3br+lK+fY9I1V6ZF0q9yWLFUtHK23r3ffFPn33mtozFV67IeEFXk+drVBF1bZjbJE3G6OunEp0z35pZT2mNFsd5VVZLbNOLv+IWa1DV8zc80nzoNe9vFeeNXcMqyYfq1FttVHusZVB578pz7/srvaeCfmf3/pylV5jQ3L7Fvv3s0PyWqVjDP185eWU24Cq6Rn8LB1a2IbVTm+UmpU1vW5SPv3c9ioVQb7Z33quB9Gz8pqdIW/yoZoVGcWqOfX1rjqM7az8xVZiNTuDX5i8flij8oFO7U4jQwPRpBC/H0d3yacrhLKONdvl070YzA6kvGSSMRm3+VRqd+AeNa5fyd695je5sb+rWcEydO/feZUvp8/Xq+RBY9bJ7BM3q9+OKrlCvjxlf6c+Kc/UCweHb5bHKoSMjmvUa/0WNMbTsjtl1ufGJZbMRNKUvKal0x3fJwIq9L3ijIDDMlVeVVRu+GO1gyCf62/6WIWKJ5+Vf2VmFlQ/Ry9U+Hvwhf+W152VS2TNSmelhkvlWvueC+8vqzBq1zG2ytsvuVK2l1dOlevUfn1k+Sx9bgP0Yvhkq6y8Ruq2R5Vuol53KJw2IRsjGs7XDr98yXYWCHBcn9zuVRi9+lJvdntYNbldPmHWK/JdQ5Vmg+z28+UMQ7FDYdQN3Lzt5dJnVVWX7rq/dhWu1yS7VnjThXwVRh8dr9eFnGFs3ajYcHz58lMzes353qzwul568fs0zO/Hjz5ULehy+YPZhhrno+3ymaTEYjGzDMu0+eOLJGYkNztmHgT0m/8St/5d/W97c1nFzTKXSdxW8pxvX8PT0uMrXbwgbnFahiu8rpdkpuviibrWbf+M1BwrcM1lpvKpfjg4MVUt6HL5g8ZDLwTsa9XlxmZzMmPLqMqujV68HsJAQIU+1+iMgJfKLWvscLq3a/ZDGl5ZJ3C57BKpmRV5Adb78vSZ+gMabrnL9GxaVrXVvmNszXvyxgWzGl9VO8xz1A7hQnOVmaXPa4Ju+0v5wicbQPj7VGlOE/UAgr6vJxT7b8ln7qwd3DiKQySXnb8eUbfPmHcNVdIj50sPhSnp2eKyM04Fnv2ti9XtX+Rrkt1TfDNxNTtLHtBp4X0/TspH6173d8hHvYKs+Z4bwjtQUvPuDF8L6cb7K15zs/zI9AD61mfNc+i4taur/0bkuOav1W/YQayTO+t+Hf9G7rQ5Zvb1Pml6H5f0gjvT3bytphpwBFTob75hdHUDJePalSa8kffljap/ZAlS9VTHZR+Ru7w+VYvNz2DXtmNs1V/krBneV28Io3XLGjvM77/b+AulnaXPNkE3/aX8oZINIOwwQNtEPaiSZuu9rth/64YNwfppfWKDHba2fBhl9ws+jLOyHjtf/p4tuuGwCayc2d96evhfB4eHdbNnH/MaqaN76KG2xcbZpYsdguv2a6r8nko9x7pbiN+PAWeaXD1uT2TYs5aiFfH0gplyXi/zktLDmnS1yFSb+++8+BOvkXo7lR5f6eKFD7parMLrellobIxjF7hc4k00B69o+LKa1VPWxpuLDdPP9smMftkpt2JqfKn02ui96yEcoQZUzErXGGY97ICGhtEZvsqms7YCaJkwZhi8VO773LD3uTL7fyjrHvth7Vn/KmnbMbbIF5w1rp3BWRlv+F4ltsrKCBg8uc3W+0TN81NP2fnrCUGHcVbR6+fLqawyM1A5Q4we6NHqgxH54CAHVHoafj0czM52BkQqxO/HhmeaXJK/EFB1qTGZLZjhTTqoakdI9eIhWb1hl6y2s8MhZJfLmrACquv+OlBAVfSO5PsgoNLhlDP8UweXzVQS9iEqqNC92lpFU4NvaF7F3lFhumxEDt5fnPFPe/3EcSeo8pan29CPqZPHqDz1jO94ai12VsO2Kpulz1ZHlYRPtsrKVTrL3+B69ZHV8tBEgOUR24NpsIV3vjo93e8d8llvmvQD8tMH6OHStc7ulSO+3kTe0lAw1WV9qrxeRO0OFs7Kn0+Z1YZDD0QlcCN/X08rdLO4pG2X6Lmd0nTLnd+8IJ/XQVT5QjDVM9atDviXf19Pq56Xz8hO05sstbubwqm8nLY1R6NrO75fBFToOqtX2OFng+JSue8e019qq62o8sn/3AQ4zzc/DBAlKs3SVxo+2RDLHQboNlEP0JsIaIsopvu9Qz5uZ8I68Ii8SgVCd7HBlG1wX04P13SGgxWn769ujXxwxKx2gyZ6g1084yVNg105B/Qib6r9RWn4bzA2mPqHF9RvbBWMbXF6VJ1/6SvycL1JhIBOy59SV72WkBYnae4rBFToOsX+SL+Xow2METv+tKnCefJUaw22m+jpFBqnosqEVXq50/RkcrjDABseAlhJh4/x7jt9xxRouU3ua3kIZX16lj5bHVUePtkQq9IsbYPqhofOyyOHGll+JLe3Mlyux4V5vuK2hKqD0/2u+Nzfd6iSBQ3R4ZQvmLp018+83kTe8mhj3dMv/ZhJsU6d6aq+Y0FnV3zv1+ZPvQH7E7nOyl/MhwWuykHkAlf5nf21+R6hH13Xi69VXyXX0ukG/ofT4ZQvmFq3/SsmjPIt/1Jvdj90i8CzK/7mXfM1D7H/VUTyxTIlWdtVAVVeTpkZNhMRJGcEVOg+w6vkbrMafPiZb8a4lZcUZ7JrptdSMz2d2mX4JhPY3Oidk9dP/Lp05r1eP8YIfPiq4nwibnXU8sbY9j1vv/WcmZWt1ebZQPPitoRq8VRzAZVvKFjgGfp8lSxBgwK021l59R9tODUq634WTsPsFdeZEqole1MfpeIMbMHCiCaH6p09453Hqz9HgtEzOh2iekEXussf5fF/tuHU5fLw93fJj+6tM5scutuZ/5KO/knYC7qwTP60uNFZQiY3EVABytWy0XwvvH72dwGroYozxl2/4gPuitZEr6U3Lrxv1sJohB6Wq+Ub3vC/ssqybj1G3yyFnehz1ZCPxGWV/vfNZ+Q1J3yq0BjbvsfTYvPsXnXV7fJx04+LarIA2nW+vCEQS9LIH5g9hE19wlf1s+s/5Ia6uUrx/TV5/Xq6Y8Yzr6LrwHyAXpTFY/zoeAOVY17wwLDAnhIwRD0/b/uwtfb1LQ4f7QMlPetu7/Gh2+9K3vwuvG77F+XLdStpiu9Hl8q9GyigOvqCjZVaa9B+7nzvzTPdMd7QwxYru/IZSepZOp0lGbjHXKgBFbPSNYZZD6u7ZY0Z2vannMwG+A/ljZdy8pSzdoncdZ2/wL/RsOs9OX7WhDfxVXKLu9YWDQ9JrBpEdesxXirXmuqsoEFjaMM0gzp/SF7Vdz+r4+q/uTJXrRHnb3FvHpHXqr1nIBSbyr/9s+fkD+5qTb981DT/fvDxQO/vL206X/FNMukkVIty4EhTCVXjjbC9ChP13Xwdd/BdodGvie/9Na35nFztXB9L8uaPo79rLQ4vPSC/rVfx9+y8/NZZmZSPNpBPeQHG5Lj45sRA1wtwTciz8lubT1X6+jbQiN8bPoru8pv/ErdBg8ja1QEqp3zvR7c6Kc+8aFar+pU8Yyd7HLteNppVj9dAvf4MfwRU1WUP287tm2XMXesoKqjQnYY/5s1s99RCvbDiTZk9YQOX4WW9ixoKu3K/loypxLp7jbnLbBOvGXzQ2Qpr9I3q1mNsLGh8U46a++7r13ykOEyzHWz4ZJXM4Ffm/El3lr8B9okNE+7K+W/K8y+7q9Udldd+4q6t+tTt1c9rH2vP+YrLJjehksUDR5oY5rdGrvn7RqpSRC7++D9NuEEPl67RYCXc+ceqNFFfpnh9vPefP46+D5UXmIn89pG9NfbnrLz6SDNBU3FYYENVV+gKta8J9bNr7yMmtByVdfdX+PoG/T46u1dea2RCTHTONX8ttlnD6fN/NGvVHf1/qjRRR1c5NPtCzSqqc0/8b3HnPb5cHv6/KvQXC3pd/OYF+V826EKZ4gx+qc1RxFMEVOhal8p9nzND2v6Uk01PO+OwKnhPvvPkz73qqXSyQuAyfJN821QYPfVMjZnw3j0lW575vbsev1G+0ebZPq69bpU3ZO+rdSuG1HH+OGf6Rl0pG8v3rUuPsSRofOZEae+sMsefLn4dS6vg2mFILvfdyZTO4GeVvqdmiNXvPrld7jDn4tVHHpRfuqsV/fLRKXnVWVsnH//kgM562KbzFd806Q7zWzwgzRRR+atSfvpAnRIEdWP2013mN5TJhwIMJUNn+Crhdj1WM2g8/8Dl8tMGbq6962PpP+U3kRdRrZEb/mOX2Z9d8lqVy/Xi3n+Uk85lWiWIqObsj+VN5+Maq7rqhNWPmkb3z20P3k9rgFyqR2qoa+Kne6tcpIF+dgX5PvL3e+sTa7bLJm8yhed6/Of6Zfpv0o6Te38iR93Vio7+6y6Z6oIwYmy2IIWCWhbSHZ+2vxesG75cJPeC3P9ElWDpN+q1vabqaezvqgzrDHJd+PuXYZn8ETngjO9LScv5VDwtC/qaz82YNhXBEFChe102Iv92k6kyyv9c1j1WHnC8KV9/7HixGujO6jO/3XKXbTLuzoT39fJqntwJWbe/GAB9+672VhY5/MenQ7jHqgRLet9KjvOmisPyuvIYddB4j92v38tXH6uwX87X8YfyVXPDXevruEyTY5v9w7CqK31P5RCrd+kZDIMbktu/NSs3OOuH5LsTq+XJZZVBR+VJ9fx3TTXQDQ8N8gx+bTpf6j/63Sm90uQwP3Vz8uld5q7swJfke9VCqmcfkO95s8RNyqcbnBFuUAQeKhmqNepaMR3EddB4+QPLb65NnxknnBrdJevs2+tR18fHnfd2xzA///X62y9dLkfKAgkdwM2bICJYP64iW1l26a77Gd7Xa/7+P+TT6jp9b9enlv8MC/yzq9730bPy4uWfcsPPyUn5qPtkU6L5OTEIrpAvT7mDufTQsKkNh5aHEXqWvw0mnBq+WR6OphgEQW38osyqr9HJvf8uq//1V+ZJ48VDstqbsXGdzFadnbHedfEreXDDv8s39b3I2Dox9e5NCTzrYI/J7pl2+k8lZnZEMrxPI6BCV7t2w21y8k4zTMwEHE6PImexFTc61PhCnWqgq+UbvpnwnnrGvx212KoiHdzcXzkAagd9fEdsSGWCpZL9Ktm3esfZncdYd78a+jq2xxVVwqfLr7L/yVV/T2/ZKB//jFn9yZTb98hZPi/PvWWer2qj3HPIhi66Msh+rF1sJZAOW87LPZ80D6pyg5vSbdRaalcidZ+wz5drbLOTUDU5zE9kxfbnZNwfUulmufaGzj7+kim7Gd0l4+88yg18ieIMc9756nTD4TseLX4NnZtruw9msV9P/fV7brtc4zUc1/tbez9Xj7sH1xXD/BR9veowQnMCCd9x2uqwS3f9rMGZDG1/Imbv61WrH/2ZrNOXdcn3oFrszy5dUfezOj+7an4ffcnra/bpR8edtcZ0wc+JQfDZCTm23XYH1WHELlntX2ygMXyzHHviZrl9tXlv9qB6fa88XqdHETpv4798RR7W9wHO18j3tfxasTH6w9+fWN57yq/mdXHQDBHUIZc7jqUxfyN32tSmZB/75XrKitt+KtzZ+/JHDsii+rkctOE6ARW63/BNcvL+L3hD2ErEb3ReCxZq6KDkC77Aq5QOR052NLhxOSGc2q9iULWcu29BjrM7j7Hefl1/0y0NfB3DUQyf1snlHzGrZT58lR3J3j8+8cAxb/hZ43Tocl4eeajy35xWTR6TR9TrQcOW/teG8zU2K/M6o1qclj1NDlnQN/1fesfc4FWkb+4YYlSNd3McIfdr+L2qlR0f/V7x67di+38E31910+4EQjWG1XWaO+St0rFOyqffeafBcMrXn4ihqz1sjdzwnLoufmaGgfpNfi/w8DXn+6jSNrQWA/pu+DnRO+IyYsb/LJ5q7E8vQ/dul/MvbalaCTPxb7vk/BM3i/4T49C9X3TDD3SxK+TLT6iv2fdvVr+dlxnbor7W2wPM2Giui0rb0HRg+VKdkKsGL0QLQf6UO1eeJEa6YthnPrNTnHwqtVvSIe1QPpOU4Wl1nA00XI8V9GDYkNgZ6ZjJDwCANtFDW4enZTExI7kwelnoIWG66kbf2DGcD/Z6MBVY/RVS6qFbujpGh1tUB/YO+3VrpmIOvSA7FZNx985Y5guzkQ0tQqfpIXduVdO67V+RH90bYEbGvpGVqdi4CYTmpaDHN0bK7k+I34P299UGj48KKgAAekk8LftnEi1VUQFV2d5PXVRFFZbzD9iQg95TQDexw9dF3R6PJzNNDWEHekdeMkkTTilRzZbnl51y9yfU3lO2SXqD4RsBFQAAPSae3i86o5obnxIyKoTNDgv87ZcqNGHvVWf3ymumcfynqcABuosdvq4tTstwUxPgAF2sZGKnYdGj3hypeac5fKTUvu100ynZH9bYvhYQUAEA0HPikt6vp+0N4a/NdupxhvfBs0Zu+A/dm+eA/PT2vV3RML01z8qLTvP4Sfk0vdWArjQ22/h09EDvSshMrvHqovBlZUoPw9ND+8JoGxECelABAAAA6FL0oAL60yD3oEI1BFQAAAAAAACIVKgBFRpDoAcAAAAAAEAPKgAAAAAAAESMgAoAAAAAAACRIqACAAAAAABApOhBBQAAAAAAgEhRQQUAAAAAAIBIhRpQ6Vnp7Mx0AAAAAAAAQBBUUAEAAAAAACBSBFQAAAAAAACIFAFVJ+UzkozFJOYtScnkzWsAAAAAAAADioAqUosyPRyT2FTWPAYAAAAAABg8BFSdFE/LQqEgBWfJyUzCPD83LmRUAAAAAABgUMUKOi1BRLIyFRuXOb2ampfC7JjzLAAAAAAAwCChgipSY7I5ZVaXTgvtqAAAAAAAwCAioIpYfMSM81s8RUAFAAAAAAAGEgEVAAAAAAAAIkVABQAAAAAAgEgRUAEAAAAAACBSoQZUS0tLzgIAAAAAAAAERQUVAAAAAAAAIkVABQAAAAAAgEgRUAEAAAAAACBSBFQRi68dNWtzcjhrVgEAAAAAAAYIAVXU4iOSMKtzJFQAAAAAAGAAxQqKWUdEslMxGZ8zDxIzkltIS9w8BAAAAAAA6HdUUHWBsdmczNgyqsVpGY7FJGaWZCZvXgAAAAAAAOhPBFRdIS7phYLoYrb5lHkKAAAAAABgQBBQdQk9zE9XTI0vzUiu4IZVellIM9gPAAAAAAD0NwKqLuD1oKL/FAAAAAAAGEAEVFHLZ2SnaZCe2k04BQAAAAAABk+oAdXS0pKzoAH5U7LorCRkhHQKAAAAAAAMICqoIpY/bQO9UVlLQAUAAAAAAAYQARUAAAAAAAAiRUAFAAAAAACASBFQAQAAAAAAIFIEVAAAAAAAAIhUqAHV6OioswAAAAAAAABBUUEFAAAAAACASBFQAQAAAAAAIFIEVBHLn1p0VxIjEnfXAAAAAAAABgoBVaSycnjOrI6uJaACAAAAAAADiYAqMnnJJMfF5lOpzWNmDQAAAAAAYLDECopZb9nS0pLzLzP5VZHPSHJ4WsygvqLUvBRmCagAAAAAAMBgooIqUgmZyRUIpwAAAAAAwECjggoAAAAAAACRooIKAAAAAAAAkSKgAgAAAAAAQKQIqAAAAAAAABCpUHtQAQAAAAAAAI2iggoAAAAAAACRIqACAAAAAABApAioAAAAAAAAECkCKgAAAAAAAESKgAoAAAAAAACRIqACAAAAAABApFoLqPIZScZiEvOWpGTy5jUAAAAAAAAggJArqBZlejgmsamseQwAAAAAAADUFisoZr1Feckkh2V60X2Umi/I7Ji7DgAAAAAAAFQTYgVVXNIL85Iyj+YOU0UFAAAAAACA+kIe4jcmm21CtXRaaEcFAAAAAACAekKfxS8+knBXFk8RUAEAAAAAAKCu0AMqAAAAAAAAoBEEVAAAAAAAAIgUARUAAAAAAAAiRUAFAAAAAACASBFQAQAAAAAAIFIEVAAAAAAAAIgUARUAAAAAAAAiFXpAFV87atbm5HDWrAIAAAAAAABVhF9BFR+RhFmdI6ECAAAAAABAHW0IqNKyO2XW58YllsxI3jwEAAAAAAAAyrWlB9XYbE5mbBnV4rQMx2ISM0syQ1wFAAAAAACAojY1SY9LeqEghUJB5m01FQAAAAAAAFBBmwIqkeyUWzE1vjQjuYIbVullIR037wAAAAAAAADaFFDpcGp8Tq0kZiS3kBYiKQAAAAAAAFQTfkCVz8hOHU4pqd2EUwAAAAAAAKitDQHVKVl0VhIyQjoFAAAAAACAOkIPqPKnl8zaqKwloAIAAAAAAEAdbWuSDgAAAAAAAARBQAUAAAAAAIBIEVABAAAAAAAgUgRUAAAAAAAAiBQBFQAAAAAAACJFQAUAAAAAAIBIEVABAAAAAAAgUqEHVPlTi+5KYkTi7hoAAAAAAABQVcgBVVYOz5nV0bUEVAAAAAAAAKgrxIAqL5nkuNh8KrV5zKwBAAAAAAAA1cUKillvXD4jyeFpMYP6ilLzUpgloAIAAAAAAEB9IQ/xS8hMrkA4BQAAAAAAgMBaq6ACAAAAAAAAWhT6LH4AAAAAAABAIwioAAAAAAAAECkCKgAAAAAAAESKgAoAAAAAAACRIqACAAAAAABApAioAAAAAAAAEKloA6ozR2Xfvn1y9Ix5jIDOyFF13g4uXjCPAQAAAAAAelesoJj1llxYPCiHXrloHhWtWD8hWxIrzaMyOqA6dlHWT2yRam8ZeBcW5eChV0SdJN951AHVMblY69wCAAAAAAD0iNACqqb0SUBVHs7VDOUaZQKqFbduk43XmecIqAAAAAAAQB/pkYDqgiwePCQVCrQaFmp45O3XkNy6baO4+ZEbHp0bulW2FRMlz5mj++TYOfOgiiF/GEVABQAAAAAA+lzzAZUJThrLjPxBjhJaBZUJimS9TGxJSKciG7dyakXpMWkVQ6UAKn0cARUAAAAAAOhzzTdJX5mQLdu2ybayZWL9CvXiClk/sfy1beVBTmguyJ91UnbxDTnXsb7hZ+QVXdI1tHr5Malz87dDIud+saj2rAEX/iwX1bn7IJkTAAAAAAAYIKHP4nfBTYrkzx2cYO7C4i/EHTV3Ud7oVEJ15rzzOYdWV47crls91HBg5p47AioAAAAAADBYQg6ozsh501/p3Pkz7kq7XViU53Ul04r1sl5nQq8ckqMd+NR1w6SVH1SvNhKYXZBzb1SpyAIAAAAAAOhjoQZUZ44ek3OyQoaGVujxbbIYKJu5KK8c2if79hWXwAGT1wdrhay/LSGJjbfKkHr63LGDAT9384IFVOrogpaSXTgnbj5FPAUAAAAAAAZLaAGVbhiuZ6dbsf422bjxb2XICZ6OSv2saXm/qiCNxfVsePtsOOU1Wb9ONk6sV8+Y0KttpVSm59WKD4bWkP3MK/pYhoR8CgAAAAAADJpwAqozR+WQGWZ3m5MU2aDonBzbF2Y1k56tz62y0mGY/nwT28pmAHSat0+I06v93DFTlRUkKAvbSvmgW0JVv1H6hUX5hRPurWd4HwAAAAAAGDixgmLWm6IrmbywaEuirKLojBzdp4f9aUNya/ksfmeOyr5jF30VUJXp6iwnAPNU2FZFOtA6JP4PXbF+QrbU+mSBmO1KpWO2grxHs/tY5Zi8YYzLhXMsAAAAAAAA0Wo6oPKCKaVeUFIMmMpCmIABVfcJL6Cy53Ho1ipDG01AtaLkdTf4u0hABQAAAAAA+kDTQ/yu27hNJtavl1u3basbkqxMbDH9pYJUPTXH6UkVyVC+aur3qbJ9u2To1kB9twAAAAAAAPpRSz2oViYSrQVO122UbeU9pFoRYtPy2hroL1WRrq7a5/XtmiCdAgAAAAAAA6zlHlSOGn2S6vPPwtc8Z6jcxXr9nsLjDluU6vtuzol6Q2mFmTOs0RsbWX9/GeIHAAAAAAD6XKgBVWmIEkCIPag6HVDZoKlq76gKx+Zv9h64wTkBFQAAAAAA6HMtDfEbaNetliH1z7nzlbtenTl/TmTFtTLky4+cXlwTEzIRoG8XAAAAAADAoOjuCiqz3eaGDtYSzrDCqsP8mj0flVBBBQAAAAAA+lzfDPGLhm52fkheuTgkt3ozFLrh0bmhW2Vby+mUQkAFAAAAAAD6HEP8WrJSElu2ycT6i3Js3z7Z5yxucBRKOKWtTMiWbSFUYgEAAAAAAHSpvpnFb7BQQQUAAAAAAPoHQ/x6EgEVAAAAAADoH+EEVAAAAAAAAECT6EEFAAAAAACASBFQAQAAAAAAIFIEVAAAAAAAAIgUARUAAAAAAAAiRUAFAAAAAACASBFQAQAAAAAAIFIEVAAAAAAAAIgUARUAAAAAAAAiRUAFAAAAAACASBFQAQAAAAAAIFIEVAAAAAAAAIgUARUAAAAAAAAiRUAFAAAAAACASBFQAQAAAAAAIFKxgmLWQ5HPiAxPu+vzastj7ioGWHZKZHxOrSREcgsicffpvjIIxxitN+Xrj/1cnjKPartE0ltvk/suMw8BAAAAAF1vYCqopmIiMbUkM+YJAH3qfcns/6Gse+yEHDfPAAAAAAC6G0P8APSU62+6RU7e/4Wqy7e98rXfy1cfe16+8655CAAAAADoWqEHVPG0iB40qBeG9wHotFvu+oKc3Dos1zuP3pfMj0/JG846AAAAAKBbUUEFoP9cNiL/dtMl7vqf3pbjVFEBAAAAQFcjoALQl669bpVXRfX0mfecNQAAAABAdyKgAtCfLrtEhs3q6xf/YtYAAAAAAN0o9IAqn3Fny9NL1jxXj/cxSbVunrOz7pUvQbep6an/7cfNmecWp0u3l7GfMAj1yf0fa5dGZwZcNqOg2odkA9tr1/myqm1rqpmNdamMOneVjrGh66ENwjr3/mu/ZPFdM0GFua3O+oCs+ZBZrepN+fpjesa/H8qWl0yV1bunZIt5ruT5oHInvI/1L1/PmdcbcPzp5dsp2R9vX2s1g2/DMfq2Wb7UPE7v3Oj9Ld+Gf9bF9+Q7TxZfa3z/AAAAAPSarqyg0jfpNlAqN65vjNUNc6c5wcG4eVDGhl5NhRs69BpW2zAPmxHW+bKhTbVtzanj16/3ck5lw5bpKid8Wn0togheQjv3+npS7xuvtiF13MPq9UDXRJjbisRf5Oyf3LXrV3zAXalHByj7c/K6edgYE7g883vzuNRTz5SHMDWYIOerFS7E108cD76dSlo6Rhsc/VyeMs+UC3qcT/+4fBt61kX9cfpzHJeM+dpp+pgJqQAAAID+1nUB1R51o27vh2dyxRkB9TKTMC+oNwSpWhqbLX5syjyXmCndZtqbkr46fwBU/vGFefOCosONRsObKRt6qR2021xIm+cCCOt86WO0oc2yY1RLTj1njUcQ4IRBh1Ne2KLOTa7sGOftRaKDlw4eY2jnXgdKvhB1vmw7evFfEzWDpTC3FZV335fGipZ+J1+34VL8Rjl5/xec5eCGS93natLhVDFwuftO92O95c4rzSs2hKlBVzf5Qq7ybR1xmr8H2E5FrR5jMTi6/qZbSvZLL+6+aWr/nqw1e+L78rrajreNkvOjP8eV8m1nm7dI2lTBvX7i182HcgAAAAC6XncFVOomfU7fqJvwoDw8Si8Ub4p11VKjYVAzdGWLPwBaFh6NuTfrNttoJLzRx6C3nZpX25h1n2tISOdLDxmseYxKXD3nBSXqc+7pxMkPkT5GG045IZA6N+XZpA40/ce4NUAI2qowz3152KkuzWX0NeFtS33iakMHw9xWVN4487apErpE7rqufgDz+omcEzA5gdBdV7tPBnT8aRtOXSLprV+Qb9jmV9bwTXLy/hvlbudBrfDmPfnOj211kxvSlG/r2g23mUDn97J34b/dJwNq5RjfeMn9WHuMlUItvW9eSPWnnMzWSgjjNxa3MfwxL4jS7r7zJrnFWbtU7ksWw6ujjSWOAAAAAHpIVw7xm68QHljp3WZFOdzuG2K1fX9lS61qq1lbSdVgeKO3O1vp7r8BrZ6vPdNmJVX7GHVQYoO4pdNmpUf4j7FWhZo+xk6GoKGd+7x63qymNpuVKvzHOHfY/bdEmNuKSu6EbDrxvrseH5b7LnNX69EVPcvCpXrU57JD8e6+87Yan+tq+YatFKoW3uR+7VUoFUOaCoZvcoKg1/O/b3ioXlPHKG/KbMDzee2GYRPEqcO5UG1Y3iWSTvoDskvl2pVmVa6Ujf79W/lXZjZGAAAAAP2s6wIqHdjUzGvUTby5H257SJL13XDvrhFqONRON3OjXne7dbR8vhoII7QRs7HFU+6/PSGrviZmdWaHWanBH+qdDloO14wwz73alslSZaRG0GWtHTUrageWHWKY2+q4sj5QHxqWI4Erha6U7YGGupU6frb4uabqBT++SqGnzr7prnjek+8sBN+WPwgKrrlj9A+XvHtNvfNZbE7f1OyJH/orWW1WAQAAAAyOrguoRtealWrUDbO9H2630156UCcEMhq+UU84h9OSls+Xen2h4A7jarWSq1t5QaM635uCnHD1HhvqnWpn4hLmufft84EjZqUGrz9bpeq7MLfVBm6TcN2Iu9Lia7yteyzdMyLXmod1NRWMvClHzTVy/ZqPBPhcl8ota8wQuPzbZT2VfE3dA23ratnY6AlvNvy5bEQOmj5TjVdfAQAAAEB9XRdQBanY6JRTpowkSHWLNmbfpz4uUK4x2voNfUfPl2/IYy/xgsag51u9qetCu3rnXu3zpEmV9NDEpmaUtMLcVgS8xtsN9liSlZcED7MsX2XR8MpglUnXqs/jel/eeNesarm3vXAt6LZWr7DbCqiZY2yUb5giAAAAAATVdQHV2k4GLrWom3KbazQjyNCwxIhZaUFHzldWJBYrndWtl9igMYzz3XENnPv0/mLlk55RUn9ckNkuKwlzW2GrNHucfwk2I91y16/4gFlrwIX/9hqxr/F6KNXh9VR6X85ecFbKBN9WMewKpqljDCp3wq1i881ACAAAAABBdWWT9G4zN25CgnpLjwY4nrxIsh+PqxeEce5N5ZfthabpCqiS7U2ZF+oJc1soddklYkfJ+ZuIv3HBNCGXS+TagE3dI/HuKdmybGglwRQAAACA1hBQoRiOqLvmiqPIUqbHUFlggRC04dynF8zH5IpVUJ65YsAUZOhemNtCj7PB1P5c5ZkDdc8vp4rtFq8RPAAAAAAERUAVQGre3KQ3sKS7ZahiPTog8YUjelbAZccza15EuNp97k0VlLctdR376aF7gYfthbmtQVelb1XV3lTdQIdTvmCq4jDLRnt+AQAAAIAPAdWAy2wtBiQz6q55IW0e9JERU/qzeMr9t1t0/NyPFQOmlHlKD9vLmvWGhLmtXla3n1QFdftWBd9WcVhgO70n3/mxDacukfTW5vt8AQAAAEA1BFTVxIszmS2ddv/tR14D8ZlgVV/2/b1k7ahZWXKKlgLJJM3wtTb2WYry3M/6huwdbjFVCnNbPadKP6laqvaaGl4ld5vVoNs6f7ETAdVf5KyZle/6mxJyX93+WMX3AwAAAEBQBFQ12GBj8UCwYCM7ZUKNZPAgJFJqJ+1MhaNrzUotvvf3krHNZmVR5EiQL4x6zwEbHrVr5r+Qz33D115cfV6zWh7Ahrmt/ne1bDTh4utnfydvuKs1vCfHz5pQKb5KbnHXjA/IGtO7Kdi23pSjgb5ALaoyJLEq3/sBAAAAICgCqhr8wcaeAJUhh+fcfxOTzj1792swWMjucU5F7xkrDkObVsdQT/5I8TgnN5mVsIV87uM2SFNvCpRZ+AKv8oAszG0NglvWXOmu/CnnVJPVlPu1ZEx10d1ryns2Xaq2ZfpQBdjWGy/l5Cmz3lYNVokdX6jSRB0AAAAAaiCgqmWsOHPa3LjU7K+jq05MPtW+UKMNvP5MdfoH6eMbtwfYg3bMmBV1DDWbeauTMKzOhSPV3mb3YZ77uLrm7DC78QCVT/7+V5vVde4X5rYGwvBN8m1znTz1zPPynWoNznWj8Wd+767Hb5Rv2NTH59oNCW8GvKeeOSHH3dXlcidk04n35fr4laYHVjv5KrtO/Lr6PinHn/6hfDVQqgkAAAAApQYuoGq0UbaeZt9W34zHRKYqJAlT6nkbIOgZ/3pmBj8lvdusKPr4lh2eutlM2uNLiMzYk9Fj4uli2KgDoUrD1/IZ9fy4eaDMt3n2wlDPvbrm9tsQblFkWH1cplJQoD6JHr43bRIlfb0uy5TC3NaAuOWuG03/qPcls/+H8vXy6qfcCVnnzYJ3pXy76ox3l8p9nxs2odPv5auPLd/WGy89L+ucoOtK2Z78K/fJtlL7lDRVYs4+VQjOdPim9tUJpz403FM/AwEAAAB0h4EJqDbbm3t1s+/01zFLxRvvMrO+mcp0JZX/4/Vii1v0Dfpsr92hq/3N2TBC0UFJyfENm+qYhHrfgsgmO/zLnMcg569b6LBx3n4hTfDiP1avckqZV1/ztn8pQz73OoTzb29afXzJ9vTiC+BqXa9hbmswXC3fuN+GVLr66Yey7jHfYiundDh1/01lvafKXDYiB++0gdDybenKqUDbCdPwTXLkJjP80ARn/n3ywrcPDcuRe0bklhXmvfmfq9drVJUBAAAAgDEwAdXYbLGCphk6pCqom/BK9Cxserr9Xr1B12GE3v9qBTo6fCgsOIU1JZVIvUhfB7WOdSbnvt6pL2XY595uzx8ulXO2qd5T73oNc1uDQYdUX5CTvnDJ7+471WtBQ6Xhm9R7v+ANHfS7/qZbitu58N+mKqtsRsA2uHbDberzFkO4cs7x3TMi16p1/1BFAAAAAAgiVlDMOgAgMu/Jd5487jZRj98oJ6sOAyzyej4FfD8AAAAAdCuapANAV/DN4pfP1R8WlzthGpJfIukk4RQAAACA3kZABQBd4toNw7WbrTvelK/rvk9OX6tLJL31NrmvzcP7AAAAAKDdGOIHAN1Ez4jnzfhXS4cbpQMAAABAGxFQAUA3yp3wzf7nR9UUAAAAgP5DQAUAAAAAAIBI0YMKAAAAAAAAkSKgAgAAAAAAQKQIqAAAAAAAABApAioAAAAAAABEioAKAAAAAAAAkSKgAgAAAAAAQKQIqAAAAAAAABApAioAAAAAAABEioAKAAAAAAAAkWpfQJXPSDIWk5i3JCWTN68BAAAAAAAARhsCqrxkkjGJDU/LonkGAAAAAAAAqCZWUMx6OLJTEhufc9cTM5JbSEvcfQQAAAAAAAAsE3oFVfawCackJfOEUwAAAAAAAKgj5IAqL6eXzGpqs4yZVQAAAAAAAKCa0AOqU6bxVGKE2ikAAAAAAADU175Z/AAAAAAAAIAACKgAAAAAAAAQKQIqAAAAAAAARIqACgAAAAAAAJEioAIAAAAAAECkCKgAAAAAAAAQKQIqAAAAAAAARCrcgCp7WObM6ujauFkDAAAAAAAAqgs1oMoetvFUQkbIpwAAAAAAABBASAFVXjLJmIzbfCq1W9IEVAAAAAAAAAig6YAqn0lKLBYzy7BML5oXEjOSmx0zDwAAAAAAAIDawhvil5qXQqEghYW0UDwFAAAAAACAoGIFnSq1LCtTsXG3QboOqqigAgAAAAAAQEAhVVCNyWwhJzMJtTo3LrGprPs0AAAAAAAAUEeIs/jFJb075a7O7ZRM3l0FAAAAAAAAagkxoFLiI6KLqEQW5RQBFQAAAAAAAAIIOaBaK6Nmdek0CRUAAAAAAADqCzegAgAAAAAAABpEQAUAAAAAAIBIEVABAAAAAAAgUgRUAAAAAAAAiBQBFQAAAAAAACJFQAUAAAAAAIBIEVABAAAAAAAgUiEHVHEZSbhri6fy7goAAAAAAABQQ+gB1dpRszp3WLJmFQAAAAAAAKgm9CF+Y5tTZm1OxpMZoY4KAAAAAAAAtcQKilkPTXYqJuNz5oEnITO5BUnHzUMAAAAAAABAaUuT9LHZghRyM2LaUQEAAAAAAABVtaWCCgAAAAAAAAiqLRVUAAAAAAAAQFAEVAAAAAAAAIgUARUAAAAAAAAiRUAFAAAAAACASBFQAQAAAAAAIFIEVAAAAAAAAIgUAVUvOXNU9u3bJ0fPmMcI6IwcVeft4OIF8xgAAAAAAHSTWEEx6+igC4sH5dArF82johXrJ2RLYqV5VEYHVMcuyvqJLVLtLQPvwqIcPPSKqJPkO486oDomF2udWwAAAAAAEBkCql7SJwFVeThXM5RrlAmoVty6TTZeZ54joAIAAAAAoKuFGlAtLS05/46Ojjr/ImSBA6oLsnjwkFQo0GpYqOGRt19Dcuu2jeLmR254dG7oVtlWTJQ8Z47uk2PnzIMqhvxhFAEVAAAAAAA9h4CqU0xw0lhm5A9ylNAqqExQJOtlYktCOhXZuJVTK0qPSasYKgVQ6eMIqAAAAAAA6Dk0Se+UlQnZsm2bbCtbJtavUC+ukPUTy1/bVh7khOaC/FknZRffkHMd6xt+Rl7RJV1Dq5cfkzo3fzskcu4Xi2rPGnDhz3JRnbsPkjkBAAAAANDTCKgidsFNiuTPHZxg7sLiL8QdNXdR3uhUQnXmvPM5h1ZXjtyuWz3UcGDmnjsCKgAAAAAAeh0BVaTOyHnTX+nc+TPuSrtdWJTndSXTivWyXmdCrxySox341HXDpJUfVK82EphdkHNvVKnIAgAAAAAAPYWAKkJnjh6Tc7JChoZW6PFtshgom7korxzaJ/v2FZfAAZPXB2uFrL8tIYmNt8qQevrcsYMBP3fzggVU6uiClpJdOCduPkU8BQAAAABArws1oNLN0WmQHoxuGK5np1ux/jbZuPFvZcgJno5K/axpeb+qII3F9Wx4+2w45TVZv042TqxXz5jQq22lVKbn1YoPhtaQ/cwr+liGhHwKAAAAAIDeRwVVFM4clUNmmN1tTlJkg6JzcmxfmNVMerY+t8pKh2H6801sK5sB0GnePiFOr/Zzx0xVVpCgLGwr5YNuCVX9RukXFuUXTri3nuF9AAAAAAD0gVhBMevoAF3J5IVFWxJlFUVn5Og+PexPG5Jby2fxO3NU9h276KuAqkxXZzkBmKfCtirSgdYh8X/oivUTsqXWJwvEbFcqHbMV5D2a3ccqx+QNY1wunGMBAAAAAABhI6DqEC+YUuoFJcWAqSyECRhQdZ/wAip7HodurTK00QRUK0ped4O/iwRUAAAAAAB0JYb4dch1G7fJxPr1cuu2bXVDkpWJLaa/VJCqp+Y4PakiGcpXTf0+VbZvlwzdGqjvFgAAAAAA6A0EVB20MpFoLXC6bqNsK+8h1YoQm5bX1kB/qYp0ddU+r2/XBOkUAAAAAAB9JdQhfktLS86/zORXR40+SfX5Z+FrnjNU7mK9fk/hcYctSvV9N+dEvaG0wswZ1uiNjay/vwzxAwAAAACg51BBFSHdR8kdyhdwuXXIfGTvWemWUMmfq5VQXfizenWFXDtUDJB0qGXDKd23a1uHwjQAAAAAANBZBFTojOtWi47Xzp2v3PXqzPlzIiuuFV8+5fbimpiQiW31+3YBAAAAAIDexRC/KFQchhZAvVn8Who6WEs4wwqrDvNr9nxUwhA/AAAAAAB6DgFVFNoVUHU93ez8kLxycUhu9WYodMOjc0O3yraW0ymFgAoAAAAAgJ7DED900EpJbNkmE+svyrF9+2Sfs7jBUSjhlLYyIVu2hVCJBQAAAAAAOibUCioE1NJQvHCG2w0WKqgAAAAAAOhmBFRRGNghflEhoAIAAAD+/+3df4wb1b3//7elqn+RoktCQvhRQlKbZFm63MsupH8ASRt6YZcVVUhUJejmSuxKiEhtud5QhKo2hKpCAdZtqZQq0i7STUWiKiEqCrtwSyBp8kdD1nwupiEEG0IQ0ABNuKLw1/cff+fMnDMe22N7xjv2eOPnQxrt+Nfs2Ou1PS+/z/sAQCcjoAIAAAAAAECs6EEFAAAAAACAWBFQAQAAAAAAIFYEVAAAAAAAAIhVpAFVLpezFwAAAAAAACAoKqgAAAAAAAAQKwIqAAAAAAAAxIqACgAAAAAAALEioAIAAAAAAECsCKgAAAAAAAAQq0TRotcBAAAAAACAtqOCCgDQvOlRSSQSkhjISEGfhe5SyAw4zwGfZSAT/lkR9fbQTtMyav+tBoQ/FQAACIuACgDQJOtgdGhSpH9c8jNpSepzAXSrQZkoTsmIZGUsNWq9QgAAAARHQAUAaEJBMgNDMmmtjWwjnIIyIlPFoqjOAWaZSYd/ZiTTM2XbKNqBB+aOQZmYUn+xSRkaJaICAADBEVABAMKb3i5jWevnyJRMDDpnAYBt8GEZ77d+Tm5lqB8AAAiMgApzSiEjkkg4C9/Ltlc7Hvu2/H1f2yIPrVviLpnnTusLaii7/l3y8kf6/Db65Lm79O/fIm/q8+JVkMxWVTvVL+MPk04FxesXukdS0ttUFVVWxjbSnw4AAAQTaUCVy+XsBfEY1Qc+A9ZBUCfp1P0ClLMf1Q+o3jy2T6/BZaqn+jfIcAeO7eM1B+gApooqOybbSWQBAEAAVFAB6G5HX6pTlXRaPv1Qr0Iz1VP0ngJQT1KGN6iESmRyPwkVAABojIAKc0oyLVIsOgsDi9rrwn3sT8mntYbtffSy/O2MXo/RZfe8IE/uO2MtT8m39XmxKRyQPap6SkZkLf+EofD6hW6THN4gdkRFLyoAABAAARWALndCPvtYr1b45LUDclavwzG9fUycfGotIQuA+pLD4hRRZWXPARIqAABQHwEVgK73xrGDeq3cZx+d0GtwFOSUbjPY38PgPgCNlIb5ZfccoFk6AACoi4AKQJfqlcVL9OqH78knerXE039qiXVdvdrV3OF9/bKhE7ujA+g4yeV9zkr2JAEVAACoK9KAqq+vz17Q2PRoabrxsmVA1SgE592O07bYnjCnbJth+z6YGbAql9EQPU5bsV9KVNO0Z6zH2bsvZmlbjwzr9wzo3xn4cQ1zG+ty7/0yS5i/YaUoHnvvNswym32arUVX9TorZwrymbPmcVo+0/2nFl+13FkJ5KA8u26JPOSzPPuavkpInzx3l97GljoN3cu5t9myU4dvtfYr+DalcNIZ3id9sjyifKoTXwurZgH0/O+VnR9SM/9D7m08j0et1+iw/0p+j33ZffPcb/oHKR/L/l+/IL/0Wfbn9VUaKm1j57F/Omedf0d2erblnh/QqanSbX234W7/sBw9r8+rwW9b9rLrHTmnrxNassfpQ2X9Z9IrHQAA1EMFVbtZH87Uh/0hcwRVyTr6S6kDAuvAod1MaFNr1yaHnMvn8udLc0BmT5HvYyxlXR7ywLgp1sG9HvUgk/udn40UDthPD1u95tT2wav1t/IT599Q7VdqTJ/wsPepHY+5j4VXmuDJp1H6R+/Jp/ZKr1y/Mkgac1pe3qICn1F5Q59T6Y0nQwZCkVHhVK392id/UEHVb/2HOXpN79evDv09s5+9r4NfC8uo/bReF2q8ZLSd+j+q9ZANBX286jz2JtSby6/z0funHN2lgpr/lbf0OZXesoOdrPVKElI+K7/c5ReQB6Bu++sXZK9POPbZX4+E258627KdL8jvVVA1VaNhXz3J5WK+usydIukEAAC1EVC1kzoo8AQHU3o2J+8yrkMLdQQS5EBjcKJ02xF9Xv94+TbTAY4k1UGPCW0qb6+WvHWeMRQgTIhqv6Kkwin3gMx6nPOefVHLlNlRdWDchsBkeINesfYpyMHggT16xdrPWvmU9+B1ZKr8/hWt04Y6kG3nAah3vyqfB/Zzq02PeZUrk3ronk+j9I8LukH6cll0hb1ShwqAvit/NhVXG17Vs+6VlrENulpLBUJuVVM7FOSVLSac6pXv/8a7X6/K980wx6OjknnutD7hp9R/SvqWzy6g6uDXwkqjZj+tjZrtzKT1eW223fofMf9H4/ny++Z9vOpWeFn/ZAOex77ydcK81rf7NaJzqYqnI3JYVx4t/M6t8vP/uqtseeA7FzkXWv/Ve0NVGp2V/VP6lSD1r+727l/5Dee8elRVlLmt5bohv32y9idISKXCKXdbl8l6z3ac5VZZNV9fnP/fJkKqpPTo52f2JAEVAACojYCqjSoPdPxChvRM6QBBHWi0Y/iTGkLiPejxO/hS06O7+5W1DpTm2JGLuo8mnLIPWq3HufJYVR3geu/jxnoHeRFIDts5ma3hsAfrM73T+8d6+qx1flZSAZz37zhR+QSzTqvnnTl4DxI0RsG7X+pguPL5ZU+9r8Iz6/4NjTnntc0Vt8v1OqD59KPycOaTj/Rh3ZKkLHTWavrkud+UBUDpe5bap7wuu+eFUkh15nF5pcnhfqGd2SdvqOBsySMytu8Fuf1K52zHUrn9qVJIdXbPjrZUd3Xqa2ElVU2knrt2iGO9PsTK+v+YVK8BOlyvDNvU42VCKrXftR6uzEZ7UzYVDFa+Trj/j5at252f3ezcsYKumrpIVm3yD48WrFxVCqnOF+RIrSqkCp/91dm2HS4NNUzBPf4pR6dM1ZUTKK1N2Sdcap9+PnSZtfaJ/OXYl86Zvj6uCMn6pXpA8zfkFuu+u/cx/78hhjQqSTFtqAAAAOohoGqXgogpPqgVMBjqAMEcaAQd/jUb262DGZt1sFivwkDtlwk3cqHHMcTLex/rVT94H/t6B3mRsB7roMP8Gg7vs3bUBHDqYLre33FCH3yqDbY8aLSe91vddMonNDOs890KtrZaKouuctbOVgRU7gx+Vy2zDgHrOSiv7NHXveXBigCo3GX3PCg36PXKQKy11sl/PHV/jfuxVG5fv06v75O/1QzOCnJSPwlnNYNfB78W+lGBds3nbQymfMJ1I71Nr1h8Q2/rPFMpq14nat4t6wIVDmat/13zutOdPpYjf/3KWU0l5RZTReRjwcqkXKfX//F58B5SqiKrMlxqKJ93K7quG/ILlLRUvx0qfZb/pPYQwvNfyT/06nXJ+iHZgpX/5lZSvVVoYqifYn14aMcXIwAAYG4ioGoX6xOZ+aAf5NjO/bbROpJr6Ye5EAeLSqlM3/k5J1gHZSYjGX9Yr9ThPchrdbuMoMP8Gg3vmzYH79bf5+FGB9PW5e066PcGa40e+0Hrcr1bbbXwSl3VVDaTX2kGv8VXVldDlXF7VYncsHKNXqtlqSw01UptDKgWb9gs39brvq4wQx3bEJx16mthDdvqBNrtpsKyuv/e1uNp/of8vkTIbNUrAV4nvF9IdK0Q4Y3IPLlUhzefna9XseR1mdwWZDhfmX/K0WP6lWp+Um5tEG55gzNf1r464dVF7v7X9o3SdazHpumm6QAAADVEGlDlcjl7gQ/PgcMe66C9EbefSp1vyyNhbXxG/R6foR4XCm94E2hmfM/fqtXtMoIO8zOVK7VCRLd39YZgz5ew/a+a5QZrQR5763JTUdZOl5lG6WUz+ZkZ/Hrl+psbBFRX3i9p3dPp3pv1eR1mUaOQ7cplskivtpzn/6ujXgv9WDva9t9ZR1+jySStna03ksqtgAv4OrG22xOq+dfK/boPU+gqpyDmz5MFejW4L+Ufph9WanGA218hPfX23doHZwjzV9b7XePKr+Wm19Wma5vYdwAAgPqooGoX62jAHHyroWNzcspuz/CQuaTU2DngwaZ1pbaFdp7nRc1qJk8FmO/wPuu55N7FRgewWtJzvVZWiYU9II6lT4lbPeSZyc+tiloui+oM2QvttR1uI/X26ZWFYdrbtNpcei0M+prRJrMZWel9HQn8OtGjV9CYZ9hdYPMvCh/y5M+6Mwleekmw6qsF1u+paf5i6TGVX3/9f3I07H0AAACIEAFVG6V3lyoHxlLOVN51Z1vqFNaBjdpX76xbc0mpb47zs9M0qmZyK8BqDO8LO2TKZl3PPBc7aVKlWA6IrzSN0j0z+ZkZ/AI0SA/ktS3y0Lol8tCT+/QZ7RRxyBaBufJa2GmvGcsjSsuCvk54g2zUoGbA+/ULnlnwgls4f55ea0aQIXmOBZfUCahUA/Qh8zr3lRzeZd0X6/7sPBa8jxYAAEBUCKjayTooUJU5pv+PoioI7PDHLAGmU2+ZgnWQ6N0Xs8zRYGquaDTMzwzfC9IjLDDruei29mlVw3vr+RS2sisepUbppv+SO4NfwwbpFT7aKRkVRFUusQRTUYtwqvhOfy28ABU8/+dRBV1d5fw7slMFUZVLE8HUbJz7XDdtDxFQNWQPZbzVbYCufPbXIxX3s8mm6LaCp5J5ufr3BwAA8EVAFQM1HbjdUyVfCiZck6UDtLYNfTHBVKpUiVNmRO9vxQElImJ9Wq85zK/R8D5EwjRKN43LzQx+DRukGyaYevBxp/Kq0i0Tdo+qJ/e9Kt/XTdLnnuiniu+410Kgkgmmdnl71Hmk/tXpyVQR8Mw935BbNpn+Uj6Vo/n/1WHVYYYBAgCAliGgipOuIjDhT9FM/6+poS8tH/aiwilPMKVmiXL3xywT+kK0TK1hfg2H9zXL+ru3vLrJen63vEorIm6j9KMvyZvuDH4BGqQrKpzyBFOLN7yqwyjP8pNGs/vNDUlTQhX1VPGd8Fp4gWtX37kLigqnPMHUwu/cqsMozzLU3gZvpeF6X7nN0iPnaQ7v3EdvHakzDDDcEMCCZ6g99VMAAKC2SAOqvr4+e0GTBksHaGbyJDXsxa8vUVQyG0vh1HjeOkjsoCnVo1IaluT87ES1hvkFGt5nfd43tw088sq6Xui+VbMQ9LEvxPU3uvkOucFeUY3SzQx+QXo3nZaXf2PCqV75/m/OSPqegFVXc1DSlFBZf9CWZhwxvBZ2k6CvE95hgd3nn3J0yoRTF8mqTXfJ/SuDNSVvj+ABVWlYYJNS/Tqs+le5Tp/12V/z1qtlQNYTyflCpF82BJpKFwAAdCsqqDrUhGfIi19foqi432qOi6QDfG40159L3GFJ1ifkoAfVmQE9vKhdfXCsx75qmJ/1dw80vM+6bdhKpXb1o3GnqQ/42Lt9StpuqSw0jdJf0zP4BWqQbsIsVTn1tNweINAy15+Tkj36dSnXtiqcdr0WXvCs1xD33zHo60QHh/qt96UbAC38zr/JLQ2H75Wu31KpxW5I9I/Pg1UxnTs/y4DKdYWsdYf/fSInrf/NQKwnkvPRoY/+ZwAAoC4CqjaZHtWBx0DAkKSJ0CE0a0dCDfPyXH8uGTTVR9Yn5ANBHnzrOntMcNfGWbwqh/mFGd5ngqDsnmDPrwPW9WwBtj0b7qx8QR57z+Pefp5G6X894FREBWmQ/pEOsyyLgvSr8lx/TkoO6yA1K3sC/TNV68jXwi7hVpMGfJ0wFZxd6fxX8g+9euklASqnPNdvrXluc/TP8mflnLNax8d1g6RTU7oJ+q53AmzLMv8iuVSvBg3Ipj2lwK18vwEAAHMfAVWbeA/UAx2UWVcKFR41I+SB3/R2e/fnHk/lwJh1HxopHCjdzw3DeqUNKof5hZm9zxvCbW9UZWJdPqbvYKQzA/rw3qdGj33czy+3UfoZp0H6DSsD9I26cpks0qtmBsB63nyuRhP1OSMpw7rUL7vnQLDXsgod+VrYJdwQPMDrRCFTquDsSiGDmFPHajRRj9w3ZEVK96E6X5AjDaqYzln79ZZe97PAup+2818GC6jCBnfWP7CpjB1hpg8AANAAAVWbeA/UhwJUDnh7Q7XyM537jXqD/i6q6mFoDh+tPDyuV6z7ULfZsvUgpKzHwjYSbNhjZKzfZYb55baWDg4D/f2t60zpFG5yqM6sZ9b5A9blNuv6E60+XrDu0zaTDlp3aLTWk8w6P+7nl9so3dYrCwP1PjZDA0XO7tkhbzqrvt787RL5w1F9Yg5LDm9wXsuye4JVJFbo1NfCbpBMl2ZiVa8TNV/z9etgv/W/a/5W3cdTqdSg35KqQtobdLhbBBas/Dd3xsC3prK19y2fld//9StZmLqs5nDlBcnF7pC9vQ2rqLx9uS6TnpS9Ul/hgK6MHeH/FwAANERA1S7WgfpuE5JYH9ZStaZOtw4M1PAXt8JlKvwQrDDNwNPb9IplyPq9VQcsKtCwzrfDA+tIZdyEDU2Is0m598BMhXF+w4tUxUDChDeWqRhmLzQVDllzRG493kH//oPW/po/j5r1rCoMUs8tz4yN7bp/3v1SB8WVAaH3cR+ZxfNr1txG6UqQBunKUrl9/Tq9vk/+sG5LdUilZvlbp8OpJY/I929xzp6zrH8mJ3Rscphfh74Wdov0bk9AaD2+la8T3v/HbQ87P7vTN+SWlWaQ7yey99c+QZCa5e/XOpyan5RVQQKbSFj7NlTqBbXX2of9FQHZuWOH5ZdTn1hrl8ltK+c5Z/qZf63c851SRdbvf31Yjvr10spn5Ze/PiKH9WXXDfVbr5KNTW8fs99z+scfDv3/CwAAuk+kAVUul7MX+FMhSd4cmFlUiGD3YvEunoBEHZCFqXBxG1JPlm+zZjWNYm3fu0/qgMV7WzfQsI5o8jMiw2Z4jv4ddbetNbVfLZC29t9UGZkDY+/+uJVTlqli+IPhKHirS5SwQ/AmPLOeqTDIe//Kwrc23z/vftkBoWe/zOOunu8Pt7HnV7VSNVSwBunazU/J2AZneKATUi2Rh7zLg3pY35JHZOyp++V6PZRQjo5al98lL3/knJxLBvU/ddPD/DrxtbBbJEVmrMfTqHydMP+Pcb0GdpRUvzxgwhsdBNn9msyyS1cTzU/KA5uulRVmuFz+f63LawQ9UZl/rdw/VOqS95bpJaUXVTmlwqn1/9U4SFqwcpXnfn4lh3eVb8te7LDLcd3QXbI2UBg3rYeqM3sfAAAIhgqqNlMHZmrqdO/BWSV1MKauE3b4lapUMVVCYZh9Msd0lez9mbGPa+zrhv0dze5XK6h9qXdfx/PO5bEdmFkPshnmpzQzJEKFQUXPAaiXeW7Fcf/UftV63ocNIFqj1Cg9UIN0j8vueUGe3DfhqcAqd8NDZ+TJp+63t3nZPU/L900QNldZ/0h22Jsda9zzrIZOfC3sGtbjqR5XN7D3UDO6uq8RBf0FhaVbZ19T4c3P/+tf3ZnzKqmw5uebrpUF1rp36F1bpPqtfbtL1vuERQu/c6t1mQ6nzn+ph+Vd5A5brOTcz7s8QVU1+75a1wkWTqlqvK0qI7b+kbe1d7g8AACYsxJFi16fNVM91ddnWm8DAC5IhYwMpMYk2z8u+Zm0HWCjs2UG9JDJEZHihHNePW7vwQbXL1gbTukNT1lXjD5rnpbRxJAddvSP52Wmq9OOf8rRXXqoXepf5edDjZvluT2yAl4/GuZv1qrnBAAAuBBRQQUACC+Zlt2qTGkWVVRoL3cWv8kAwx2tv6mZuGC8q3tRdRrPLH75QuNhhPmsbuB+kaxa2a5wSoWbJlCk9xQAAAiOgAoA0JRkerc9lG5yaFTlGehwalilGdXnO5GCNqr6UekeYGrYc/CCpUkZSiQk4VkGmmj8pSqyvNtI6OopOBasTOohh06/qMoG6Y6PZb/bO+oiWbVpldzSruGHhYxsddIp2c3YPgAAEAJD/AAAzWOo39xSEOvvVeotVU/QRumlIX7VmhmSF/X2LkhqBkHTpL2uYI3So8PQPgAA0LxIAyoAADAHTJeqpCqFq5q6cOXzeXn33Xfl0ksvtb94+/rXv64vcbT68kDy2bIZ9kraXDUFAAAQAQIqAAAAj7Nnz8rhw4fFfES68cYb5dprr7XXlVZfDgAA0I3oQQUAAAAAAIBYEVABAAB4LF68WHp6euRrX/uaXH755fLNb35TX+Jo9eUAAADdiCF+AAAAAAAAiBUVVAAAAAAAAIhVpAFVLpezFwAAAAAAACAoKqgAAAAAAAAQKwIqAAAAAAAAxIqACgAAAAAAALEioAIAAAAAAECsCKg6RSEjA4mEJNxlQDIFfRkAAAAAAMAFLNKAqq+vz14QRkEyAwlJpMYkq88BAAAAAADoJomiRa8jDtOjkhiadNb7xyU/k5akcwoAAAAAAKArMMQvZtP7dTglIzJFOAUAAAAAALoQAVWsCnIqp1dH1sqgXgUAAAAAAOgmBFSxKshJ3Xiqv4faKQAAAAAA0J0IqAAAAAAAABCrSAOqXC5nLwAAAAAAAEBQVFABAAAAAAAgVgRUAAAAAAAAiBUBFQAAAAAAAGJFQAUAAAAAAIBYEVABAAAAAAAgVpEGVH19ffaCgKb3y6Re7Vue1GsAAAAAAADdhQqqGE3vN/FUv/SQTwEAAAAAgC5FQBWLgmQGEjJk8qmRbZImoAIAAAAAAF2KgKpNCpkBSSQSeknJWFZf0D8u+YlBfQIAAAAAAKD7EFDFZWRKisWiFGfSQvEUAAAAAADoZomiSknQZtMymhhyGqSroIoKKgAAAAAA0MUiraDK5XL2gkYGZaKYl/F+a3VySBKj087ZAAAAAAAAXYghfrFJSnrbiLM6uVUyBWcVAAAAAACg2xBQxSnZI6qISiQrJwmoAAAAAABAlyKgilNyufTp1dwpEioAAAAAANCdCKgAAAAAAAAQKwIqAAAAAAAAxCrSgKqvr89eAAAAAAAAgKCooAIAAAAAAECsCKgAAAAAAAAQKwIqAAAAAAAAxIqACgAAAAAAALEioIpVUnr6nbXsyYKzAgAAAAAA0GUiDahyuZy9IKikLDeTHk7ul2m9CgAAAAAA0E2ooIrZ4NoRvTYpQwMZoY4KAAAAAAB0GwKquA1OyJTJqLJjkkokJGEvA5IhrQIAAAAAAF2AgKoDDE4UpZgfF92OCgAAAAAAoKskiha9Pmum/1Rfn2msBAAAAAAAANRHBRUAAAAAAABiFWkFFQAAAAAAABAWFVQAAAAAAACIFQEVAAAAAAAAYkVABQAAAAAAgFgRUAEAAAAAACBWBFQAAAAAAACIVaQBVS6XsxcAAAAAAAAgKCqoAAAAAAAAECsCqhhRcQYAAAAAAEBABQAAAAAAgJgRUAEAAAAAACBWBFQAAAAAAACIVaQBVV9fn70AAAAAAAAAQSWKFr2ONjMN0gn1KuSPS+9Lf9cnRFbctFr2rrxYn/JRdv15kt74PblvgT7ZBode/JP8qKBPGMkb5cSdV+kT4bjbm5+SA/f2yDXO2UDspkcTMjSpTwQwMlWUiUF9oi2mZTQxJOW7OCJTxQmZzW4UMgOSGsvqU5aRKSm2944BAAAAFzyG+MWIirNg3v6/f+o1f4feK4VZbaWCsad9wiml8Lp92fpjX+gzgLmuIKc6eNJRFZ4lqsIpZVKGEgkZyPj9ozZSkMxAojycAgAAANASBFTofIWzckivVvtC3v9cr7bR+8deKVVtqUqnH/9ATphlY0pWOJfI28cPEVLhAlGQk3ZO0y/j+aKo4ttGS7uKjFSFk6ns6h/Pl+3D1IhzfnYsFT6kKhyQPSabUlVTZrtUTwEAAACRI6DCHPClvH9Or1Y697G8eF6vt8u5k/LT41/aq2r44YnKYXgLemTvj1dLer5zUoVUP8s768Dc1yfLk3q1E0yPuhVOakjhTLp85wYnipIf77fXs2MbJVRGVTgpzpb7ZfxhQikAAACglQioMAd8Ke/VqJJ6/92z8rZeb48v5Jn/yTu/M3ljnd5YF8t9994od+tTz8+clPf1OjAnFU6JPcKvv0c6J58qSGarLp0amapZsZVM7xYno8rK2PZp+7y2K2RkIKGGIaplIFxQBgAAAHSBSAMq1fTbNP4GovT8ex/qtXJn/s+pZGqb/DuSsSu25kl6oFET9Ktk9KZ5zur5s3KoVhUYMBeYaqK+5Z0TUHmG4I2srVfhlJT0Nj3Wb3K/xBRRAQAAAKiDCip0sHmyQg+Tk8+/9KlA8vSfmm9dV6+2ktuQff5iWR1gpsBrvrVY79eX8uK79KLC3FXowA7phQN79BC8EambTymDa61rKZOyn4QKAAAA6DgEVDGi4qyx1CWmAukrOeOsefxT3tP9p1aY61X5UH729J/Czah37qSs17cp7x31oRzUw3JWLLuivO9ULQuukDtNL6oGsxFGq3S/K5ew/bAOvei/nd5nww9bjHJbs+HM+KaW0cbVNJ6hWaNdHGwUnA7p0t/TQQP89D7JyFpp3CEqKT1OKyqZrJdQTY/q54a1mM7ramhgyjxnrKWZJ0IyLTNu8/YZqWiVBQAAAHQ9Aip0tGX/YoInn0bp574UJ2uZJ3cuu8heq3aVrNEHgm+/93GgEOTQjO4xNT8loyn7LEf+rDxvr1i/71u1ek9VUr2o9Ox+dzYaEhiFL+SZZ1Xo87re12rPv6QuP15nZkQtf9wOj35Uq1fO+bwMq3DpRf/hl2Wi3FYEBifyuifRpGyt2wyoIJmNY06VTp0eRxe+gpgCqr6O6ZA+LfvNzH2BQrOkLO/Tq7lT1j0CAAAA0EkIqNDZLrnIHSJX1Sj98690g/R5cs0l9oqv1csud1YC9YGqXSX1/uem35X1+wIM72s/VTV1SPfI0jMMqmDMsxwwPbHk7/KjelVLKlB6SQ9nlMvldxXbOeGZpVAKr9cPlqLcVmRKPYnqzexWyGwUZ4K4EZlqcTpVyAyUKnSaWVpa3lUQp1ipX5wsaFpG274PtQUNzZKmhCp7snZANTihq5ysZUr3rVKz+OVN9ZO1dG9SCQAAALQMARU62yWlIXL5z8uH6LmB0fyLZImz5i+1WM+mF6APVJ0qKbche6PfF5P3j+XdfU9v/IHvDIPXrPxeKaQ6n5cJ3+F+H8rPTKCUvFFO/PgmWe2c8nAqw9xtFV6vMXQwym1FbHBCnPyh1sxu07LdSaekf/zhAEPILmBmBj/Lno0qjBoSM/itzOSQHVQNtGOKOs8+BZUslVDJKUqoAAAAgI4SaUDV19dnL0B0Lnaroyp7OLmB0SXzGvSDCj7Mz22CnkzJfR1ZJVXLhzJxXD8eDfb9mpUpHdhVh342d+ikyN3L6g9LvGZlv1v95DvTYpTbaoHBh8fFGek3VNVfanpUhzD947K7DQ2DkumZUoVOM0tbqnqykjVtn6Yq92FKNyFXVWmp1odUZlZBt6oLAAAAwFxGBRU63hLTh6psJr/SDH4r/uUbzkodwYb5lYb3NQpTOk6IIEjkG7JMB0G+jds9QyeX1Rk66SgFiL4zLUa5rVZIpmW304xKJrdmSsO+ChnZ6qRTMr47LV2ff7hhkKV/XPLFok8/rkGZsM43o+LqDZ0EAAAAgEoEVDGi4iyYa3xn8jMz+AVsWJ66Vlfn1Bnm5w7vu1zWeJujzwULemSv7un0q9nuu6fvV8MhkZbVd+peUvf2VFeyRbmtFkmmdzsN07NjstFOVLyN0bcx25qlYDqkq15cM/UDu8EJU0lVa+gkAAAAAFQjoELn84Qc7kx+nhn8gjUsv1hWL3OCLv9hfl/IMzNmeN9inz5JF5D8O24jdV8LSn2/3j6elWcaNpavI8pttYy3Yfp2ybSxMfpcURp+OBGgF9egPKyr0mRyvxBRAQAAAAiCgAqdzw05PDP5maFjIRqWX/OtxU7Q5TfM79zH8qKuyEoPzLHhfUGp2fSe/pNnRr1aLpb7/j3lhoKZ3dZtrNutP9a4AqpalNtqIbdh+qSM6cboI1NBwhj4KTUjn5T9JFQAAAAAAiCgwhxQ6k1kmnq7M/g1bJDu4Qm6Koebvf/uWR14LZbVjSqyyoYadqBzJ2W9CqIql4bBlIc9ZHC127Rcefv4ofLtvRiwkXmU22qh0tA0S/+4PNzmdKqQGbBnwGt6qezyHqdkj9N83pJr1XR57u/Iykl6XQEAAABzXqQBVS6XsxcgaqZRumnqbWbwC9IgvaTWML8v5NB7envLrqgZeLnN2juVCaZ253Vj8grJG53+ThVhUW0Xy3336p5QG00VlEfhdR0wvRJg6F6U22qR6f3OrH1Kdo8cIPRoXnK5tLy7XhO/o9RLq0+W01sMAAAA6ChUUGFOcBulF87KIXcGv4AN0j18h/m5w/sul80ra2/P3Qf5uxw0U+YFcOhFXSX07MnWzUynwilPMLXiptU6jPIsd85i6KKnCbu93KFnRbQ5Q/cCD9uLcluRmZbRITeesrS/wXepz1OTSxf3ywpapVU4qeci7O9hZkYAAACgwxBQxYiKsxBSi+Vue0U1Si/N4BesQbqHzzA/d3hfo+bo7j6Uhho2ZsI0S5jhiKF8Ic/8jwmn5kl64w9kb52gLRKpm3TAdKP7mLx9/B05pNdDiXJbTZoeHXKqp/rHJZ8fd4aOTQ5JJ42ai830qB5GOCD2JIcdY1DW6jGZ2UBj/ApSKqBaTkAFAAAAdBgCKswR35BlOlh67109g1+IBukllcP8PpSJ487wvruXNaowukrW6KNa/5kA/ZgwLexwxDA8v+OmfrmvYWhXuv7sXSW/cofshassqxbltkKYHhWneKpfxnenJZlMy249C93k0Ciz0DWjcEpKWVDroqBkT5jZAgtiCqhG1sZQbVbIyIDbM6zTwj4AAAAgfgRUmCM8jdLf0xVPTVYklQ3zO3ZWnrfPvVzWpOyVulYv08PRzudlIkCA8v6xvN5++OGIgZ3TgZ0ldUmA3+G5vp/QQxIXzBPz0FVWlkW5rdYoSGarHto3sk3SOktJpneLk1FNylC3l1ENrtXN47OyJ2BjrsKBPda1lRFpZRaUHN6gG6UHmC3Q7THW2n0CAAAA0BwCKswZbqP080ErnmrwDPPLHHdmtltx07X1h/cZqWvdBuPPzzQKXUrVWZJMBahsalLIUOfQTI0m6prbDD7obIV1ArIot9UKhcxGGbOTlBGZKuvhlJT0Nj1+bHJrl1e7eIbSjW0PUKk0LdudB1WVKlm3bqHksGwwRVRbM1L7z+QNIlu8TwAAAACaEmlA1dfXZy9AK5SalCvzZJmuqArvYrlvwNuYO0x1k3Xbf9fD0M7nZfjFD+1zq30hzzz7uls9lR6YRYPyhszwx8a9m1RF048ahC1uhZn8XX7UsPLJ2/+qugotym1FrpCRjTpIGZmaqA4tBidkyg5msjK2sV74ceEbfFj35VIVZQMNgqAB3c9LDZl8uNVRUFLSu/W+ZcekVl/7UhDZjn2qIZmWGdXM3vQ4AwAAAFCGCirMHZ4m5Sr0Cd0g3cu7rfmLZXWYbS3okSdu0mFZ4XXpffp4RSj0ofzs6UOS0X2e7r7je62rnrJ5A7e/y4+q9seiZvl7WodT81PuUDZf3vunQrinX5FnzIyHXvnj1n333s+bqqvQotyWn6b7+hQks3HMGYY2MiW1JsAbnJhyhrdlx2RjN5dRefpyqcci5fdY23+LlA6C1MM6U/955jWb/kxlPcMSMlBx4+nRhKT0TvWP7w6+TwAAAADaKlFU85MDnUSFFS+poXdqRjpvuKOqknSIMT8lB+7tKfWgUgHMblV9U3mbWkrbWnHT6uZmvXP3s7a77/iB/CpkJZBb5VR5Hxt4/9grMmyGFNaityll1/V/zAJtT2t0P6PcVhkVbKR00KSqY/LBQpFCZkCHFiMyVfSpnvIIc90LnprRz+koX9fIVLFm6Oeryb+jlwqi6u1a/3heZsJvVN/f5vbJj/N86uO5BAAAAFSgggpzSKlRerMN0l35d3S1zuWyuZlwSkndJCd+/AP5nd9Ba/JG+7Kw4dRsXLPye9bvvNFTZVZOBT8ndOB1zcp+t5dWLc72fiAHTAWUD3ubAe5nlNuatUJpaF//+MMNQ4Kyhul1h7d1gcEJUd9p5E01VQUVAqnLQ4VTERmcKFq/W1e8lVHBYjF8ONUCbthJHywAAACgChVU6EpulZIKku5sZX8oALCYKrGRKSnGkeABAAAAHY6ACt3HMzQv1HAyAAAAAADQEpEO8cvlcvYCdCzVq8r0jUreSDgFAAAAAEAHiLSCyoRTfX199k+gE/g36L5cfvfjgDPFAQAAAACAlqJJeoyoOIuHmrXvBOEUAAAAAAAdgwqqGPF4AQAAAAAAUEEFAAAAAACAmBFQAQAAAAAAIFaRBlRqqBrD1QAAAAAAABAGFVQAAAAAAACIVaRN0gEAAAAAAICwqKACAAAAAABArAioAAAAAAAAECsCKgAAAAAAAMQq0oAql8vZCwAAAAAAABAUFVQAAAAAAACIFQFVjKg4AwAAAAAAIKACAAAAAABAzAioAAAAAAAAECsCKgAAAAAAAMQq0oCqr6/PXgAAAAAAAICgqKACAAAAAABArBJFi14HAAAAAAAA2o4KKgAAAAAAAMSKgAoAAAAAAACxIqACAAAAAABArCINqHK5nL0AAAAAAAAAQVFBBQAAAAAAgFgRUMWIijMAAAAAAAACKgAAAAAAAMSMgAoAAAAAAACxIqACAAAAAABArCINqPr6+uwFAAAAAAAACIoKKgAAAAAAAMQqUbTodQAAAAAAAKDtqKACAAAAAABArAioAAAAAAAAECsCKgAAAAAAAMQq0oAql8vZCwAAAAAAABAUFVQAAAAAAACIFQFVjKg4AwAAAAAAIKACAAAAAABAzAioAAAAAAAAECsCKgAAAAAAAMQq0oCqr6/PXgAAAAAAAICgqKACAAAAAABArBJFi14HAAAAAAAA2o4KKgAAAAAAAMSKgAoAAAAAAACxIqACAAAAAABArCINqHK5nL0AAAAAAAAAQVFBBQAAAAAAgFgRUMWIijMAAAAAAAACKgAAAAAAAMSMgAoAAAAAAACxIqACAAAAAABArCINqPr6+uwFAAAAAAAACIoKKgAAAAAAAMQqUbTodQAAAAAAAKDtqKACAAAAAABArAioAAAAAAAAECsCKgAAAGA2pkclkUhIYiAjBX1WY9Myqm6TGJBM8BsBAHDBirQHVS6Xs38ykx8AAAC6gwqahmSyf1zyM2lJ6nOD0beVEZkqTsigPhcAgG5EBRUAAADQlIJkBlTAJDKyLWw4pQzKxNSI9XNShkannbMAAOhSBFQxUhVnpuoMAAAAc8z0dhnLWj9HpmSi2fKnwYdlvN/6ObmVoX4AgK7GEL8Y8XjVkD8uvS/9XZ8QWXHTatm78mJ9ykfZ9edJeuP35L4F+mQbHHrxT/Kjyg+UyRvlxJ1X6RPhuNubn5ID9/bINc7Z6FIHH3tUqr5UH1wvZ35xnT4Rjru91Cp5ddcqWeqcDcCL9yHehwJR1VMpGcv2y3h+RtLhy6dKVA+roUmRpoYJAgBwYaCCCh3v7f/7p17zd+i90kFEW6kDkqd9DgqUwuv2ZeuPfaHPAEI6sk+WrPQJp5TpvfZld+36VJ8BoJV4H4IvUz3Vv0GGZ5somSqq7JhsZ6QfAKBLEVCh8xXOyiG9Wu0Lef9zvdpG7x97pfRtufqG+cc/kBNm2ZiSFc4l8vbxQxwcILTTu3bIkp+ecE6oSqdjj8oZs/xxlfQ6l8iJHb8npALagfchVClIZqvqPNVs76lKSRneoBIqkcn9JFQAgO4UaUClhqoxXA3R+1LeP6dXK537WF48r9fb5dxJ+enxL+1VNezjROXwhwU9svfHqyU93zmpDg5+lnfWgYY+OCw/3vGZvdq7+QE5UzkM7+pV8sKxB+SRlHNShVRbjjjrAFqF9yFUKByQPap6SkZkbURT7yWHN4gdUdGLCgDQpaigwhzwpbxX49vp9989K2/r9fb4Qp75n7zzO5M31ulJcrHcd++Ncrc+9fzMSXlfrwO1fSo7f35Y7NqpwfXywqZF9rnVFsn9u9bLOn1q38RhOa3XAbQC70MoN719TJx8aq1ElE+phEqcIqqs7Dkwy4SqkJGBREIS9jJA4AUAmBMIqGJExVlwz7/3oV4rd+b/nG+Q2yb/jmTsb8rnSXqgUfPZq2T0pnnO6vmzcqjWt++AceSoPG5XOSyUR/6zURP062Tz5oXOav6kvPyBswqgNXgfQklBTulJmPt7omxnXhrml91zwPotAAB0FwIqdLB5skIPT5DPv/T55tfT92O+dV292kpuI9z5i2V1gBmarvnWYr1fX8qL79IDBPUdPGz6TvXI7Vc7q/Usva1H96P6TA78hV5UQPR4H4IPd3hfv2yYdXf0csnl+ovL7EkCKgBA1yGgQkdLXWK++f1KzjhrHv+U93TfjxXmelU+lJ89/adwMxmdOynr9W3Ke3Z8KAf1p8UVy64INu32givkTtMDpMEsUNEq3e/KJWwfEjXduN92ep8NP1wkym01Tc+Ot2TlDtn5wVuyxV43yz45qK9mD7fbVLrMvxl56faBm5V/cFju0rcp7x31lryk++L2rllR3neqlqtXyLDpRXWmnaURlY9baQnbD+vgY/7bWbIp/LDFKLd1ISpkRBIJaxlQ9R+OUXXaZwndotm6gd92BqzfWZO1EwP6en6zVWas/TTbqbq4wW2jxPtQsy7g96HCSWd4n/TJ8mjzKZFkj9OHSiZlVr3Sk2mZKRalaC8zko56PwEAaAECKnS0Zf9iPvD7NKg996U4n3HnyZ3LLrLXql0la/SHsrff+zjQh89DM7q3x/yUjOqDf1v+rDxvr1i/71u1en5UUj1A9KxKdzYaihGFL+SZZ9WH7df1vlZ7/iV1+fE6M1Jp9aYvV87nZVh9qH/Rf9hLmSi3FaEDP98r+/S644SM2iGVCqd+r4fbOfxnzLtO7tDNR04cfDtQCHLwv3WPqdQq2XyrfZbjyNt6XxbK8G21ek9VUr2o9Ox+v2g0JDAKJrSrfNxK9v1UXe4N+mrQQWHNcCF/WL6rwqXH3tJn1BHltrqICqecOciqDanwZ1SfaMAOuYb0iQrZMSdE8u1/Y7021xvkftJJAGynKm9vnTYXRzrCygfvQ2Fd+O9D0/v1f05/TwSz91VILnf/L3JVT3wAAC5skQZUuVzOXoDIXHKROzShqkHt51/pxrTz5JpL7BVfq5dd7qwE6r9R+9vp9z83fUas3xdgWEX7qW+rD+neJNb+q5mdvNOOW8sB04tE/i4/qvdtsfogb6Yvl8vldxXbOeGZHUoKr9f/QB/ltiL1mZywjiztmfJUwPOEM1jOCalUONUrE+r8shnzjlYFL2tW6dsF6gNVu0rq9Bln5j4VUC0LMLyv/VTVVCm0cx83z/Kq6YmlHsN6VUsqUPqpHs4o5nH2LqXHXKb31g+WotxWBAqZAXGaEje5tLocSNs+UAqnxq2/abFYWsad8g37CnUroCzekKt/vHw7xSl9gWXM+hvUu2e5U3rFsF6HvZ8mTlYcpxc814+8gqUS70MhdMP7UKn/lPQtjz6gsrbYo/8Hs5VPfAAALnBUUKGzXVIampD/vHxohPtBff5FssRZ85darGcxCtB/o863024j3Ea/LybvH8u7+57e+APfmZ2uWfm90sHB+bxMeCqESqwDDPNBPnmj9cH9JlntnPJwvpF3t2V9oPcfshHltlrAO1PerbeUggzLuifWyRp7bZHcP1oKr16qHMJ26wo9m16APlB1qqTcgCq1INjwvjY7vesv7r4/8sdHfWcYXLppcymkyh+WHb7D/d6SLSZQsh7/M8fM4+zlVIa525reW2PoYJTb6iJZkUlVfmQdBOeLUjX0Jz1TCqlUBVStYEkNwfOGXDNpfcIYdIKqEX1yyDO00CgdiDs/XdYVPQVU1QGWYd2+1fkU70PB8T4UhaSYNlQAAHQbAqoYUXEWxMXut9KVvTPcD+qXzGvQhyP48Aq3+WwyJfd15LfTtXwoE8f149Fg369ZmXKnHa882LK5Q1ZE7l5WfzjINSv73W+dfWe4inJbkaucKW+RLPuWXpVeucM7/O7qBboZuZ/gw/zcJuiDt8n9HVklVctbsmOHDtAa7PvSTbfpwE7k1BmfwO6Df4jJGtatqj8scemme9zQcN9hn8qnKLcVkWR6RpyeL00uE5FNWN/Q1Iw6FPaX3qZXLL59cKzzxnSCpCqn6vW3mTCVVNb1t1dsyz0Qt94KveGVqZAa0elWZYBVMKet27c8oOJ9KKBueR8quMNPo53Bz0fuVFWoCwDAhYyACh1vien/UTaDUmnmpBX/8g1npY5gwytKwyoafYjtOCE+gIt8Q5bpD+C+DXM9Q1aW1Rmy4igduPnOcBXlttopZBVTsGF+peF9jcKUjhMiCBJZoI5Nbb6N2z845/TgkoWSbBjSeULDd/9RHf5Fua0uo0KlulGYddyti5t8q5em9+sVy7bKyqlK1i8yFVmTntspyR69UsEEUD1r9X5UBFilKf6dn63G+1AAvA8BAIBZIqBCx7vGdwYlM3NSwEaxqWv1t6J1hle4wyoulzWeoV5zwoIe2at7afxqtvvu6bcSZEry1XfqHh739lRXEES5rU7mDg+sM8zPHd5XUZ01F1y9Sl7QPZ2emu2+u9VoAYZEWtb8QveS2rWqOjSMcltdpm+5XqklWb+BuduDZ6RB0KXVqpRKmv3Ilp9velAvtzZu37TiclPB0vB+RIT3oQB4HwIAALNEQIXO5/lw6c6g5H5TG7RR7MWyeplzgOE/vOILeWbGDKtY7NOf4gKSf8dtYOvLOyX58aw807Chbx1RbqujLZLb1zg9jvyH+X0qOyfM8L4VPn2SLiBHjpbNfljl6hUyrA9eT+x4TnY2bCxfR5Tb6jKzHZlkAqKRtc7PRgbN9SqCJm+lljthmfXTzr90fynTp6rqckurR1i5eB+KFu9DAADAR6QBVV9fn70AkXI/XH5ZmkHJlOyHaBR7zbcWOwcYfsMrzn0sL+pvwtMDc2xYRVB6iu3STEa1XCz3/XvKPRjL7FbTgf9J1h9r/M1ztSi31dmW3tbjVPP4DfP74G05YB/JVva9uoCo2fRWPuqZUa+WRXL/L1e5lU+P/9C6jXW7u3Y1roCqFuW2ususZr7zBETNKJs539oP86nBnbDM+qnyr/4NTkBlqq/8JjRr+Qx+Bu9D0eB9CAAA1EEFFeaAUk8I00zVnTmpYWNaD88BRmWZ//vvntUHGotldaNvwsuGeHSgcydlvToAqFwaHhB42EM1PNNuW94+fqh8e3Wn4faIcludzK3mqR5udvovJ51eSakeub1Rr6T8uc7uj/TBYblLBVGVS8NgysMeMvhA2ayJJ3b8vnx7jwVsZB7ltiJQyAxIIpFofhmtNWdeZ5ocEmu/AyzW9WoxFVKGaZBuhu+Z6iu3F5YOsNoyg5+L96FQLuj3oaRn9kmf1HTWCqUhtNY/Qfue4wAAxI+AKkZUnAVnGtSaZqpm5qQgjWlLag2v+EIOvae3t+yKmgcabpPcTmUOCHbndUPYCvb02qq3RvmH9Nqcabft22w03z57FF7XH+xfCTBkIsptdapaw/w+lZcPOjPg9a5ZUbP30dIlzm07lgmmfnhYNyavMLje6e9UERbVtkju36V7Qv3RVEF5TO/VAdOOAEP3otwW2s1USJkAym2Qbo7MrZ8qD8jusbMpN8Bqzwx+JbwPBdAV70PJUk81AAAQKQIqzAlug9rCWTnkzpwUsDGth+/wCndYxeWyeWXt7bn7IH+Xg/V67FQ49KL6wGstz55s3YxA6qDAc0Cw4qbV+iDAs9w5iyEjnua39nKHno3K5gyZCDxcIsptdRjfYX7u8L5eeXDTIvssP6WA6oS8dESvBnDwMV0ltOlw6yqvVDjlCaZ6Nz+gwyjP8otZDF30NGG3lye8EZMzdC/wsL0ot9WEZHpGisVi88tEkJbjnWNkSqz9DrekK1IlM5NfVgdTpnrEHb5n/bTzAN2/ygRY7ZrBz+B9qIEueh9KmhKq3Cn7ORmtgtvjrb9tTdYAAOgMBFSYG1KL5W57RTWoLc2cFKwxrYfP8Ap3WEWjprTuPpSGeDRWmoY81DCQUL6QZ/7HHBTMk/TGH8jeOgc4kUjdpD/Y3+g+Jm8ff8c6aGtClNuKm88wP3d4X6Pm6LeukHV69dSZoAHKp/Leu3r1W5e2aGa6T2Xnz004tVAe+eOj8kKdoC0St67TAdN69zE5seOoHNTroUS5LbSEO5Nfzjo0t47296iD84rZAb2N0k2A1a4Z/Fy8D9XRXe9DSVNClT0ZfUBVOKV7vPXLhmECKgBAdyGgwhzxDVmmP9C/966eOSlEY9qSyuEVH8rEcWdYxd3LGn2ze5Ws0Z8V/Wdg8mMOYsIOAwnD8ztu6pf7Gh4sla4/e1fJr9yhEuG+0a8W5bbiUjnM7y3ZscMZ3rduVaMKo+vkDn1E7j8ToJ9zUtCPU++SsEfJQXl+x+Z75P5GPbQ815+96+Qpd8heuMqyalFuq8tZr4MbSgUks2dtT29OFY84DdIrqqP8GqW3v7iE96Hauux9KNmjn7O58qb/USicdHqsSd8sJzPIyEDC9LcbkEzkSRoAANGLNKDK5XL2AkTP06D2Pf1Nc5PfBJcNrzh2Vp63z71c1gTom7N6mR4GcD4vEwE+BL9/LK+3H34YSGDuVOciqUsC/A7P9f2EHgqyYJ6Yh67yG/0otzVXlA3z2/W27LPP7ZU7brVX6lqzSg9Hyx+WHQEClNO7/qK3v1CGb2tRVdMH/xCTQSxfEuB3eK7vJ/SQxKsvFVMoU1lZFuW2EI5bQKL7QjUyPaqbpQ/4XN86CDdD+A7oJ09ldZQZBqgCMTP8qW0z+Ll4H6qp296HksM6pM3KngPRJj/T+yedlZG1ZVWEAAB0AyqoMGe4DWrPB/2muQbP8IrMcWdGoRU3XVt/WIWRutZt7Pr8TKMPu6VvxSWZCvCNcpNChjqHZmo0r9XcJrxBZ4mqc2AS5bbmDM8wv8d3OAPjejffUn94n3HrLW6D8X0TjUKXUnWWDN4WoLKpSSFDnYP/XaOJuub22go6W2GdgCzKbSEcM7OeCpW2B5h40Bxz92+w86gqZgjfnj3Oz8rqqOSwU2WlAjH7azDrRNvzKQvvQzV03ftQUoZ1GWF2z4EIh/mVZvAbWUs8BQDoPgRUMaLiLJxSc1hlnizT32SHd7HcN+BtiBrmW2Xrtv+uy//P52W45rTUX8gzz77ufmudHphFY9iGzLAT66CpQf8N9U3yjxp8kna/2Ze/y48afuPs7TtS/e1/lNuaOxbJ/aPextxhqpus2/5SD0PLH5bvPvaWfW61T2Xnpr1u9dQj/zmLBuUNLVDHtbZGvZtURdNog7DCrTCTEzLasPLJ2/+qugotym0hJOvYeVyHSpNDIvX+7Kp6SudTsmFYr1RwK7JqVUdZp02VlX0V60QcARXvQ7V03/tQcniDM8wvu0ciK6IqHHB6sMmIzDqfSqZlpliUYn68NIQWAIAOR0CFucPTHFZ92A7dmNbLu635i2V1mG0t6JEnbtIHKfa01McrPox/KD97+pBkdH+Nu+/4Xuu+tbZ5D3SsD+BV+2PRU3/bBwXzU1WzaJXx3j918FNryu38ceu+e+/nTdXf/ke5rbnE0/BcUj1ye5jqpqtXydObdWXQ9F5ZsnJfRSj0lmxZ+Xt5XH/Fv+6Jza2rnrJ5A7cTMlq1PxY1y99KHU6lVskj9Q6svPdPhXArd8hOM+Oh15F91n333s911VVoUW4LoaVn7F7mtqGE+IaTo9b5Q2bE0lT1DH6GGcJnq2iQbpgqK6XdM/i5eB+qoQvfh5Jp2Wb/A0Q3zG96+5gdwPaPP8zwPgBAV0oU1bzWETHVQH19+qtQ1MXjVYP6kPiSGvKgZgLyfqhW3wbrD4/Wh9sD9/aUen+401tX3qaW0rbUVNhNzTbk7mdtd9/xA/lVyEog99vlyvvYwPvHXpFhM5SjFr1NKbuu/2MWaHtao/sZ5bZmTYUVP1V1NGpGuvJwx60ASq2SV3etKs2KpwKYHzrVN+ueeFSealh9oyqcnECkd/MDzc165+5nbcH2pVzN+9jA6V075LtmSGEteptSdt3qx1kJtD2t0f2MclsXskLG+hONOetT1jt/owNgFS6pbKl/XGQm7Zznx1yvHhVOTdT7hdZzMjHkrNb6faoSyxt21d3ebPE+xPtQkMfMelIm1JPSetLmrSft7Kr6pq3/pSHrf6lfxvMz9QO8EAqZAev/vs/6n58g9AIAdDwqqDCHlBrUznqq7Pw7+lvSy2Vzs1Nh62mpf+f3ITJ5o31ZS4OWCtes/F7ZFNmV1AfuE/pA45qV/W4Pk1qc7f1ADphvnn3Y2wxwP6Pc1pxw5Kiu1umVB5sJp5Rb18mZY4/6H4QPrrcva2fQsnTTZut3ri9VhlVQwc8ZHXgt3XSP20urFmd7j8qrpgLKh73NAPczym0hvImiSHFKn6igwib1NVjDMMl6HTUFUpUN0g1vlVX7Z/AzeB+qp+vehwYnZEpVUWXHAvViq6eQ2eoEvSPbIg6nstY2abgOAJgbIq2gQjhUUMXH/XZYfYC/s5V9OdCN3ColFST9opX9oQDMVbwPXSAKGRlIjUl2VlVUpnpqJLpKJ7NfI1NSbGm5IQAA0aGCCt0nf9w5KLA0PQMTUMuRfW4vnnWrCKcA+OB96MKRTMtuNWPALKqopkdVOKUqDiPsPWWapBNOAQDmECqo0F3cHiEWvrVG1Dy9qqieAuCL96ELUEEyAykZyzZRARVJBRYAABcGAipc8Pwbo14uv/vxHJ8pDh3Bv0F3r0wcY6Y4AA7eh7pAU0FTC4b2AQAwhxFQ4YJXeWDQ9GxJgI/KgKrpWfsAdJR8Pi/vvvuuXHrppXavyK9//ev6EkeYyy/+/76Qta9/pS9x3od+dcmndW8PAADQbQioAAAAPM6ePSuHDx8W8xHpxhtvlGuvvdZeV1p9OQAAQDeKtEm6mpXOzEwHAAAAAAAABMEsfgAAAB6LFy+Wnp4e+drXviaXX365fPOb39SXOFp9OQAAQDeKdIifqZ5SvRTQGI8XAAAAAAAAFVQAAAAAAACIGQEVAAAAAAAAYkVABQAAAAAAgFhFGlCpXkr0UwIAAAAAAEAYVFABAAAAAAAgVpHO4gcAAAAAAACERQUVAADtMj0qiURCEgMZKeiz2mtaRtXvTwxIJp4dAAAAAHxRQQUAQFuocGhIJvvHJT+TlqQ+t/30fsiITBUnZFCfCwAAAMSJCioAAFquIJkBFQqJjGyLM5xSBmViasT6OSlDo9POWQAAAEDMIg2ocrmcvQAAAI/p7TKWtX6OTMlEJ5QsDT4s4/3Wz8mtDPUDAABAR4h0iJ8Jp/r6+uyfQDc4+NijUlWEMLhezvziOn0iHHd7qVXy6q5VstQ5G1F5bYs89OQ+fUJk8YZXJX1PnUe57Pq98v3fvCC3X6lPRqlT9ytKH+2UzIOPy1lr9YaHzsi9Nztnz0WfPHeXjO85Ya2tk//Y95R82zm7BlU9lZKxbL+M52ckPYvyqUJmQFJ20lWufzwvM2E3rPphDU2qG8c85BAAAABgiF+sqDib447skyUrfcIpZXqvfdlduz7VZ6BTnf3otF7z9+axUmjUTp26XyUH5dl1S+Qha8k8V39fu56pnurfIMPNpkC6ubpfOKVkx1LhG5+bKqrsmGxnpB8AAABiRkAFNOH0rh2y5KeqesKiKp2OPSpnzPLHVdLrXCIndvyekKrTHX1J3tSr1U7Lpx/q1Xbr1P1CSAXJbFWdp2bRe8pUOtlUFVZRVPGzu+THrXOVrIylEv6hua+kDG9wbjm5n4QKAAAA8SKgAsL64LD8eMdn9mrv5gfkTOUwvKtXyQvHHpBHUs5JFVJtOeKsoxOdkk8/0quVPnpZ/nZGr7ddp+4XQikckD120dOIrG2q99S0jJpwSg3FK/oMEUymZaaYd6qhLJNDo9atgkkOb3DCLXpRAQAAIGYEVEAon8rOnx8Wu3ZqcL28sGmRfW61RXL/rvWyTp/aN3FYGATVqU7IZx/r1QqfvHbA7pcUj07dL4QxvX1MnHxqrTSTTxUyW+2Z/+zKqd31KrCSkt5tKqkmJXBBVHJYnCKqrOw5MMuEqpCRgUTCHooYerghAAAAul6kAZVqjk6DdFzQjhyVx/NqZaE88p+NmqBfJ5s3L3RW8yfl5Q+cVXSeN44d1GvlPvtID+OMSafuF4IqyCndZrC/p7nmU4WTuudUkP5VbtgUZsheaZhfds8Ba48BAACAeFBBBYRw8LDpO9Ujt1/trNaz9LYe3Y/qMznwF3pRdZZeWbxEr374nnyiV0s8fZ6WWNfVq63XqfuF0Nzhff2yoenu6K2XXK6/WMqeJKACAABAbAioYkTFWQ16drwlK3fIzg/eki32uln2Samm5FPZual0mX8z8tLtAzcr/+Cw3KVvU9476i15SRcl9K5ZUd53qparV8iw6UV15pyz0haVj1tpCdsP6+Bj/ttZsin8sMUotxWFRVfpdvZnCuJ0FfM6LZ/pPk+Lr1rurFRpYia7j3ZKRt/m2df0eRVmv18+Xtti/87KJewMfG/+1tx2VN7Q553d813PNu+Sl2v1zqrF85h4l9CzA9a4j7Ue53o+ee6u2W+ncNIZ3id9srxz8ymRZE/4oYF+7F5Ypnm7T68sAAAAoA4CKnS0Az/fK+WT6Z+QUTukUuHU7/VwO4f/jHnXyR268cuJg28HCkEO/rfuMZVaJZtvtc9yHHlb78tCGb6tVu+pSqoXlZ7d7xeNhgRGwYR2lY9byb6fqsu9QV8NOiisOSNY/rB8V4VLj72lz6gjym1FaOGVJuDxaUj+0XvWo6n0yvUrax1pr5Hrb3HWzv71ZZ9qp2pvPve40z9qySPyvZvts6rMfr+8dIj2pP8zwgmXmgiVInFaXt5i7duD+jGpEHzf6t/HN55UAdOWOrMiejnbGt9TPYzS3s6WnYH+zsr0ftPcvKe52fssyR49Zi+7Rxq2iHIrtkIOKUwuF/NVSe4UNVQAAACIBwEVOthnciJvHYarmfJUwPOEriqxQyoVTvXKhDq/bMa8o1XBy5pV+naB+kDVrpI6fcbUsiyUZQGG97WfqpoqhXbu4+ZZXjU9sdRjWK9qSQVKPzUH6OZx9i6lx1ym99YPlqLcVtSuTOohcj4NyT8u6NBkuSy6wl7x9e2VuhX+mQPytwBByt+OOmuLv3O7XOasVotgvxwqbClVOi3e8Ko8ue9MaXnItPE/IX9+MFiA8+2fmNtPyA36vPLtviC3X6kvqEuFU9+VP6tqsFsmPLd3lrENpf/3Pz9YL6Qqv483PFS+ndJ93Cd/aBhS1X+87H0687iMb9npU9lWqdR/SvqWNx9QmVn2JCtj2+uVNxUks1E3ZJcR2RaqfCkpbg52koAKAAAA8SCgQmfzzpR36y2lIMOy7ol1ssZeWyT3j5YOZl+qHMJ26wo9m16APlB1qqTcgCq1INjwvjY7vesv7r4/8sdHfWcYXLppcymkyh+WHb7D/d6SLSZQsh7/M8fM4+zlVIa525reW2PoYJTbaoErbpfrdb+nTz8qj+s++eiUs7IkaT2iddx8hw5qTsjfXmtQo/faSzr86JXrb67zLIpiv+wAyIQtvfL935yR9D0Vv/Pmp6QUNO2TP4SoDpqtN55U4ZSzX0/+pPpZcdk9L5QHaM/51/y9+dvy+3hvZVVaiPtY2pYTdFU+Xu4+nXlc/uBTYdUSybTsHtfp0eSQJBKjUhVT2bPnpWRMV0+NTE2EnDEwKaYNFQAAABCXSAOqXC5nL0A0KmfKWyTLvqVXrYPRO7zD765eYJ1TS/Bhfm4T9MHb5P6OrJKq5S3ZsUMHaA32femm23RgJ3LqjE9g98E/REcgsm5V/WGJSzfd44aG+w77VD5Fua2WWCqLrnLWzlYEQe5MeVctq13pZAs+zO/NY3oI2i0PNqgyimC/XtvhVCdZFm94us7vWyP3miDozOPyShP9mpp1w0MNqq1u3izfr9cw/rUt8gddkVZ/WwHu40c75aDelqroqgq6jJufkv/Qf+/6CuJOwNfkDH5GMj0jeRNSyaQMJRKS8C4pUzmlwqmiTIRLp8rlTtEoHQAAALGgggpzU8gqpmDD/ErD+xqFKR0nRBAkskCSOgjybdz+wTlxIpCFkmwY0nlCw3f/UR3+RbmtFll4pX5ulAUgpZnyFl/Z+JkWbJhfaXjfDSurK4YqzXa/3DBM1smaysqpSp4g6I1jDbuTRaNOD66SUlDn1zDevY9BttXgPn7y2gE9dLJXvn9P/b/Pt+95pO2zJ5aHVP76x/OzC6cAAACAGBFQxYiKszZyhwfWGebnDu+rqM6aC65eJS/onk5PzXbf3Wq0AEMiLWt+oXtJ7VpVHRpGua0Wucw0JC8LQMxMeQ2G4hlu+FFnmJ87vG+dtU17pa7Z7VcpyJJb7pBv69XaPEGQX6VSKzSsTHO4QV2VgP28XEvl+u/obR19qaIX1Wn52191ZdqSYbm+UQ+tK0tDMNvCHsKXkJQaw9c/Lnl3pjyz5EVlV9mxlP8QQAAAAGAOIKBCl1gkt69xOvb4D/P7VHZO6APUwRU+fZIuIEeOls1+WOXqFTJsKqx2PCc7GzaWryPKbbXKFaYhuWfGPHemvOWyqFFYYSuFH/7D/E7Ly3vN8L4ggZFlVvtlgqxg1VpKqQqsulKpFYJUptXlPhbWf3fAbbmhn/cxtZUer6BhlxvotZoKp/QQPjV8rziT9mm4npT0TFFXWKkhgIRUAAAAmHsIqNA1lt7W41Tz+A3z++BtOWCHNpV9ry4gaja9lY96ZtSrZZHc/8tVbuXT4z+0bmPd7q5djSugqkW5rRZxq2E8M+aZmfIaNiIvuezmYSdQ8hvm99HL8jdd+dRo+JhrNvvlCW/CqwxvWiNoqFSTO5thryxsOJuh5oZ+PrMjhlS7sitKnpn5RqYaDt9TwwCnRtTapAwNZOglBQAAgDmFgArdw63mqR5udvovJ51eSakeub1Rr6T8OZ8KrA7ywWG5SwVRlUvDYMrDHjL4QNmsiSd2/L58e48FbGQe5bZaolQNY2bMc2fKCzgMzeYJlCqH+bn9jYIMH3NFs19vPLlEHloXYHnS9Ky6gF25TMzclmWzIzZRjdVYUnp0y6jsySajountema+fhl/OFhzqcGHx61rW7J75EDgX1uQU2a0ed9ynwotAAAAoPUiDaj6+vrsBehMtYb5fSovH3QGNfWuWSG1Dk+XLglaSxMTE0z98LATtlUaXO/0d6oIi2pbJPfv0j2h/miqoDym9+qAaUeAoXtRbit6phrGzJhnZsoLNwyt1jC/Un+jYMPHSqLZL8QjKctn+XZYKKVGsjxoapQclg1OQiV7gidUAAAAQOyooEJX8R3m5w7v65UHN5n6imqlgOqEvHRErwZw8DFdJbTpcOsqr1Q45Qmmejc/oMMoz/KLWQxd9DRht5cnvBGTM3Qv8LC9KLcVEbc3kd082zQYD9gg3cN3mJ87vC/AbHoVotivGx46I0/uC7O8ILcHrvKaY2pVStWqrJqlpCmhyp1qarhd4aRdPiXS39NUVVPwyq2ClH4V9VMAAACIBwFVjKg4i4HPMD93eF+j5ui3rhDdRlpOnQkaoHwq772rV791ac3qrNn5VHb+3IRTC+WRPz4qL9QJ2iJx6zodMK13H5MTO45K9eT9AUS5rWbdfIfcYK+o/kumYXbQBukePsP83OF9QZuje0W1XxeiZvpJBehbZarVGjHVbPUkTQlV9mRn94MqnBKnVqtfNgwTUAEAACAeBFToMpXD/N6SHTuc4X3rVjWqMLpO7tBtYPxnAvRzTgp6xrzeJQuclch5fsfme+T+Rj20PNefvevkKXfIXrjKsmpRbiuspbLQNCR/TVfZhGiQXlI5zO+gvLLHCTKCzqZXrsn9coOyaCuCOkoTVU9uD6+qkG+NXH+LXv3wPZ9ZGCuZarYGkj1OPyjJyanZJFShAq5SNVRghZNOI/YwQwn9qBkHEwlJ2MuAZDo6lQMAAECnIaBC1ykb5rfrbXFaQ/fKHbfaK3WtWaWHo+UPy44AAcrpXX/R218ow7e1qKrpg3+Ie9i9JMDv8FzfT+ghiVdfah3uOyory6LcVmt5GpL/VVc8hWmQ7lE2zO+5l+QN+9x1cv3N9kpIze5X6Xbl/bBqe/O3uln6lp2Brh+/UqgU7D6WeoH5VbO5s/L5zcJYyR222cAs+0ENrrWn5LNMyv5pvdrI9H7r2o6RtcEaq0/v17cYWSvBbgEAAABEj4AK3cczzO/xHc4Ba+/mW+oP7zNuvcVtML5volHoUqrOksHbAlQ2NSlkqHPwv2s0UdfcXltBZyusE5BFua1WcxuSn5lNxZPFM8zvz3uceHLxhs3hh/dpze7Xt1fqAZNnHpdXXnNWazsofzvqrIVt5B6nUPfxtR3yZx0q+T2GbrCo/m7P1R9g+uZzj+uhgo0kZdhJqCS750D4YX6Da8WNqLZmAty+IJmtbjwlwfKp0gx+QQMtAAAAoBUiDahyuZy9AJ1tkdw/qqslbGGqm6zb/lIPQ8sflu8+9pZ9brVPZeemvW711CP/OYsG5Q0tkKQOzRr1blIVTaMNKjHcCjPrQH20YeWTt/9VdRValNtqNbchua12j6LGlsrt6003LSV8s3Wvpvfr5s3yfT3M740nt8ibzqqvN387qiu9ZrevbXfzU/IfuorqjSfvkpdrVT59tFMyTzr/jXLLhNzrV8125f2yxgzzOzoqz9YKvF7bIn/QYV4QyeENzjC/7B4JX0Q1KA+P60br2TFJNfjnnR5NyZhpdj7+cLBqqMIB2WPfJmigVUcyLTPFohTz43poIwAAABAcFVToTp6G55LqkdvDVDddvUqe3qwrg6b3ypKV+ypCobdky8rfy+O6z9O6Jza3rnrK5g3cTsho1f5Y1Cx/K3U4lVolj9Q7EPXePxXCrdwhO82Mh15H9ln33Xs/11VXoUW5LT9R9rxxG5Irs2xE7t3WkmG5PqpthdqvpXL7UxP6tvvkD+uW+IQuB+VZ63wTuNzwUHMz+AVtLN4K3/6JuY8n5M8P+tzH17bIQw+aiqd18h8/qf3MKm1LBV5LJPNc+f365Lm75CE76OqVG27xhtx1JNOyzS6Dam6YXzI9I1NuGdWQ//Nc/x8MucVTUzKTDtZManr7mN1/KnCgBQAAALQIAVWMqDiLU6nqqHfNCutQPpylmzbLmSe8oZDutWQvpnJKBS2PylPtqAS6dZ28aoKgqv2xlh/qyqTUKnl11yq53Qy9swO26tBI3b/S9j6Tx39YsT21/NSpdVLq3c8ot9VapiG5pakG6V6lbc1+yNxs9muN3LuvPHSx+0y5i6mcUuHUGf/Kopo8jcWPjnq2WaeSqSUa3EdTOaXCqX1PNRhqWb6ts3u+W7atcdPw/qEX5HshgjzTS6qpYX6WwYliKaSSrIylTCirl5QTMin943kpTgSNmqbFaT8V7ex9hQN7rP2ZZcN1AAAAdB0CKnSnI0d1tU6vPLipyV5Ht66TM8ceFd9jwcH19mXtDFrs0OzY+lJlWAUV/JzZtcoO45ZuusftpVWLs71HPeFSNXubAe5nlNtqnVJj8WYbpLvcfkfrZM09sx0yN9v9UqHLGXnyIf9nxuINr8qT1uXhwinHt3/yqjuMMF7176MK355sGE4ZzrbGNvhXSIUP8iyDE07AlB2T7UGbnVdQIVWx6A2qKoxM2ZcHrZxSCpmtTkP1kW0S4mZ1FTIDklLjDGm4DgAAgJAS1gfaol6fNVMN1NfXZ/9EfTxe8XF7Makg6Ret7A+FbqRmxLOHzd0yIU/WGVKGLqKG4alKp/5xyc+kJf7iomkZTQzJpIzIVHEimjDJ3EcVlgWu4gIAAAAcVFCh+xzZ5zYKX7eKcAoR8zTRbnomQFx4kmnZrRqez6KKKkrToyqcirj3lGmSTjgFAACAJkQaUKlKIKqB0NFUs3DT72hwfYzDyXBBCjJbHLpWMr1bVEY1OTQqsWZUhYxsddIp2R3V2D4AAABgliId4odwGOLXHqd37ZDv7vhMnzJ6ZeJYwJnigDrUzG6meXZJkIbc6EqxD/VrwdA+AAAAIAIEVLjgVQZUvZsfkBeabYwOVKgMqFTT8fSsG6MDAAAAQHchoAIAAAAAAECsaJIOAAAAAACAWBFQAQAAAAAAIFaRBlSq6bdp/A0AAAAAAAAEQQUVAAAAAAAAYkVABQAAAAAAgFgRUAEAAAAAACBWBFQAAAAAAACIFQEVAAAAAAAAYpUoWvQ6AAAAAAAA0HZUULVTISMDiYQk3GVAMgV9GQAAAAAAQJcioIpVVsZSCUmMTuvTAAAAAAAA3YchfrEpSGYgJWNZ59TIVFEmBp11AAAAAACAbkIFVWySkp6ZkhF9anI/VVQAAAAAAKA7EVDFalDWmoQqd0poRwUAAAAAALpRpAFVLpezFwSX7Ol3VrInCagAAAAAAEBXooIKAAAAAAAAsSKgAgAAAAAAQKwIqAAAAAAAABArAioAAAAAAADEioAKAAAAAAAAsYo0oOrr67MXAAAAAAAAICgqqAAAAAAAABArAqqYJZebirNJ2T+tVwEAAAAAALoIAVXckj3Sr1cnSagAAAAAAEAXIqCKWzIt20b0+uSQJAYyUtAnAQAAAAAAugEBVQcYnMjLuCmjyo5JKpGQhF4GMsRVAAAAAADgwhZpQJXL5ewFYSUlPVOUYrEoU6aaCgAAAAAAoEtQQdUhpkediqmh3Ljki05YpZaZdFJfAwAAAAAA4MJEQNUBVDg1NGmt9I9LfiYtRFIAAAAAAKCbEFDFrZCRrSqcsoxsI5wCAAAAAADdh4AqboWTkrVX+qWHdAoAAAAAAHQhAqqYFU6ZpvJ9spyACgAAAAAAdKFIA6q+vj57AQAAAAAAAIKiggoAAAAAAACxIqACAAAAAABArAioAAAAAAAAECsCKgAAAAAAAMSKgAoAAAAAAACxijSgyuVy9gIAAAAAAAAERQVVzAons85Kf48knTUAAAAAAICuQkAVq2nZP6lX+5YTUAEAAAAAgK5EQBWbgmQGhsTkUyNrB/UaAAAAAABAdyGgaqdCRgYSCUnYS0rG9Og+GZmSCfIpAAAAAADQpQioYtUv4/miFEmnAAAAAABAF0sULXodAAAAAAAAaDsqqAAAAAAAABArAioAAAAAAADEioAKAAAAAAAAsSKgAgAAAAAAQKwIqAAAAAAAABArAioAAAAAAADEioAKAAAAAAAAsSKgAgAAAAAAQKwIqAAAAAAAABArAioAAAAAAADEanYBVSEjA4mEJNxlQDIFfRkAAAAAAAAQQMQVVFkZSyUkMTqtTwMAAAAAAAD1JYoWvT5LBckMpGQs65wamSrKxKCzDgAAAAAAANQSYQVVUtIzUzKiT03up4oKAAAAAAAAjUU8xG9Q1pqEKndKaEcFAAAAAACARiKfxS/Z0++sZE8SUAEAAAAAAKChyAMqAAAAAAAAIAwCKgAAAAAAAMSKgAoAAAAAAACxIqACAAAAAABArAioAAAAAAAAECsCKgAAAAAAAMSKgAoAAAAAAACxijygSi7v02uTsn9arwIAAAAAAAA1RF9BleyRfr06SUIFAAAAAACABloQUKVl24henxySxEBGCvokAAAAAAAAUKklPagGJ/IybsqosmOSSiQkoZeBDHEVAAAAAAAASlrUJD0p6ZmiFItFmTLVVAAAAAAAAICPFgVUItOjTsXUUG5c8kUnrFLLTDqprwEAAAAAAAC0KKBS4dTQpLXSPy75mbQQSQEAAAAAAKCW6AOqQka2qnDKMrKNcAoAAAAAAAD1tSCgOilZe6VfekinAAAAAAAA0EDkAVXhVE6v9clyAioAAAAAAAA00LIm6QAAAAAAAEAQBFQAAAAAAACIFQEVAAAAAAAAYkVABQAAAAAAgFgRUAEAAAAAACBWBFQAAAAAAACIFQEVAAAAAAAAYhV5QFU4mXVW+nsk6awBAAAAAAAANUUcUE3L/km92recgAoAAAAAAAANRRhQFSQzMCQmnxpZO6jXAAAAAAAAgNoSRYteD6+QkYHUmOhBfSUjU1KcIKACAAAAAABAYxEP8euX8XyRcAoAAAAAAACBza6CCgAAAAAAAJilyGfxAwAAAAAAAMIgoAIAAAAAAECsCKgAAAAAAAAQKwIqAAAAAAAAxEjk/weSLubnV6WdHAAAAABJRU5ErkJggg==;" vertex="1" parent="1">
          <mxGeometry x="720" y="380" width="432" height="401.92" as="geometry" />
        </mxCell>
        <mxCell id="Q9gKy69nFiU8lOJL0LT9-17" value="" style="rounded=0;whiteSpace=wrap;html=1;" vertex="1" parent="1">
          <mxGeometry x="260" y="380" width="210" height="350" as="geometry" />
        </mxCell>
        <mxCell id="Q9gKy69nFiU8lOJL0LT9-18" value="" style="rounded=0;whiteSpace=wrap;html=1;" vertex="1" parent="1">
          <mxGeometry x="270" y="390" width="190" height="50" as="geometry" />
        </mxCell>
        <mxCell id="Q9gKy69nFiU8lOJL0LT9-19" value="CODE" style="text;html=1;strokeColor=none;fillColor=none;align=left;verticalAlign=middle;whiteSpace=wrap;rounded=0;" vertex="1" parent="1">
          <mxGeometry x="280" y="400" width="50" height="30" as="geometry" />
        </mxCell>
        <mxCell id="Q9gKy69nFiU8lOJL0LT9-20" value="RAM" style="text;html=1;strokeColor=none;fillColor=none;align=center;verticalAlign=middle;whiteSpace=wrap;rounded=0;fontStyle=1;fontSize=14;" vertex="1" parent="1">
          <mxGeometry x="260" y="350" width="60" height="30" as="geometry" />
        </mxCell>
        <mxCell id="Q9gKy69nFiU8lOJL0LT9-21" value="" style="rounded=0;whiteSpace=wrap;html=1;" vertex="1" parent="1">
          <mxGeometry x="270" y="450" width="190" height="50" as="geometry" />
        </mxCell>
        <mxCell id="Q9gKy69nFiU8lOJL0LT9-22" value="&lt;b&gt;BSS&lt;/b&gt;" style="text;html=1;strokeColor=none;fillColor=none;align=left;verticalAlign=middle;whiteSpace=wrap;rounded=0;" vertex="1" parent="1">
          <mxGeometry x="280" y="460" width="50" height="30" as="geometry" />
        </mxCell>
        <mxCell id="Q9gKy69nFiU8lOJL0LT9-23" value="" style="rounded=0;whiteSpace=wrap;html=1;" vertex="1" parent="1">
          <mxGeometry x="270" y="510" width="190" height="50" as="geometry" />
        </mxCell>
        <mxCell id="Q9gKy69nFiU8lOJL0LT9-24" value="&lt;b&gt;DATA&lt;/b&gt;" style="text;html=1;strokeColor=none;fillColor=none;align=left;verticalAlign=middle;whiteSpace=wrap;rounded=0;" vertex="1" parent="1">
          <mxGeometry x="280" y="520" width="50" height="30" as="geometry" />
        </mxCell>
        <mxCell id="Q9gKy69nFiU8lOJL0LT9-25" value="" style="rounded=0;whiteSpace=wrap;html=1;" vertex="1" parent="1">
          <mxGeometry x="270" y="570" width="190" height="70" as="geometry" />
        </mxCell>
        <mxCell id="Q9gKy69nFiU8lOJL0LT9-26" value="&lt;b&gt;HEAP&lt;/b&gt;" style="text;html=1;strokeColor=none;fillColor=none;align=left;verticalAlign=middle;whiteSpace=wrap;rounded=0;" vertex="1" parent="1">
          <mxGeometry x="280" y="560" width="40" height="60" as="geometry" />
        </mxCell>
        <mxCell id="Q9gKy69nFiU8lOJL0LT9-27" value="" style="rounded=0;whiteSpace=wrap;html=1;" vertex="1" parent="1">
          <mxGeometry x="270" y="650" width="190" height="70" as="geometry" />
        </mxCell>
        <mxCell id="Q9gKy69nFiU8lOJL0LT9-28" value="&lt;b&gt;STACK&lt;/b&gt;" style="text;html=1;strokeColor=none;fillColor=none;align=left;verticalAlign=middle;whiteSpace=wrap;rounded=0;" vertex="1" parent="1">
          <mxGeometry x="280" y="650" width="50" height="50" as="geometry" />
        </mxCell>
        <mxCell id="Q9gKy69nFiU8lOJL0LT9-29" value="MyClass.x = 5.0f&lt;br&gt;z = 2.0f" style="text;html=1;strokeColor=none;fillColor=none;align=left;verticalAlign=middle;whiteSpace=wrap;rounded=0;" vertex="1" parent="1">
          <mxGeometry x="330" y="520" width="150" height="30" as="geometry" />
        </mxCell>
        <mxCell id="Q9gKy69nFiU8lOJL0LT9-30" value="y (초기값0)" style="text;html=1;strokeColor=none;fillColor=none;align=left;verticalAlign=middle;whiteSpace=wrap;rounded=0;" vertex="1" parent="1">
          <mxGeometry x="330" y="460" width="150" height="30" as="geometry" />
        </mxCell>
        <mxCell id="Q9gKy69nFiU8lOJL0LT9-32" value="" style="rounded=0;whiteSpace=wrap;html=1;" vertex="1" parent="1">
          <mxGeometry x="340" y="690" width="120" height="30" as="geometry" />
        </mxCell>
        <mxCell id="Q9gKy69nFiU8lOJL0LT9-33" value="Main()" style="text;html=1;strokeColor=none;fillColor=none;align=left;verticalAlign=middle;whiteSpace=wrap;rounded=0;" vertex="1" parent="1">
          <mxGeometry x="340" y="670" width="40" height="20" as="geometry" />
        </mxCell>
        <mxCell id="Q9gKy69nFiU8lOJL0LT9-37" style="edgeStyle=orthogonalEdgeStyle;rounded=0;orthogonalLoop=1;jettySize=auto;html=1;" edge="1" parent="1" source="Q9gKy69nFiU8lOJL0LT9-36">
          <mxGeometry relative="1" as="geometry">
            <mxPoint x="500" y="595" as="targetPoint" />
          </mxGeometry>
        </mxCell>
        <mxCell id="Q9gKy69nFiU8lOJL0LT9-36" value="" style="rounded=0;whiteSpace=wrap;html=1;" vertex="1" parent="1">
          <mxGeometry x="350" y="580" width="100" height="30" as="geometry" />
        </mxCell>
        <mxCell id="Q9gKy69nFiU8lOJL0LT9-34" value="MyClass myClass : 클래스의 주소(4byte)" style="text;html=1;strokeColor=none;fillColor=none;align=left;verticalAlign=middle;whiteSpace=wrap;rounded=0;" vertex="1" parent="1">
          <mxGeometry x="345" y="695" width="115" height="20" as="geometry" />
        </mxCell>
        <mxCell id="Q9gKy69nFiU8lOJL0LT9-31" value="object MyClass" style="text;html=1;strokeColor=none;fillColor=none;align=left;verticalAlign=middle;whiteSpace=wrap;rounded=0;" vertex="1" parent="1">
          <mxGeometry x="360" y="580" width="90" height="30" as="geometry" />
        </mxCell>
        <mxCell id="Q9gKy69nFiU8lOJL0LT9-38" value="인스턴스화 된 변수 y와 z의 데이터" style="text;html=1;strokeColor=none;fillColor=none;align=left;verticalAlign=middle;whiteSpace=wrap;rounded=0;" vertex="1" parent="1">
          <mxGeometry x="510" y="580" width="110" height="30" as="geometry" />
        </mxCell>
      </root>
    </mxGraphModel>
  </diagram>
</mxfile>
